<mxfile host="65bd71144e">
    <diagram id="z0thA75EbukljTdS86L3" name="Page-1">
        <mxGraphModel dx="2172" dy="517" grid="1" gridSize="10" guides="1" tooltips="1" connect="1" arrows="1" fold="1" page="1" pageScale="1" pageWidth="1100" pageHeight="850" math="0" shadow="0">
            <root>
                <mxCell id="0"/>
                <mxCell id="1" parent="0"/>
                <mxCell id="2" value="" style="shape=stencil(7Zvbbhw3DIafZm8FSdTxOk3fI0Cc2qhrB47bJm9fqgtNZ0juP6vLArmzd/XN6EBSPO2FPnx7/PT14RL9t/e3198f/n76/P54oV8uMT69PD68Pb3zXxf6eKEPX17fHn57e/3z5fP1/6+fxsjx1x+vf40nfL9yiVzOg4r+x/UT76j++8Gv1/HPTy+78RRdbmJ8B+NjdZEO44MrEYxPrvvD+OhCBuP5cSTGN7o9PjRXj+NpPsAer+afXGpgfHEpHcZnlwIYn13vh/H8ALCfPL7Gw/jqCn5+Ps6HN6DD8Umcl3cebVB2dBSgEBzhGcXjikN0xWNAvIFcR1MqLh73aEwSCB0fshAifkQFUhe6ekObn9hi6l0Ti+6uFgBse7LJNW9rgopDxynxIzo4aRY0f9xWfkRBQJ2SswEF2goWtSx0szkPTpq/bkdhjd1ltEttGp9Nm0/MUZ/CvAHRRfSGLneJCCroAMoRSHMbbgJiDfn0DQLgc0AHpwG2akiWNMAHt/aGhoVPA931k3M4AolPemkNKay+gaDlM4DkwtqU2LSBy8QA+HZAZkYDFdpWA2jYLmmgT9N2J5DD4rZmdgGW9CETNPcGsKqiOS/uUi6L0prboizlvmgEind1STRKdB5c7AZA0BMwgDS9y3sBPoc1oCwagdKmPb8X2D65H1gzldVPH/leILi2dA41urokfJVWgeTq0i7VPH2De4GyaJdqdR1FGhpoizpd2VTiN8Qj0Lwr+A3t6PO1AC0fe0epSAC50hRcEEB0CayBNlHbAfAN0dExoGwEDRkDrUoAiQb7X8JZb+wrAwWiLN1QBhra1uqymNIWFdkA22qSANLpFKXf2soM1Gwgu9AkgDxjvvez2CVeFbAafI33o2fcsKkcl2yUAIq9M0/gGHC0Di9FvtF6kQBSIL5vRLTePX5DdcFLoIBFF6XTPUBvhm21SDgwUBBAakrYX2LTK1IODKBdYtPbxS7xO4E+sOmNRQIF6AMD4Wg1eoIRCk+pNAkgBWKgHqW1ZzylOjdxA8o0njbQpSHrdWY6TIANo7gfOvt8QB+GUSkSQHfcUBdx0h3aJV5iVAAyArzEEhUAhI9nTOoNSPgYELaVgYqmtDnOewDsEq8hkATQPc2Sk9UaOpoSGbuE3FBWeVJTQk4iW9ImcmTew1wLXwckE30nBM1F7icFvG/2LapeBdLqPl2F/UmgZYcpOzuNQA4Q65y4FhmISOdIpgaHfIGjYyUVPtkA0LY2mYFnAEUQLBzZKwBJU1I6xwA4ODYD8qSxZeKvq9rWgHSuzyz9/hzQorVotGkNbwHauiZkaKpMZA/Tg7Q6SQdoAGhKcd6aewApUJ+1j3uBYq0BmDJ2bL3a1oykNc5yxn5bkQJt3sv+4NCUgqwADdFAGkcyRTuED+1Sdl6rKLIaVSbjzxTIT8m5V0VJBmZnRqCoS6tNH+qWikZlKpGbOC5ybSqBAu3uj/1Ro0LNMvHTQfnpoPyfHBSO5qQF77B+XLZCy04jUFpqpEx1FAGmxEFyEW+osLKYi7qrC84M0CwL7mMtsOgclM7haC57maEZ8SLYJQaSEHCCcTsDMqom6PelrVK5i6oruFRSdT1KAK0hse0TUwqwSp2SrOUzAN8QZYaGLzJU50h+1q92QAQnTUUWbNnHQYlgIhm3M4DWQF7qNJsedA5RGfyG3YfRoiJSaxXmsaKKUhhA7kNoswC8S95lsIbRFaLzieDgQpJXSjvpU4kzW7LPiaJGlSA1bmRdofswBeHOvC6/QWSZTjLHDAhDdpKb5kXLc8DZ70Aq64rz6wysZfD54GipRhDU/XBShTAAXOcwAFxJMQBcqzEAXA0yAFxvMgBc0TIAXDMzAFyVMwBc99PASWXRBFDQYQA4rDEAXH81AFzhNQBcQzYAXKU2AFwHNwBcadfASS3fAHC3gAHgfgQDwB0PBoB7KgwAd20YAK5zGADuPNHASW+LAeDuGQPA/TkGgDuADAD3GBkA7mIyANwnZQC4E8sAcK+XBk66yQwA96uZAOqIMwDcc2cAuKtvAKLREPcNGsC5ii71PgZV4T3prmRAOFgn/ZvD/REtpbhDlAGR6xs9qMh6kwxpRpcrUqAgO6w5QID5H9dEZy/htIZsKB2dwCgjMN3sLW+CQ6wkPfuASyIkd3Q0S6MjkHnE0Y0Nnu+l1J20e6tc60k/ueqBOWlY9zI+POmI97O5ZPPQYXbPy6geN/T7GTluzgVUSZVgxWGeV92dsObt51Q39cX9e/KkIhScLMO1iHPo0oAGWMkYv9Q4nuuWObAnX2Xuz8OaGM9HtE55GPSPxIX8ZY1HbU1RtkB4aNjY2Fc1H9QFVWQd5mS86sX301Dcyh01NR+cnBK9Oh7ewOyVFDke+TVJRdabZt4aL4Tfw7suqavLQ3939ZdZ5+P5j/9+Bvbl6fn5+iuy/ffyZ2P80fUnZ/TxHw==);lineShape=1;" vertex="1" parent="1">
                    <mxGeometry x="52.079333873822975" y="18.65284196599248" width="2.873585562936588" height="99.9699073693518" as="geometry"/>
                </mxCell>
                <mxCell id="4" value="" style="shape=stencil(lVzbklw1DPyafXX5fnkO8B9UkZAtQkKFcPt7fFg8u6el0zqu4mGZdM/4IsuSLOkpvfv944+/vX+K/vdvX7/88v6v55++fXxK3z3F+Pz54/uvz9/mX0/p+6f07sOXr+9//vrlj88/vfz/bz8eyOOvX7/8eXzD3y887ybj+M//sz7w4b8PfniBf3r+fIL3DPDYr+HBZYQX8u3B9QrwGq/h0SWEt8LgwwP8/w9UeHLlvDLBeTKY7EIDeCDfnl0X8HQNL67hYAKZanUtILxew5syGAIfLqYNeJi7OHbw0UWP+EbwybW6gy8uidVh+LmaYnkYvrsgNovhxzpD9/CvZ+4mPuyt5zwofmc9J75v4ZOrZQefUYsY+OLi1ngq6kAD31DvTPwg+O4qyk8k8p+8lJ+UCT64hucrk/GkqdlwPJWNpyyl/YrvDN9cOeuHuCak48ca7is+kfHngOc3ukrWJ0/FXwHfifLMU97O8pmcZ/ipnD3gmTxkoU+SS+yqaK4GxJNLN3fUD8llcutOPJzfiWc33UD5N/EgnxNP5ls8XqV8vhNfcL8SOb8TP3D8ichzmcdJjId9f1w3/xs8kYci9KexPmmZOff2t2TXhDyQ/SrFjbyDb3i/GPiOltXEM9tnKOtD8PVhXtzECzvSwM9/FuvJ8Bn1m4Evm+OpLqB+MPBt6/vnfZf28H1rvpvyUKe9JOST4JvfW582r+ctfHRlRx7adBW28EXqK4pv6KQZ+IHeAsf3sCfPPe2tf89obxj4gvaVga/LXLiJb0ud3cR357fWpy/z6yZ+KPqW4+V9QfTzmP6FGD/Hb9kPI6zr6jZeyj/DR0U+GT6tkMe9+3Tii5Afhs/oT5l4qU8YvjiP+pnZJxOfBZ6tT3Ed5Y35L6OuUMYbPLFnJj7jegZiz098w+/3xD4cTa6PZ+vT0D9Ky+G4wgv7trL5NjfO359pZGn0Nb1XfGHr33H9y7pwLvEZ8IOPB76/LgfoEn/Wn41GAQ/8+Tx2l4j/deDP8jmWQ3+5nuAvey5AGqEzCZKEQCOZCiHyMynmHKZQG5sgCMxrlrsQMj/2MuyVqZ+tEAp1fKTghYdpdJdQl6158yiEtnbmPoEFUxRCt6QVvJlJ6MYqgSwNa1njeR+ORwAuGmCAH5F3Pod41nivLwOXBAgJxWWUXxHARzGCNpMARsihhfkqgdc3CYNrDTATpp40hlRhDm1F2q8I8CowNWXmeqkDYfrWfFnHmZACl9axFvFBiPw8DGEcZfpwMgkYXSnrvr4kgHnR+P0/1tvKg9C51hgi4DC4aAhCNs6DJEQ32MYNjKEdUU1jWYEwdSuTVkloS+AvCWDGDP7MJN6Zil+W1iXhrDVKpJG9ISKZJfHzMNAVLIZtJWLbpVo7XWBIjVuTA7VG6eu97ZJw3ofy+OSKAPHtyt9lFUJYIexLwlkZ17hmdZeQLDWDhLy8iLuEssKodwl1adu7hEfg7C6hr0jtXcKwzjQQmrcUGRKms741hxZ3CWl3SJm7M5IwHd4t0WiPF527hLaeQO8SOn3SUwiDJmYchLMi6547oRqhGcIHBP4seRDOiqxHS7dKAnuYVAiGpy4J2dLeOOli3UBIqNzZlYRmXexI6OYcwP0ey/S9SRh+8xdGMKUVCJF7KBph70yPZN5xQDANrHY2Q0ehOTwHoSLBsPkgDjWqZQn0s3iPZu00JAodjhqZdPAe/YHXaV39xBhIMHYOomnHJ3wj4HlzmLdiF0My7ix4gHmzDpdb1zd/AqXJvtrFRhjLVMWQOj9zVWyEsdXyFwx5xTM3TDOxIKEYAi5WqRiyIX+Br9KQv2AcCPELxqU15LLS/Dz1kJJ11RmG4yQH1flOyGkbxu4QwmEYirB1N04pSMedcy1nsWUqHgR+DynH1Dh18pga/uIuAVzY45bgxxQiZcN4IZgEEL9HxuulGw5zmHcpH1KWtzXfOIgM2PYAvMLZFgf+gmnTSIJhNeGQTLsMf8G0/IBg25ZIMK1XJJj2MRJMCxwJpo0PoWbbi0CC6acgwfSEJMGKY8GkTW8OCaa/KAmGRwrSavu8SDC9aiSYfjsSzMgAEszYAxLM6AYSzPgJEswIDRLMGBASzCgTEOw4FhLMSBkSzFgcEsxoHxLMeCISzIglEtK6uW+euMoTqRWC8awt1MwROeZzSBAuHzy3YKzU+DfRb2OV4CnyiK/zSUM24BHB33pvKoW/XY71HPX2FYLPARKWjncO/hQJxnTx5rvf2cCy3mr6suYfBOM1SBKM9yZJMAwsSTDezCQhrEqAm4RkeO0d4yfHyyJ/4QUf5Xi75DvdIZetuMKHhMUImVZryEfnFK30H3igSrz+ZXRRPzKsRBLQfLFbGUaYLdCWWrgiYMZDtfYBHmxj2UzyOvIR2KQbBsqOjAe20215PA9CXLO6IoB4x8A1n0g8NioyD4JHgpHKh6V4g5vSDeNkR/YMO3FNVFoa+TmSYGQAaQRj4+AVwspikgQjT0qukpGJ1TCuYeV6aQSqBJoo6jTy1aRoGBlxkmDk3EmCYf40jOpaeYPyF+zzAKEWU1jP22CkVgrBaKbkgcHH4zJN5CJwI6Bh6n7hLl/DVOrMnVCR6p+t9Rep+NTfq7IUi0a8q0xlp4l2VZbOUQVc8AUocadkqgVMZad2ZFkBpzd4tv5K6jtVK0pqPcUrqfsGXpQGULxSekDnq5Q2GHhROkHxSmkGvf2U0g/2/VppCft+rXSF4pXSGAMvSm8oXintoXildIjildIkildKnyheKa2ieKV0i+G10jCKV0rPKF4pbaN4pXSO4pXSPIpXSv8oXiktZHitdJHildJIildKLw28KO2keKV01MDvrY9S+krxSmktxSuluxSvlAZTvFJ6zPBaaTPFb8qDVprN9LlW+k3xSmk5xSul6+w+1Urj2buGVnrPDG6ttJ+FfbXWASyJQmtNYHy/sN/Y+LXWCrS1hdK6gcmP1hqCRbmzKPRItFYlP3Kb79nPR+sMXE9mP+eC/kWi+R9HSBHPFwsvHBFFUerI8EG25vBk/Y/WKNi6hNnnqaH9EGkgLBXZeoW2pkkoz5EGqY7WNNhqhmV9JHGfBuqvRWEfBvpAd7TuwdZDLDqqtQZiyTpa6yGKV1obUbzSOonildZMBl60fqJ4pbUUxSutqxhea41F8UrrLYpXWntRvNI6jOKV1mQUr7Q+o3iltRpNJpOd2xhc6QvH4ErXOQYve/CsiDK76kSdJY1cJTQE+NNPFBmetEVXRLc60BdBpaEXK1gLsg8iSwnweId6+n4jupF5ujIe3zE8bU7h1/3xBk4H43EwLH7pMXzjaactkdU41RX/doSzvl/KYFibA49dCzx9JfCouT29mT0ayjzZxuNp4nmPHt10Cx5xV3kTUgM+/3jtd/rh+dOnl3apb/8d+6POj156q6bv/wU=);lineShape=1;" vertex="1" parent="1">
                    <mxGeometry x="54.461759254323965" y="15.861407528274441" width="146.47553272199323" height="105.92642244541528" as="geometry"/>
                </mxCell>
                <mxCell id="6" value="" style="shape=stencil(rZzZjhzHEUW/Zl4LmZX7syz/hwBR5sA0KVD09veO8LiaXXG7T3EAvw2743YusS/Jl/LTHx9/+f3Dy57++Pb1y18//PP1128fX8qfXvb99fPHD19fv9lfL+Xnl/LTb1++fvjL1y9///zr279//8Up/a+/ffmH/8K/3nBp24eD9vTv44PU//vBn9/IP71+PpGPeiIv2yzPyfOWzuR9q/DreSvtRJ7TVgfR9/Pmc93WJPq1TvR2ngXb37eyn+nHtlei7/N8O3Y96Tl9iddT1nEDT+hrPtHXsnX8/f8x50Y/tgb7r9t+pm9py3Cfdevn/Te7sfycvm3pzN9Wth3pq9D3nejniPQT6Hvkb6tbBnno28yRvoF8jq2kSD+Rfob9NJSHuZUZ6Rfo1zy+vdH3rcF519b2SD9BfkxdI4NtQwxoLd5QJYMiFsVEboAIGSCucPuJx4B9S+dLrXYNoGQG6GerUue2E6BEttW+jQWAevzeDdAOyXoMaFs+M67WbYAi5L6lFQGNAONwE3cANNVzS+mdgKUAMu4rWl8/A9ySGf8y3nNo9xb1XSvkrYYzlONUzwAj8GFnj7Nv+SzeNR1G/BmgnbdUJto8A8zzCsWEhW7JbPpZNIpZVbBKBghupOxHVPIYULd0tsPFWElnqFHjzBRWMKwGCHww20yex1xPUNHvxv8ZoEtsQb7WnE8qAqAz9Ch89smiazUrNCOAzP33Hd8DiA/jcJd3gEGHHttqAiA+zBhCOoBuaT449KIVVhRv5zStsKJXtzVJvE2Y61kf7CcoKC85mnsDkLQaYAYVTegUTSF7iYBCAAtV9whoFNpK7GkAcuylPTACJHwGGLKlRSv0aDUcQIzrR/ZxA+Rjk48Bpg9yhkErjJjBXPFhRj6YaJA+GGCmCMi0whIjMA9heQZoKwIKHNo8Ws6yAsRLBhgtnqGAAtUc+eBKC7dkXrmKtFLMZ36/icaRB6o15jIG6JS79ZhsXMiS5YJTzkDZicXBRbZE0b1lj1OkdQHjPH0Mt5QPr/cYUA4bcQ8ATnsCtgQAHsgSmGgq8xErPwb0WJRw8wyi0cahwfcAyorHA9GYtKUpKyR0WU2d4jpS38cAdYoLKxMG0DNQVNlTjJf8DASQxM89EEhrlzzOFQjO0IuY+8TlhibinTAd6D2GoRceqFssr+INjOvrSMLuAXBLQ/lgAKpp5EMQflDjxi6hA2vcKId+/aDGGSBymjVuPApOyPIZYIjwkT4Myx9EvDNdq0QzpnFU+xn9KM3duyziw6NohhLwMQ5/c5f4JTr0FFmaLHzr0OD7Aijc0kxHfeuumLOoopbjlsyeVxC+uR824lbiLpiWTdvx2QiYDk641lm3dubDaBjdzxbzB7s3KotPqYP6qejQI+rDLLzCrcZwA3DlxAAh0J1cwZorlikMQC5rSZDoAGDcyjFunVzNXXvMRR0At7RKTGmuAUEfDNDpDDUWEWbFuNUATTlNK7TDG9wDgHEG6HJLGYRvSaA7b+WdZ4A1IoDqfGtsXfhAGrdmtN4OoDNYgNVlSyStKwbrdq0U3TtApBU5vY5W2A3QsBTvgHCtA6twDghbWlyVTikWjV2n3rXEqhgarxVbIsZ8SncdcGa18ZKKZEsi3cWx9JJ60WKfZV8HYbJP9gvAHg9NZTgDhIDJtZavNSRBZqoupC8CErbWdEvmMiis1EObfFMyqtd6ZTaEcZPbjyoabishhlPhsy1RHKribb6eqggPdHSiC3qkoxkrGw91lHJ2NTRm0evFIc6mbE3Md9VY2ieNhSmY47t7+H8hxEe4WpNKiBcyAKqE+DkDUOyqnvTK0oivNkAhpZNoYN3KhT8Ybywu3WlE811vfzBm8i0RHyQq82ulFSTuc59Ch5bIcrGWaux6BZDo2AE0WiDxtwPAVWuE7wIPWq05hAHIHnuWIq6aiiFTpbWjq/YIKTCuYH3GPUgI2LlONkvMR92nEB/2mF6O2zU8y3hjepmwfm85dT0zrlcuVazYcm4Tq7pjRmltO8bfXnkIXfDJgzZiyHwEg0oVUj2pDTNerc98L9D/YAWodi57SY2pNkz+tIrlYyRU9pI6mQEoONZKnANoS1LrcwBVsaSa6ADitNQrHQDXqhVRA9CQmtZcHUCFZqnqOoC2JHXjynNhWpmunMtp7dsA1K7V6roBqF2r9XtXIGrtSHBs+kCTLdqDMADpg3Y5KseV2kfxM3BrJ56hYatTe0EXCqTdpiuA9LMuNE47Zg6gjpn05GrD3E+7frWhy9K+ogOovyudywvLp71RB9AkrIQOrnEEkP6uW2/aknSQDUDDxdqjdodCLWfpgrs+0JYkSDQAxa3ayfeBZJpskVkB5wxcq04jVB7c0nkHA1CwrhMVdmgqZevMhluNd02FXMiSzp1ceCCdbHEAraDRTOO5E5nOufBAOv/jHuhdE0bugYgPMsPkfCBOy5SUeyBinMxhuQeiQ8uklwkfmUqdJTMAhaE6rVYnT6CqU1zIaZ24u5iX1pk+B7xrarAuHB3WuUQH0Aoy+XgNiIO9C6cRdHrTABSG6nxoXejj9luUen8G4kONrxnqbYL6GSBonDliilt9Tldm78fFJHB40FAwuvdZ45ApcqfGp5kDoOP4gs9LhzcxnE/7RHY4w2RAllclE6vAOlXuoS+pqMyt2wpUBdbJ+DbxWnX23gEQa+h0f+OZPn0/4OE7rSAvFBpXsPQNROOxW39lUSIAnzTUqKKWFVEYmkvkdN8x9s57jL07v2gyQIjILDuldMDf05xFow9+4pNjgdYybGp15hRXGDzellPk9Ni5hxefNQ22MvJsyuhxJiRGV6Ni4C3Pvoy+UxEk5hqjYcgqz9aMnjyDjIN4MYvmC2OcNPgZmjzrM3pqobboO42eJKjGGtHFfd7Kl3fyQ1NFJT6CNQElnSmRX6ZjVFwRH2VaT5VAedJjPg3fzxzacef48Q2dBAoFu/A56pdnNPgsdw/0O7ajU3Q2O9fPkrzN2bHOk+KbKn+WBedNseppn1DeLPbKnBtlwbfJ2Bt9vzhvyL3Mj9CchXRwMw+Nyu9P9GIpqm+74G64nYLdNrn8jC0b4S3PZabosbln++7X9Bfk9sf3h/u/vX769Pbu//77+NDfPnr7TwLKz/8B);lineShape=1;" vertex="1" parent="1">
                    <mxGeometry x="53.56996553724673" y="117.37153147954183" width="144.81039203246402" height="2.9762129547156255" as="geometry"/>
                </mxCell>
                <mxCell id="7" value="" style="shape=stencil(lVvLchw3DPyavbL4fpwd5z9cZTlSRZFcspzEf+9mNpwdNmd6yzd5PdghCaDRDXAv4cO3x09fHy7efnt/e/3z4Z+nz++Pl/Dbxfunl8eHt6d3/HUJHy/hw5fXt4c/3l6/v3y+/vvrp/5k/+uv17/7N/x7tQvJpNStvP1x/cR5Y8N/n/x+NXh+etkbOJPibGCN9cIgG9cmg2BCOX8+euPnFSXjxIJiNdXR87mdP5+iSXV6vpkqvj854/K84Wic2kA1ZX6BtyaIE8IbvJ8NqonKoC5HWoxL5wY5GB8mg2hNE3vI1eR5STGYKAxKHU7aDKJp9tygRt4DlqSOtQY+pRDkHkozjvzQTBBLKt6keUkIpSIMcjKN3oBjEI6DH2hJyL8ogjV7UyOf0v/vPHtDKrNBkbGEPVA+p2CqiiXE5uzp1OSmSzJ2TqAcTVGe9qaRgTNWbLoWUzzvISuDahqFN/wQhUE2dV5SaAOmjg0cgwBw0Krgw6nb2UCfEkIjLQYKWJNf9gDfOwFkZQDpZlBNEMeKlE/zG2KWyAdQIT+kPND2zICOFaFR1R7iqGabAXYlPA0DKifwTFKbXupb0fmQLIc3oiuJTeNMwpyitY2UOguNMC8JGaJqHHLazbGEHMzCAGcSPJ9SFKcEECBcwju9cFwpXLKwq6xgpphGuJQHLJyVrEAGVh5rr3GErTgGZVAY+QACVZ0Sgm9+Q7Djk2MDx6iBkuUV3NdB1nbkxKkah4yb88FlCcZpyWnnZGh0EJhzGoxSlawOW7PjXJDUAVW50R6qhEofl8KeRtU7NvDMlwDGVoT3jQRvseQlE/DZZKLFTuZD8JxxqNNFvAGxWajsBl0fHC8p5wHPZ1DZCASaySL40lJ2EfBNkZM0ePBmYEeWHxs002ZsvZG6M+Rzjo/VioKCnKY33BTLGVQS3CM01KbLsmnIgaiJLjPjMlLq7FjznHFADS82DZFFYNwzTgQfuAYRXQdZpsK7LSnqpe5DPvhl02oPAIFCxxpkfQAwEnUAWVf1IQ+ivYVSkVQjsxKFEFSYgVIwF4fO1EUgxQHsu+eV6PMMq/15EUZuUeo6dexQkLv9KjqJmCx8nur87WDkO8bg5fPEkpJuTdgFgXHCwl9urHYnY5TIWGgeKL7Sq2GRepuGOImHYvn5rIgqJ0zSdTkv5xM09o7T252/1FQjv/fqQjHCUbJ38eMVLA6asotPxWlXqV2HFDg5/0jx0CSuI1ra8rziFAueNLl+x/wX60/i+0HjFnxT8Yl8pOezVCGWtR3iQcWzHep1l4+KaP7q8yC6lJCgqgpQ3ObPrSblwZ6PPVYGld4VYitSDKQuEvWNckkRSUyVW7NxnDnJKF3pc+SqV3XS+8Fadx1qKTWryXOYuqJbkZ7PCJmkVFcFMM6JHO70LoE7ZAA/i0OCAQUGVJLqEcCAc8cOGnlssJDGLpdVRytwYGRNS6vj9IH4VHuA4+x8SveaCoFpKRS3ekNXv9R6sQOTjw02ubEZOAnZKXGXGtEl8w3R6vgNqkhBdVH+4NyKeENvMc9+KLrZ2dvk8x6KkzwK6cIiKksi23Fv6fB6kaKg1lzKdWvehaVx3mTrBaDiibzr8ULvalBOF5kPMOB2qpMZhz1QTqM6qNmcS1zQewlWhLOwvsZXZMX4j6Z/SnVhxZQPeWDncbA6ns7pTj7OnGY2+AKVPZE1wkZSTpu1lp5XshQMJ1NFl5QN1ZByLY3+wjHkWS5uTfb7SuZ2Beq/kvoARGrqYMfKYyiGpFpAUlRjqpaBbzuW5FQxrMtYIUje38c7JFys7GTBIBMTLnII1vvpFNZJSmWU20pTAi+7Dyi3YYH5qPZgmf3XKNUyQoMGec2OFslZs5kArMWxq7O2EVG3dmew3ZgBOGulq9OigVuTDb+YuVPbsnQ16m2jN2x9j2NIqlzcEC2qkvQCTQZucK1jg8Dzzj5jVSjpl05tldHXm2VzBqFAq7FZ8EcFWhuQeI532tOB1V6nxMogMrMKWgfA08TSAa6qXwNUoYYWJLuqVl3PLkpDeRoUuywGagQLvxI7hEFUpDtxU8VvE58zWk9YiU0r1V3LsqQ8Lh0dGvT8Wi5uKFXcytDAm6ejDI0bRuw6tbIzZ5deIYSyEgJta73smmdq5oRNJOo+ValNAL40ystRV+rlQkxuusoFnkT0ua9quOUR/ptBlBQ3N66jfdouXI0tkh/wFcrVvaVFsjUM0num4Ljrlscw46wEUY7eboAdGzgWZFEPqfAG8jTQU1bFyODqk7xXkRYCBImmpAb8QDwXykGFd1mIdG9ECcdBylP7wOlmWvWs1bu80deGaNrexYPYNDKO+3tWNihbWi71JKkRYUAt0y73xR46VtIc+U5nqY7v28LbST/U7eLfrgvqFa8sXOR6U0R52vHdwXQHNQJTsn63Sc+RqVEEshEU6Ws8v4RwVPw+LvkAGqi4cVyGVTdGdKZ0mTskuYewjDN6PijC1LjfAHGvKFmfS5MfJDnpXppXpMl9tnw52cv5BNgSSaAmJVOHSWoeJFnf4tpazpL79PbEDMRuY6XHBparD3ygWpp+veU6mnFnAwFqODg9A1xkZdB3PBwLgSgbLNEvQ1h9ZdDziWbZ58bzdGOw3FtP4fGEvP7nuQ3YpAToeE4hZO8ZELl1Tl/LsczonZdj6lCXC1hevgFRTXns9N08BF2ObKBUya//LOG+Af64/Qriy9Pz8/VHFPv/519N4KPrLy7Cx58=);lineShape=1;" vertex="1" parent="1">
                    <mxGeometry x="67.67778761112783" y="23.434438932677608" width="2.8885881330863663" height="2.9892627875766427" as="geometry"/>
                </mxCell>
                <mxCell id="8" value="" style="shape=stencil(nZvZkhy3EUW/Zl4R2JdnWf4PRYgyJ0yTCoqyrb9XwmNUNy6KZ8J+m+nG7UIit5uZqJf0w28ff/r1w0v0v337+uXvH/71+vO3jy/pLy8xvn7++OHr6zf76yX9+JJ++OXL1w9/+/rl988/v/3/609z5fzrH1/+OX/h32+4MVyvExX9H2+fBOfzfz7469v6T6+f9/WxyfoeYX133W/ro6sB1+e+rU8udlz/3+2u9dkF2k9zNW7ri/MJ14exra/OF1hfXSvb+vbe+riff+fzL+u41/rhPMlbXNrPM3gWOLuxH2gwiyCNZVeCAgY/wcuWouv0hOTqbkMhuUZPSOvML0B2jU4pupx2QHGN1BDW1xegMsC7IX7TXPMICLKl7ipYUjfPFMBwtQGgq+lFj1vqzcX9WM35KzhnrwcgMqC4uB+ruT9uKR8A1nS3cLL7jwUAfEI8AJUBwcXdHywEoNDeRQmRpmkw7zYOwFhR7R7QVYbkXQFrbc2l3ZZScBlsqVWXd6GTuRRYaysu74pLyeUKgOzyLnSywAN6aMklARRXQA8trsxxASp6XDOfFqFN0+P7gGpq2j0udddgS7W7JKc03ACha1vB/UqHV+C5B5S1gQsQMaHUvA7xCTBAcdX0umfQbD5Np3RZzgXIaN41KGfIZl0E8IcMdbnULaAMDfcG6KC40lcKvABtpcnvASR65+4Cbcl+byiAkmK5dnwBhktg3gaIB4ASeymu7qdU7KBBD8W4xq7pElygU8qasgxA4b4kNY0SV2i7B0Q9Vvtk0JauFHgBEoZKO5O2MwGTioS2U29BAR2itxmCylAwoZhtSvQ23VNsNesXVmzmSLZkHjzklPrK3PeAtCjhBRguQJixKFSFqPvFM+8BQa3VABTILJLqEwJ6nMXqvpt35aRoAOF8Fjw9hEpLHzkqoNETjHTuDmTxPIPxGSDs1moZw4N5z5zpFUDM2LLykC3VVbN8D5BEDw0rFCMKYksGqKDpdLDKmYghzBh3qU0Bg2RIK7hfgLHM8R4QNZAZ+8AtBS0UJ12hJwQVugVX6JS8Cm0MKpIe/GIWT4AODmS0NgkgrULtHtBXNrgAVmxCIDNAyAogoY3LFwEUdNFZ/x8AYjNWXqimLdqCLVkBI2GmVQwCBpAezuT7oLhZUxUFdDqlrPnBSpAMxmdlXt1d1IocVFzUhGIAYvcGiPuWrO4KdEph5cwnQKNT8rqlWQpCqDSAVFkGIH8IBw216jSB8YUrZz4BBggdujJjK5iJtxrA77ZkJbkH0whtMYsnAEW+UJUkProE3wNIy8sARNbD0VPrFYOAAaQAn60R0oMFFZGhYxcuJC0tDdDAlgwgXYc+WIajyhoei6Zg2WDX9Agu0RP82sAFiKuGv295HTu62Pt940Trk5G5b6K18aOZes/UNeqNhkrLatnjyi73+VDtdAzsFUcle4M5g19lxdP6DjbkNVONgczNrwj9vB/Q7916Sgp3+yEvu5M3oLzxWE8VwxGu53rcv9oz6/f0l4GFoV/dqefzwfXtkDfh/tshb8bzb6d9orzCH6e94e9LWTu4GeaVSM31aA9JWvTeIwnx2t5+9wHhMGgWwB8GwQfkDwWzAm4ckn//MAg2IH8ojA00HApjB4jH77OD5dPhcf/lMGgOEPVYzwHof1sfF2F9SjCdqn0dg9l67NIc9tmwX1HUYUZFe6jKqC0B07C2aWEzEvbixmHPEbuDcxQqDwiYweYoVJ7gmR5fhP6ZltGWoiYBI340MJ/ET2qChkHCAL0pgLwgHLxmzvXoCUWbG0bAC1UdRTtrVhMQMzOKH4+qgzzHAGJKs64hoZuOm2blREI3bWMZgDprs9QSxQX05lnMHYBIdc3QZl/nAe8ZILtHBjsvi+xPmFU4RbBwNGg6HqvFPIkx73USog7aZ6+CnmCGkBRAIwILk5LWZr+FhM5K1BqPm2aDRgDcwJ8toLMrRd2QquY9+150rPU41oRc56ZRlpBc3LTiTJUQBGLXQYoBKP3MAlM0HXD8etOwDO91OCWjN4+R72y6VqaEKRwzhcF94LjG6k+tabqOkJKWXQagifBsfu9C17ac9rvtdenHV8zTNw38iuadyjEXKRg1Uj2EzlgrP64GPAEiydCUrNaEoTJ15Ro14vh13iXICkhkS0Mn83OgRWM/vxo+TwAyjRz0Dkb1mLJy1CeUgR3OfA54O3LWeZdAnsCT+VyUL83hKMnQNCmWgo3jfMz+54CX9DC0E1ESji7LoTgDUPO7HIorER3IvpbazX6CRgS2ASlWDUCs0gBi3sXz7D9r5DMAXqkomoHsoCl6l/PyDE8tzHLyccuDBlpmm+G4R0JxyQD9AESSoWtbN1e8xPRwyCcAVenT5WVLBZmABRWZWpjTUiPS4pwqLuGYw0KvzKcMgDJkLTgsUlEgm/lGZOBu+UyBuz/MaEtb6upAFs9pLlKPqGEZI1C//LgmlbhSfNCpC1DRHybDk/ttGRU3x7kiQ8IwM3mwXLmLeHnGqLk+gYdy7ZhPGQtEQNOEEpnzWcUjPh25aLIiTMoBY+MEsDLvBNCoY5aqAqg49rNiWHjrvHhP15nTAch48WS2DASQWIajaLLakay11wPAlyt705cfrCSnayH9uL8QOnK+2U3aA1lo2EQYZ5O7ovGNcNzWL8g15tX4oAB8geCYzIf8HkDKgcCaHkknhSFi5DOAysCtlnG0ToPnWWc+pqlIBEbRaN/598u6hHhVoliT2fqxW17l/dTVSb7IFV7fnu/FCFXi/TQlDQnrgPlejwRVHH/P94b0vSfKI6PrBRWPieox6Xisp0s8c5LiZT1dK5qTmmM96WvoWzo82hpDi3rPPjl0WOj5vaehdy48e+SVIh/r4zvrq6wn+jXXD1lPN2CfRoMPAA3jx9DbQR7b9GPoDXKP3bD/40W+d9bbH4+3Bn95/fTp7aXD5+/1LUP76O0NxfTjnw==);lineShape=1;" vertex="1" parent="1">
                    <mxGeometry x="42.36710351338053" y="24.637560442156058" width="27.156337025738218" height="20.74489262682321" as="geometry"/>
                </mxCell>
                <mxCell id="9" value="" style="shape=stencil(rVjbUlsxDPyavGpsy7KtZ0r/gxlCyZQSJtDb31enwSGWczbTmb6FoI0tabVee8M3r493L9tNCq9vh/3X7c/d/dvjhj9tUto9P24Puzf7tOHbDd887A/bL4f99+f7498vd0vk8unb/sfyC7+OuKRU24JK4ff7NyTp7xefj/FPu+fz+Eoah/hGAcUXUh3iY6RcAUD8hqJQZADIFMcdRaWgAJAo1TFlxoBA7AC1r3kREBtlHgAcKQoAFGpjDix4BSEOI6CRohWYZATkRNoAIPbfOwEK1QIAwecggVJeByi1cUfCVEAKjVoe4ysFGJ/GJpQAiVSpunimCGhRPY1K6SuuxOcx3xphvNUnjfFCAXEik44J1AZHLTbf4hYg65ZRG1vQYm/KRQAHCuMwN6YMVuDS1ecEsKyAviwsdoBCDHid2wSoJIDXkj3vWqMC+mY0C6PkNe16cBlgK4wAxX0o2jX3DCCIetyZcwJEKHlVSUdya4LDpjYNI7vVsgLk00bstiSUQKdVKU2ACnIwQHVlLbBKMVjnXBK1S//aEm5GLa33OqwmUTwA6fZSpnGC7CcEqao1YgIo2lKhMLb6rA6XEdbZaYmGlIynMmkXwzVAYF8mdPgYO8XVtcLjzQC5eUBEdU3+uLLCMU46uxESKojg2bsGA0RUJSFxOWTchzLlkHtn1sikxW8poLIam7MHCAJo19KzsiY8cl6ZKt6SesFfskJV0okaRj4gx8u/XVmVGLG1Uike0NAKxW/p6ozKJDTanfv/AbREcaorOuZqnhphEwQEvNQuXOfsAzNqhs13zmYKAGTuHMOz3SxqcmdK6rbxst2oEyBCl5ujt0x2tmdQJc5UxhzMbkQwEGZE2zhy5oAaoGuyy8s4covHQsZSJkAmATnE6eA1dgkgn3jHZM41gDawvyNW4yoQvujPRCNvBjUNXajPvL2A8ZzyLa1Lwko8j6NT5Eq8u6UXqyfqmD9JRGF9kr/LSOlqsFJ/N5iS+uRdnoI+I6fL58n9rfBBx9/PAk197SfxKT5iifcujCsUbCO0OziZ8f08+SMhYU9ltz3XsmUoQElj8X7Eug4BzUtXrN34XQaov0/aJuHTTfR3AKtbAXq98M7NJTQLxjtneEx80UtP9r4zQtpZfB55FPrr1Vq8q1DAYzY5vNCVde21zbUs4Ne56i+S2FUsbyR+/8ihptZv+x/xjPbT/Bxf4YN6yxyhQVheO5OLR8fMMoOjnU3wCeafX1OvxtuHj6fbh93T0/Hl9/z//qnXvjo+E/PtHw==);lineShape=1;" vertex="1" parent="1">
                    <mxGeometry x="41.63207436280098" y="41.34412236408983" width="4.004402719721461" height="5.785505030903809" as="geometry"/>
                </mxCell>
                <mxCell id="10" value="" style="shape=stencil(lVrbcls3DPwavXJ4BcnnNP2PzMSpPXXtjOO2yd8XpxrS4lJa2G+2hNUhccfinNKnH/dfvt+dov/x+vL8592/D19f70/pt1OMD0/3dy8Pr/rXKX0+pU/fnl/u/nh5/vvp6/n/718OyeOvv57/OX7h5xmXgmtyoKL/df7Euxz+/+D3s/zjw9Mqn+oiH1yvVN7HRT650qh8XX8/u5r5ecIiLy4IkffjuEO+8t/3rqZFvrvE5cuqz6Aa8BSQ1weE6IRpyLsEgOxSpIAIJiuu8yPF1WahusIBoa2A7jzzIj+MNACH23G1wh3U7xq/tKx3UMcLhTvGegf1PHqk4DIACjecRkpZAeJaJwB1BABU1xkguehXgNqBA0BLh2U4oK+GOwKQuUZGX9JbZQ4oq1r1mZlFdMaMcfwEM1weWp8ANRwHVADI+OQWANVah95uAvIK6C5wLaUVkP1IhDcNB3k1jEx10zXWNJOja4kC8EiZ30EDctVSLqO43IqHDk+QESG3AG0tDlntwLJGHHluArqLzDUiZr6iBYC5RnCy2qEEHtNhHGACtILyzNdXtZbCk4CmytW9i1g1sayuUZrLzHCzp5hFWvM58yU/KtoERO5L+ntrXpI8Go+bADiSFkWjZK2WlsqTgB/1ZgK6q/xIYbV0VWcxjrRqqWqqNI4EgMK7PQWsWqp1KPomYA2g2i07AKBNd3wvIPIQ3bqZNlPbzZZv9aWWeb8UMHs3cZ49IQ5HmIDKm8SEiUwBjWW+PL6egOaEPaFsR9JGl1laRsjPxlgtwy5d0XAKoO1P3wAzeV4F5ISzRtd8Ttxbq0Fd1dp5r1HUcKtauzaJxA6l47jUC+0qRVyHeUNcIl2lRrCHJ1Ta6PbmItyhj8RzHdBHgboAJGJp/VoEAaxk6Ykh3SugEsP1rdFVQCOGa3PKuwCwjqwF7ASC9zRG1RBh02snlpOODdMBIE/QkiabISq5hIQxkFwagoScbFOTAli3fjwhISAadwgIYLlStRThCY2mjSMg4gYgztQ2SkMBrLKrM+EdGm2N1V0xk7UR5rcCYo9RT3zpCLndDsQ1Lrz50tQEoUdOm+VY993zlZijhujYGx8BQdTUtvH1LVdd9426OZMBCC586EiavzEd80trY4t1lKv1w4DUNgrLpHOgF9AaJMQ1opZFyDOFVupQRk27qKNsBO9InWhIMfm8lazID4TNvbYabATag4f3Mn4LT94sbSnJ6MYi5gur3XNx1Y/RT2a0l9GwlpFK3tkRC5ZCo+UW1+A8vKevaC9jaNjl+VSyyRtjj6B/GnOVIDlpDG6ysdx8MhSk9YzRU5CJMWZbQU7CGJ4FKTpjOld5OA8f/wUTlsEvCHZeBoEhrgDLwxkSQYLEoGBko504x1Nwy2OQSAWXEgZLlTfOidNgeWSnd/JsGfOVQeRl3C9YTCHGl0VFIkVgcZ1Ysy0ydVSHd7K1cTsPp4Mj5meDb4646zAI7Yi9osGYR2TjDEo+4g7M4Pzj8PYpzwf9iPXF2logdWetRTZ9GnuXUQ2HvLHYmazElOebo212NVZTZduu8d2XIPFoLNdk263x7Z2MaJryfD241S9j/7jVL2PBufUnxgZ1O7+xohWMd2MHLDhZGUtmGdE05fkWW7YRmm7JBdMbX8IX3L/xHX/B5MBfIZAxWc9YpG8oFJym+AsQBdc3/P2KgoMCz+OCu89Jdl8fmEdRfhOnU4jHNtWP6fa6fEI39rQLC4JjHafY4rZSMeQTvjXAz3P4VfjAfQ99ojylwLdXN7i5jlcM8Px0yfvxl3kMef3j7c2hbw+Pj+cXjy6/xzeN9KPzW0rp838=);lineShape=1;" vertex="1" parent="1">
                    <mxGeometry x="69.57910070397077" y="25.763042526995307" width="0.704427031837699" height="22.951810778307312" as="geometry"/>
                </mxCell>
                <mxCell id="11" value="" style="shape=stencil(lVdbbhsxDDzN/hKSKOrxnab3CBCnNurGgeO+bl9uF5JXjHeM/NlajiiSw9fED+/7p7fdFNz75Xz6vvt9eL7sJ/4yhXB43e/Oh4v+mvhx4oeX03n37Xz6+fq8/H97miXnXz9Ov+Yb/iy4ROxmUHB/lwNPsf4/+LqIHw+vK3Gvn3mQr+QykM/ky3i/ngCA6uc8AEIgYQBI5EYNoVBO2wD2FEYTOFJBgETztxUgevLASdFRjSMgk3MAIMSjBgktLrcBlcKoQVRD2AYIk5MBkBwVEAfpL+6ASMlvA5In50dAIUYAsU/Knipwa1Kj6wgQEgDITHn0UtYrQKRzIT/GoQSKAFATycjWqm4FbK25Ua0DlPARAApVk3CBQgGASsk8iUkEpKhzNtRVIF1VRRkDoX5AVUMBPAZi9gNgn1pty4z6AVmdbVKrzgwSQk0spjBd/XAbEUmCVVEQgC1fFeAROUJLmJXVqLoqd7KzgchIg/9gg7RKsqlhdJNaldGTesKs+BoRgCkaDR4Dos3qOecQNxJ5bwGoQyiZotgneUSmQslZQEVxqM3ElVs9TjnTUmY63gEYDeleUttSllsSbhmdDUDdAAqN3peMW2uj41bgbNlQq1DgYvu8BiANnwVoh7D1O0DyaQ+KI/lKj8ztLqduNQB1A2qLkYIB6MQEvCTV5rRalUCkRWvlqCFHmEDiWxPsAAdLpc5HZYx0Sq2N3QZwu68DAnlQyHQmM0VAJ5wANLC0DtUBahWghs6VZtSNApucTq5xtIFri/1tgGs9sAMYjok+2blSdaIRy4dGtQ7QYgzcmlpD612UYUq71pR72OA24GwHlbYdbIg7M3fDseTD3MMwb5RBY+oHSlDctFpMH2/frgcoUtaRDm9JzRFXcY9WHmI24nB/scxXcXB7tDR2xKBviC2IeMT+5EZ7V1x/XJfnl8PxuOze6+922dajZVHnx38=);lineShape=1;" vertex="1" parent="1">
                    <mxGeometry x="67.24872728159696" y="45.87298243695557" width="3.406462295637561" height="3.1261263391487164" as="geometry"/>
                </mxCell>
                <mxCell id="12" value="" style="shape=stencil(lVfLbhsxDPwaXwlST+qcpv8RIE5t1LUDx339feka2ljc3QlyczYciRpyONImPrztnl63m8Bvl/Pp+/b3/vmy28QvmxD2x932vL/Yr0183MSHl9N5++18+nl8vv39+nSNvP76cfp1XeHPDdca1XxFBf57+5Iol/8fvt7iD/vjfXyhpEO8MCkDQKCURkChWtcBWimOgJD7EsuARMIDIDIltANTjSMgUwnrgFqojIdOTA3sUO3QjtVCIa8DilJtAyBLp2EZYGVygNL3XARkK7QMgCJUGgAkKuMZSiUBLCU7w8iS0YBoTZFiHQGVSlwHRPWV1gArHQPpyJJ1F6pDqJTDAGjGEmhvO8LIqgkqg4wmzqd4JQVHZspjEVolBZwy8ciQCbaAPmISl7+JDa6vLp9EQQGhJGWMN8ZAAaIvmM2PCvLJpNXHIxkYe+rjM8i/9d3v8megGhEK7AENFFiMoewrwAIBbgJbiQMG+BpUWOPrGdyhlTKa8d5DTASoyJXaTDQKTCdTGzkVnvp8pYta8BtUoAJjSH28AEp51nXaV1hTWfAVYEDQXMX5oykxWmabhvfaFHL5Rzx4u8bvVKPIO0hmKkYNVGcNZ00O1rfqpFk+UMWfi5fZmDDfEOQboYt8AkRsNNYwzvtMY6DlYvT3qBrhZDSzrOMOZTLoZTtO3guKdQVIKTXiMaWscDjmab0JEElA3+Xah/N0j1KKYAe706SxDnbJYHSPyt7wY4WtXWy0OUDo02DtLugsxNq9oulYiMczWHehwqmQjrRK6g2/DMhdXVO3woxU/WVz8qDl+OYdR/rlc1me7E8s/cNyvPSu6fEMtXOdJuLiBT1yYn/SvMcju7HpHGbxgE8zbHerY4po/eoNlqGdNfXx+DFhbpd8fRnx07yBYwnc2fUkGji7Pv0q/TDefrw/gV/2h8PtBX3/f/9ktk+353Z8/Ac=);lineShape=1;" vertex="1" parent="1">
                    <mxGeometry x="70.39702152716336" y="45.705234704338466" width="2.253918989977211" height="3.7311401578022085" as="geometry"/>
                </mxCell>
                <mxCell id="13" value="" style="shape=stencil(lVvZchU3FPwav6q0S+eZJP9BFSa4QjAFZPv7tGI0vmrN9A1vtmZ6pLNvug/pzdcPbz8/PkT/9duX598e/3p69+3DQ/rpIcanTx8evzx9w18P6eeH9Ob985fHX788//Hp3cv/n9+ON8dfvz//Ob7w9wvOO6sDFP0/cyH5/xZ+eXn949Onm9eDK355HQvp+vXoYltejy6Zet3y8npyvly/nlxPy+vZ+Xj9ena2nr04Lw5TXQjL69VF8fXm8spILIjXu7P17N21JvjuXSbGQ1BBAILr63mw8l3U54Dk0iorrFTB/bDxMxStO9XlVbxY+S7wc0BjJoXuShcAc6ms+uZdEETjcV25NBRaHAmPu62A6JqygDR18gAk1wQNr0p8ALKr6kjZdSIachCqh8dlA3TFJWj+KmmsJKEa0P262s6wBqEa0H5SbwBM7WAurrqETxRhD8lvNJgLQnApuNAY0AUNKU53cngvL4lOu7uDNxYeKUFzVhpwSEk0PBwBoj5SneZyAJKLQlsBaI0BXR2psaRTliEkdedXXQJVQbhKAKoxQLIVXoOIrq4Li8ve+dUvgaom2ApAIxq6tOkcZpw8AOaqIDpD+VYaxp4qGMJtrTtgz6poQDRY/RI+UdUOmSPi+IRwM/lwWwcgz0OeA+CXVrbiEyZ0KTcXVovDihfqnTvbNFZU2M3mPO1gLisajBOw4mVAwWOKQEUHdjzufQWk6QvPAfBLK1sLRCmcMb5nq+BKmQp/DthTsTpXzgEIUKubKX0q/DmgclAscPeKhjaj8pHueZnv4QB1dQI1aICx56swWmHTOECIDOiCBgDIpmuSbgYnzpTjZpeE8o0T05GOEHMFqJ4BKtHFicMquIq0UR0pTXM5AE3n9SAxM8CEtgJA6l27dMZ1S7CqdgJ1c2TNT8lcAfpKQwvSL4HEvBpQizIzBonkKlvSbO0zO7oBmOKScTnQskxDwRPyrQ26JNQbADLRVmWuASayHJosaQBgOXRZsoLrZQN0wSUwkYJiM5lrgImUwnWvAYXZ2oOM0wBQyOqgSgEqu/uepuzPAY2L156leg8mroLrZZbv5wCkU50BKucDEymb6VqX+qZLvU1/fg7YfCsAVVgcABTYe5feu6eNSya1tW+lJQBKW8ETvwLMS5sGiXk1UTsq7HNA56LJomwi4ABlZaslWVraVsdZllmlHUH2ABQZUPCYAruhjBJcwuO8StqaLPzMpmM8ACbtwYwTLKyoJNG2vBUrSvmC91yMApGFMo0tjAFVCcI23TCZbAyqN4DSvvG9wAAV5PC4UBvulQ9XiLyxSZWvQ1CbJEw4GjNOsQbVGuA35aiibDLb3IBJZ3m6Q9I7hE1yUVn18fjWIpTfMC7BxyH1kcq2g6pRzLidMwBa0tTwHjTcsaANoNo5pyan2tjnVl3unGlTV9WpOHVNqgwa39sEIUOEcbvyvsnldYf/YdVp30IT8YOAyh0g69oi8qZ+bU53ruJcoChUZXmJUM58LTKjsa2xNg6pMpq+GWmawr9KUCgFMt2/R1pIIwVQJXfIW/rgpboiK6MG52CDyplQuVE6fXQwL1NRyl27NLnuuS/Qu/RMI53eclflN5Cwc0lQpRxe66qbhF3ZKGoICild941RpZDgRtGhCyeaEI6yRhGdOWiNwklVKZvFdT2eQnlJvQ2IsqodtoFuM6neqKmp4T9EqXbwzCUAVCpaj1ThtghXgK0kaEe+fAUgm4YoVSu7Nk6nIUqVsI8WFO2QZOFUKzsyiFJ1dUcbLTJAdhM3bR3dDtW6yxzkIEo1V6xbeXmv7ZVcpNZdl62K0U2kBmeTkR0AbqG2OTi86ohy667KoAgAuRkwWo0Jq588uW2hCi4VY1f52sG8AiQCpEnVZSubuBRlfCiNZxBgg6ogyjFmuemuKy6Vyp4PVMmxSOH57qBKzyBI+XBI1ZQaU5PVCeCQSpdK3ABlhvpzQNiITtLNFM+VHPYsQg4Z9cI2PIpqPNVnvXAA/Mw+zgGNlS93PZOr29SvyQiUt4wMn7gziCTfik8om86JW0ZjlqloiPOmzAFIsn+fwzZ9jTJ1yH4m/wcg6CN5zvmwonZINq/WTABWslC+tKVwSd/OweO4sjU12b/HY3LGSV8YGo8DA1SMG49p9F/u3aggr5GyZuuW86Wkd4g8bcJKUdcXInuNcRNFXZsLfNMLK1LSnjMBrKhmeTSOca/Xb84BndPQaHKkMG4Y0R2mLvOlWGeAugGoKDru/xFAa2ssPGIDQBKdubGBPdWNOwBopACAV0c66pEDUKS7j5EljT2TyCpjYO+NPVXRFD3nSzHKgBI6595Rz7NC4yMFfdMrFG6rBd0ICZmDYtAX6EJkGsYn1A6BXWXQgd24KgteXqjozCPTQ3buk+sSrrAWVZ0C8MTyEMi5O+I5ma7F4hT+4Ytk5hl41KLvIPvZ7DwYL0ndRtheNsQ8t4a87K1uvVgv/bpnRnrpET3n8H7GwovXKTf1st/uuT/vZTnr+c6el3e/PUtVt2s931rxMnHfrvf5OzrT+XVlTZ7zLB1Lf/BG/93X8cfrjwfeP338+PLbg9vn/GMDLL38UCH9/C8=);lineShape=1;" vertex="1" parent="1">
                    <mxGeometry x="70.07776681345555" y="25.599492475904796" width="20.12064939962037" height="20.341898072442874" as="geometry"/>
                </mxCell>
                <mxCell id="14" value="" style="shape=stencil(lVjbUtwwDP2afdXYli/yM6X/wQxQdkqhA/T291W64xBLyWH6lk101rZ0ji4+8dXrw833u1MKr28vz1/vfp1v3x5O/OmU0vnp4e7l/KZPJ74+8dX988vdl5fnH0+3l9/fbxbL5enb88/lH35fcLVRjwsqhT+XN5F6+vfi88X+8fy0tRfKYbJvJBHYd6pp/v9EwseAFqgZQKWIAIlCngGdOgIw1RmQeDhhH1CI+wwQChUAGqXZqZwoNQDoFMoMqFTCMUAC9TkMOVABZ5BErc2ATLUDQCYxKwhJBoBKfXZrYegl6SOuK6BRKceAHinPcagRkq8zycylirnUK4V5BaVjBYHrKh8DKBSBl3onnreksY8gDjEECnMgNJZd4BIy70lDU5GbhHheoQeKgH29jC2vAKUX2lIknvnd89DUEZlM5HRNSKZkyaSAhDXKzQHAltruCoBMyrXaLQCxT9lcgwOAOJRKLbstgTiUaKmhgAK8lNvIWxsAypVZNW8AlTLYEotNG6qpCLIAazaOFiAgcBwH+1eAjAqwC9CSFmUG9MHffUC0RU4BBaQNLWkyc2kj8/0lKLgVMkobTnD4CFp1q7UPoA8ILghCBXA72AK3ZE5s74KMmB1cRlL1wfMWR9MIeB3H140OGrRvxdqjgp4oOyWj+LItVGqPyrnreZZSB/yZHd/q4PiBffLxAhrLTmIfiHiwZcs34E8eX7d8hv43bfCiF5QjKDl9YT1avqk91JfNih1mxeD4I5Cfqpdk7VHf4poQjRfy/9pAbPgjeP+Ob1jvNl5ldAxH/nfFG/WayfFZ9Qgy+v/aawXgagEVETQOPm47IsC45FfIY7Tal4y2ug6AagBnOwtqw83g0FrrkwGkkSf3s0QaTtwAEE2zG0J6hHmr+OYgjtJ21HMVtwLKLNrVFZOqA2yWl75RHOCDCditgLi0zKfVAjKIg2jf6ACM5tPq9B8+GgbzLFB909AMwjbS0saIezS05DnSwrBJe584VoAeGk057IZB3IQomdN8Bg1lBpFWn/RZD1WgRNUnRtOVR6e3D1jH13Uox4VQXOUsGXZ26sRmAGvi2WerWAGpylEcmhuLNI+gSa1lkllxjKthY3vnxAzblxZtfUgdUqN2W9DTyt99QLMT89Kzgi1pmjFujZoWAJdqsYGLDAtKzaOErwIaXdO+Pdt6ksaLQ3t7dykosbJN3RGWK7U3V2AB341qU9uMPZqJ1N6MjQH2zNVpE+dUtTeFBM+Yyohk9xOQf+ooS5v9o/24uTrAywe1L/a8HfFHC4BhNOyx//vu+0N7fXi/aL8/Pz5e7um33+3FvL66XOrz9V8=);lineShape=1;" vertex="1" parent="1">
                    <mxGeometry x="86.09691200011565" y="42.283570294093735" width="5.235178375667091" height="5.502366178335617" as="geometry"/>
                </mxCell>
                <mxCell id="15" value="" style="shape=stencil(lVjLbttADPwaX4ld7oPLc5r+R4A4jdE0Dhynj78vVUOuSUmD9qbIGS3JGQ4p7crd+/PD237H6f18On7d/zg8np935dOO+fD6vD8dzna1K/e7cvd0PO2/nI4fr4+Xv98epv+crr4dv09P+HnBlULSJhSnX5c7TUjLnzufL4CXw+sNgCu16gA9UarbgJKpdA/Q+RGrgNqo+JCEqck2oFVK4k8oNNI2YIpYHaB2Gh0CmgeUTjxASIMaOwB3Sg0AWswhdyoMAPa84kNiWFar0hg+aZ7vbIU0PNPNxIJCsqQD0yaWDMqqlD1ABjHIQQppIM60BNQqlXKKTLMCQKPmxVcLMSDOIs4hpASrNHLsuDJIgbxHm7V5A8iAOE1RSwaooKxqZQ0nKAkgToVy9klnGiAHVeLAQ6UOeMjJkggIgXK1I2qQa57bfCuJINfJSIBtqKnZd1DDYjIixGvDzFUAEaNT90k3TPVgqgv7Rl5pcpWQdCMFJ1hDqPcZcwF4QiUOJ1zdc7Opg5hkHhlbJ6g3VxMTg5YTWagvU0VlTVSD3+tc6HVApbro0QKMaQzqIwIYAJRJSgwJukCnLDHphHrUQvINZNYnqB90MVE6nLurAEENNGaTmAFWN+j3g4aXxo2RbA0t8TFpow7KZBOHfcsNhT5jZS+eCNF5jK1vTDUm0U1MIAdbsdgDrKlRQ7BS93KdGgK0XEmxSjygC1gO2cvV9hlkfRZANFcoDfPq0KKY576QEs+0bCkpWHFmSLNZcfe64EIZmX2L3m1LpSCTWeyI5qxwnOSVhSyDIpmzVi8ksYkEhGSLdnAlC1IBoI7ZUq7tZjyAVcNeUHREAAOA8Rr7c0Czr3O7X3M2YsABi8Wkd8hzjot6w+8OWWKvmQ9noAu2xWixjaFZYt3cwjxMkDUjgRcnZARoixzybGrrgEEpOBLPS+k6QFeWgIptmMN461B5BghbccUz3SJOwYYTVNJkumFlZbhmGE0ctFThW2K5Sv923UMA02bwGIHi++8PCP8AsIu/3yueDi8vl88dt7/H7xt26/JtpNz/Bg==);lineShape=1;" vertex="1" parent="1">
                    <mxGeometry x="65.41229491909587" y="103.85533504424822" width="1.2833868323306103" height="1.674134396472602" as="geometry"/>
                </mxCell>
                <mxCell id="16" value="" style="shape=stencil(rVrJblw3EPwaXQnubJ4d5z8MWI6EKJYhK9vfp5gBn8Tim5oYyM0edc2QzV6qi7xLH74/fPp2fxf999eX51/v/3z8/Ppwl366i/Hx68P9y+Mr/nWXPt6lD1+eX+5/eXn+/evny/+/fRqW41+/Pf8xvuGvC653Z3mgov/78klwOf37wc8X+6fHr6u9X+2jy0HYmytlsU8uqO8359neurBvrvjFPrtqwr66vtoXl5u0j+t68EEV9sWVvtg359X6szMj+67Wk11c12/O1HqSK3Gx764p++jauv7gXfUSQAERgvZomA48ANGlIgDeFQKkeSinAENMpxWQXRCbBiCsTg3FeRHVZi5vABNhbc3VNYxCdVXEhVVn9AvNtSgAWEBYASYjyZAoq5eil6lsiQ8OuS+9FOaKD0ByLQuA5+RHdqpsbuZCWwFtxu85oM5AOABd1peGyKF6hE0Lt7bowprQKc9dnQO8S+tJp+q8OOmK4KMloWYoAEJtTdHU59mfA7ailIMLwksVobGeQ46uitCogcM76zpf/WxLByDL8C6dTzrDrWLTBU4sDOgKUDnjMoJPLanMPx8Am2XhHJBnrT4AfbbTcwDya/VSgd9E5StxVqEDEFwSGYc/1zU08BVRBB8W0DwDulgStkhuxa6UlwDwa5mB31SPhtepkAGgqjfOlZo6jjKLpjgihwA6+ABIhQFNbRqFcY0lxK/K6ZEuFBomGwoA1BSRg6rcI4Op8iHLs9rDETkHIMqcRhWiMoNKVdSSPLu1FpnTKIxEl2pzUfxCMs5plGfFZgAI6znU7pKofCjudT0HdAxFfwAIa7lvQTYU9BvifAA0tenKxRhdL+tf8ATQY0Aq26bT7EnXANSn0bmrKALoynUtM63IUpmS68TUkbTKS4lJYmszQ84B4N70Cya5xqAinQEqgVKYDO8AdEkdkp+E7Rg3/C0AFWOwwC44H/hXXPdguj9g4KGDA5P1CtCc0ZLKrCPngMpMAGxcsRkA/FoEMCB40R9AawNtukvujak2reeAqciUWxF86y9gUJObjtzjMDqq/hCDK2tOY/b1akmeT3oM12LT4RhtD0CTGYcRiThfNw3AOayh0bskuhhVif4AoLzUWW4Y9orncpcO3stQSicLUoHhuUl3k1QG9mFzqfx+vx1B1PaR7ZVgcnjjXUyognRmr2ZQz51qKEyiaMPe2D5r/2e2V3zBs95zIwc8U6RhLzqt3wpLk5XIT7Ly3j/y+3NkeyV8bHMe7JXAtX+/ySq0r99kxu/+0SVl979Jerefr93wP8cPvl/U9T0+kY86ntPmH50vez7q79/sTdYfrg96ztnrT5ud8D/WtyYH4L1+wl7WH9KP/2f7xAM8zkvVtzqr5Tv7rgT8rYHZHOivdsgtQNWBDam1MCDoLr8fsWox4BGkinQt4o9D3qhNUOQpzBp7ALLmQpEH036Q/2t8LpJbg+zDYIx+o5hKYQOgE9U32clAYplXNykQIPZICrLjtuQacyflH1Q/Kk5qfA63honO5Q7jiqk99JOBSOUbBqJM03iXmjZmNOKkTSdQ2rTU1uSVDcbGvLoVk2xVY2PijMOsrNQpACoBtMKWMktymPfVwaVNGgVACjWFxaYW9by/KWxDFVEnXTcvBS1y1C00/LzNvAYwkrO6dmtj9gJA0NqRrVWj6vEgmSv0C00Dtnm/VilnZc/5ULXynwNThppmHbkG6KThhanfXhMuaUob1xNqD4kPrmihJucflXcL8+BSZfXOlYlkKVpL3W4kh2quAI3De+jyag+bNFq0BAEARSsAisznvl13RFkqi5/D3wEIki7hz5QP+ESJflgAPZAoXjZ2bJGWhF2pJxtlUzrhtyLcikCgm2EcpdK/SmW3IljUwSGY6YYe8avk3bLd8Yz7DH1fmLYLRnlJGrhlIcvV4FkTRyvqiFIKULaIOozSpn6hsoaXTN+qGtfWdDx3OQW0jegm/fABPZPOYXADEXxtU81BV+R1eOUBcbxwURfuje/aBs9UgM6yYtRXBbYpnaDv6n7EEuvBmChuvMUg1SN0OdXb9swoaBnM6gZA0irAVr0xqKm7ZzPWtMMNt27VOySZcRhgqJAFHXzd8ziA6VSNlj3wLBr0w4cetlc3Xr8PizzSdP34KbEeYLJLw56oSZMjFubUSmRJHhoG4US385IUw57yP+v3anVrVlPAOrdvrJ8lKc+9qb9HakpuONSyNZWDZNxDHaGglspB7xwPXr8X7NybvbzbHdcNnu3Vc77O99k3v5/ej95cf+f1yATrfBfnpZw97I3slfz37nrlDaBm4VOAqQzeVhR00dp2fKMEbR4Ntzz0oy9+b9jjH2/Pi788Pj1dXie//zs/R8ZHl6fM6eM/);lineShape=1;" vertex="1" parent="1">
                    <mxGeometry x="28.444285753163967" y="104.104358238754" width="37.47498154052187" height="14.870629046402692" as="geometry"/>
                </mxCell>
                <mxCell id="17" value="" style="shape=stencil(rVjbUlsxDPyavGp8ky0/U/ofzBBKppQwQG9/X7mpQyQnS6fTt+QcrS1ZK3l1Nvnq5f7mabtJ4eX1ef95+313+3q/yR82Ke0e77fPu1f9tcnXm3x1t3/efnref328Pfx/uhmW49eX/bexwo8DLheSMlAp/Dw8iZT594OPB/uH3aO1j2LsC/UG7BNJNvZCXIF9pMbWn0gRORQoRQsolABAHYjNAhq1AABMtRvAOKMMAIl6sgCmiACBgk1C6hSAS+pxDAag59wjAOiZ2BhynVGdB0Riu0MJFAFAHbYxl0xZLttXErd+pQTOiJf1hQT4k6lanrImLYEckFgaMfY/U3Dr64GC9ct8e7TXQgAZa8SWpVXrAKwfExW7QcV1EIWapURtJCBiTdmfyp2AFiGHMvuYG5OA4i9MxQYtSjoAYPZBS6ECCkfPRGzaROae59OgLLCl2RMF4JJ67GLojAF18vII0OoGzOiBunNJKKDSlNl9TnZAtaaAEjwA9SMFNLdDhVzq2i7aAgB5UECJHoAuHgW4rj2OFbskCwBRQwF9AQg6JQVY8o3MAGoMl5oHFJRpDZo9oOEdcvWAjgGuD48nBVKjtgWA6C1TgJy4BLkk/jIceyKXmr+fx56oHtpsWyeZ7igP+nopIOiSzB5xAkDX1fB4LVHEVj2TtYBwHnr1ANS9B5fCsgM6VmXrEkPEBSRLI8vYpd6WPCDZE8JsdKfNFWWunyMT7jO+V8rUKv8JEIidhn4L6/wdxFMB/2UbaKtPuH+3ROyaZYb6TW/q6M41UAZ85eJ7n96sCamN4iWi6NWOZ59m2dR0ckCKib1LKicq0mS6nhNxHR7rGI5sDLVOpX9BRruirhlqB1WVNs/1OG+dtQ/enhtsrUu5aRoZBBx8F+MEWbGMkxzwODlXO44ZDWaMJ8WO9ngebstYleY4emGschojy1R/l8YAxyBV4UgyRCZ2AKzqdW5wmluDaiAEzUGyOUi49PV1tyTStKPZRycTt0OskEXjG4CNIWaYBs1DtS7Fd3gU/HzboBDT+T044sEI1N7NVjoVIH+Sl8MB3iHrdxutbMC7nL0uDHD6VHtXOAFe/WrPfv0AKKH2zceLbkDt7YG9Pb4LnNjBk6raL/6jvqj2S74Y+yPeHzSLDHtXMlA+/sN3wnfs9cfbR8m73cPD4Zvm6Xv/EVMfHT6A5utf);lineShape=1;" vertex="1" parent="1">
                    <mxGeometry x="30.134395679365895" y="115.35954294575916" width="8.576339071823746" height="8.426018800300215" as="geometry"/>
                </mxCell>
                <mxCell id="18" value="" style="shape=stencil(lVnJUhsxEP0aX7u0dktnQv6DKkxwhWAKyPb3acWlYdQaP5ubPdIb9abXy+zizdvj3ct+F9zb++vx+/734f79cRe/7EI4PD/uXw/v+msXb3fx5uH4uv/2evz5fH/6/3LXdrZfP46/2hv+nHBCWRoouL+nB45C/f/g62n70+F5td0nqmnYHym68/uDpxKH/UyVwX4mP+6vlOP5/dGR5GG/D8QZADI5A2AKBQCKPUFN5AEgeZIwAhJ5YNOUqJgTCkWgdFKnldEJgVI6D8gqsfEa91dsAyJ5NwCSoxoAQI04+i1lCh4AKiUDqBSBSBxtZKiQCXiahdyodBYY26JW8mOsanQBHSRQGT2tQlZwG0RvjzmBqaATmGTUgStUWoo9QTxVEEvFUxhPUCE9uKEl9uUFwOSAWUvqkbMApAf8NoCJx+ATVRqdULqbOkC1ckDpqsvjCUUvkABAJDfqoGYQoENNllfVDAWYtWYbSyVTRSdwD7UFIF3IbYDY0FC7IcfV0iVeAJU8Eklv8AiomCoVwGPwqWcQVSrAWKmGSycYK6krES81wMit6koE8M7ZYFJfBmCmLQTDLNqEqiNAuqmvNWzBJxRL+PoKBwzbWCJYQEGAQFUsAF0hBcRJpIz4ewmFFSCBG6EA9haAPCeRcrYA/ynCb2ZFAM3Lk+MqSO1K+EEmAOA+5VJDxw2A2NVTnHVAgLABCCgHhZ4E144DVlKATH7IgL8VYAqgFnw4LboJUMAJatY8BR+qdDUJGmZa8cK52PDTDar4juY6AVC5ETc8V5BIS9pcAVD53e4oW0DCtJEmFkBMpjrMLICyllopTUyGqgfJE5MVmKrV1VwnAL6jcQagosxRmTztUI31aUDdICbElS31G7NeyFlT+X0pK84AnHg3RMK5/aN8ubZ60O7ZROuF+sR1iVcVUMBKm0arPUFln+vBvKriEECXo6lEC+4ICrEBCE4QcyXKsHRVgOn9WlOBWwjjaa3XYc+RbLGhKQN1yJogTJ2oTzwqNqrt8lvKQAmiWLpvKQOdwJRM78fQcY35Rh30CUrUjb2NDh7WDrzkwFX/mkF4c7GJunXIQAddNvOc1oMjgOY4A9AuH2R2XQ6jlTImssy2DcpaN6JZyDKyWs1CEhoA1T7uWU9bgEiJbXi3eQ5QOsU+gVpNjBgEn75PRqXbTAqERtTmc4zWNvVCg7hk29GQ+uxiG+AngIP5IUzB59VuwEoh9upoNX1EPY2vU5sFyyWfSMwoBDKr9KL2YzqLiqspgboL203b6qDDNt6Oxm/ODgQdTITOMovrOWLbkvaKqTLIs7audTBBxR4mq+1A9tQNcd323Gci1wnD9mLpdkSIdniGDSl2Xojd9MnvCxe364+PTxkPh6en05eQ9br99KGPTp9N4u0/);lineShape=1;" vertex="1" parent="1">
                    <mxGeometry x="66.3396868333559" y="105.84275377128961" width="2.395808440005973" height="23.89261930089257" as="geometry"/>
                </mxCell>
                <mxCell id="19" value="" style="shape=stencil(lVfLbhsxDPyavRKSqBfPafofAeLURl07cJw+/r7cLhRb3NUUua1ljiiSMxQ18cPb/ul1NwX3dr2cv+9+HZ6v+4m/TCEcTvvd5XDVr4kfJ354OV923y7n99Pz8vv1abacv36cf847/F5wmSLPoOD+LAuOpP5b+LqYHw+nO3MfKbnOvlLmsX0IlGpn7ytV4ED3c6kDhERBxgCOxL4DMFMoY0B0lEMHiEzeAUCm0ntIgUIeA+a/+6RmT8kDQCGXO0BxzecmQPcrsQdUihEAss1SjS3Rm4ASLTGqwLRKIG88OGLgQZi4p0YRDIhUV0EjLokGnS1AAJekUMn2SBl50P1WQVdADdH9pAcEigEIzjlyRnGRAqCruqg9v2tuW4wAvvSAQhmQSaP2xoPmAVVOFWQ8CBWU19S41gDimkRGZCp15QEdKTS93MVQETc8RWezlNCR3OpIqbFlBMhGchE2JgWISWsgRoXzlt9K14KCDiT9kWZBgH6vGuWVRgW1jdT0ci9qrFEO9kiMAJVSsUEjyakeoimcp4pikMb+DwBTxooTQ75EEVFDVmwtTYPDoE1jqpitnwWUYlvfXavaRnjbZzQsBkHkRGwACU4n2VHozyT4Hk3aZ0ypGfbv5CgZQaQ2EY2GB9c3fL2KM6CrjifS9xmdDirIkg5A5kqJOpOBoOeRrQ+aBY4n8xDXe2DfVrYvrULRDHERK4iq4VJqWdh2QMkIri1smrvm/KNobXwamJuxIbe2OTB3/e6JMjbv66sjNSivs6L5GJsG5iYzeiOAfq2S7PuKx9NIa82310IBZQr22ld9IibbORv3k2hpjEeE1FryzRxdG598GP3XXD9ub7CXw/G4POHu/7dvNl1a3nv8+Bc=);lineShape=1;" vertex="1" parent="1">
                    <mxGeometry x="66.16151234623109" y="127.98602693972975" width="2.8592754028980236" height="2.393541679984215" as="geometry"/>
                </mxCell>
                <mxCell id="20" value="" style="shape=stencil(lVdJcttADHwNryjMPjg7zj9cZTlSRZFcsrL9PmCYoTkg2SnfKKp7BmsDHMLD2/Hp9TB4frvfrl8PP0/P9+MQPg3eny7Hw+1016chPA7h4eV6O3y5Xb9fnqffr08jcnz6dv0xnvBr4olQziPL8+/pTaAqf198nvDn02WJ9xR8h3eRCu8TaqIUOoKPxIjgiKW3iMnHfULRG7gnFEp5n5CFYu9zTOQcIGhMUkdInlzdJ6RKsTdJ31TgdArEfVhzJEn7hFgol45QmLIHBE1cH9aSyYMbNIjc36CZERCl4Mn3Ya2FfNknePXBdQStrn/Fsk3wVPo8SCYBhLlwZnyhAiziVpmL8wsIKjf/ZnxqadnEa2kbe7R5kMPkncUzSoFtZgmUgD2pVcACHwE+U3UWX4A9lVyx9nvQmUJObDwZ9Jm0bC7yhfF1VQ8OSIvYnhH1CNivbV97vLSMb0sXebZ4VD9aXf35jhmKabRaqhcIkHftv5UDGTjg7DTQAKHzmWJYBRTYz1YWZValHbwz52fYMNzab1lwoOEdFRMfLWiAD61cFg2TQYHGJjfLhkSjjMKqIROIf1kJqFYIGAKaTbb4gtYDyqt4IoH7KN4lCsYBTwIC6rTlzRSbm3q7A9RBM8UinPV+dUOpTWa2a0J96G8oAS44kdtKNi8HBcpE1LLoTco6SYDTyVHt6zrNR2wTil1wosDlQFcoM1p1Ialo1FTbCmPcwA1F09QTtNoFie+8ks0EB3dfXWVdX3zOw51La9M47WDexvXHGTyjbgtNfBqe20a1jY92pWM8jlUMg8EjtRjFdoUH6j6KucWjPVzxkgw+oHFfrdwxVi9px73HH5Wc4qvNl6DpwasFcx64excYhwPc2T/8NfdfvD68fzq+nM7n6ctz+b/91NRX02dqePwD);lineShape=1;" vertex="1" parent="1">
                    <mxGeometry x="68.69124565840605" y="126.74573596257915" width="2.5287326265651413" height="3.794646623548099" as="geometry"/>
                </mxCell>
                <mxCell id="21" value="" style="shape=stencil(lVrbclwnEPyafaUGhuuz4/yHqyxHqiiSS1Zuf58hKthDc7a3/CbBNByGuTZ70U8/Hr98f7gE+fH+9vr7w99PX98fL/rLJYSnl8eHt6d3++uiny/66dvr28Nvb69/vnz9+P/7ly7Z//rj9a++wj8fOHGaOijIv2NA/P8Dv36IPz+9HMS9Syie9LZ4cHUV9y6W2+LqaljEgwtk9eSkLeLqQrwtnl1axaNL+bZ4dbp+THaeiHsZmw/54loj8sHp+jnNNaIbH13Oqy6DE/ZBZUxPQByXfQ5oqCCfXSUKtevxAGguEusxjZcVYAbRyBlMh1FWAL+0qxInoDgfiMmFYZET0FxmNhpdW+3ClvBErVpcWO/BlojkDGpKXC1Jp+meAqJ5la6AygGKnxTFRaKlGF0F3zHjI6YRs9P1k2zPREwjFpcBYHsSLcXq6moatqevBNBcrSug0GiUBG/a9izk0Mmj8dkSwnZQ59cz2BLMNFJEf7AlhBhfSq4BwHyQAewe1kOnPEbOARY1VrWmSl00e1fWT8oyljgHKJ4hh2Es54A8XH4CLHiSQ+fqwnpxtkQmZyiyAezQQgBhGMLMDuI8MY2ieA/Fu0wcqETUku3JYmtJY3oC4jDHc0DG9GxLsNhaikuQEjOtLkrFhGKAQgKZAQqcYe55DmijopgAu3tifGVmgwloToiWqqDx9SWItRoA0q6NKFFr9biDjTC11s3j+ggDWG2yqtVGmHlXHdlgAtQp20FdWaNGjbSaselUEFDZDmk7QxrF6zlg1ncTkF0gxmfTDc5gJRexJZuuioDG1FrR+PoI05KVDmBLzSnxhybjiAcAK1ubx5u2JVi4N0BZz2Ajnlxc2yoyA2R2Bh1an4BA45IBsiCAZaAWMU9f97wFyAkB7OJawu7BllASNQxQV2u1ERa9W0bTaIkaX7PCebVWW4JlUQNAdW8jLJC1hkGgVdfYobcSzkaEA1pCAEu7bVr/AcAcyIuMdHBAJH5qyLs2kpnLNczsXQ/MIRqWxn0JDsjQyF2PdQsB4bjdiRttFLZHAL863XaoXK+6nZp1cjYdNmtiWe4UcMfAoQvq5sdcaPbPRwPnOyQA3HUhqCsNUPnFlbjtwOJ3Q9KnA+7Y966lOx603QMr4s6dlDVap1uwKq4DAgJY6Xr14aNDcL2WTU2NJaE2Goaf8eo9cHA1/SSgbAZu9Tc7dcba1ZZgRIIBsEDJtOO1NAg9dU+MPLljnkuUeDQANB02wviZXizADspdSLcdlHIbVvBA42QjdIcwyJUDIDIt+S0yeW7fslUDnpdAclKKFhI3rLTFIkt401HRNOrMSrcqfODHe8HOuhQrqbYeorJucav7etPBPiltrVmmNLD1VQHOkHgDq0g/1sjbmoBcnwE8cSBrVyFD9PaSXZxHgrM3sKyXk9FiHFrkyrQk2HRU3tZcWYBjm8+4jVmpHokERlXsZAivBWxaN0BgDFDBnGUjkdEtZQT3A6HD2ESbTmsaLYn6tE0jPxM5IG7EmtLmr+impTA85BzgBzFx4PoYVVHmm9tkE3mZmOsGKKP4PQdY1AC+MnGAoj/YCCuxssdHCxsJ5B5SGwTR5I3bYP9uMdO67mAjLO2mhG1+SjRqpIgPikkp85ACVgI2Qul4j494SWhP3adXLcVGk2Lc6PhYaY6zacjTMY9EfA4o+GQc06AWzgEZHyIjD/dxc9EYaCcXA3bt0fNDe+T6tFFrtWkof/qzHgNk/CSdz9XngI0y0kDvQbfXVxXKV4aGpXQotDIOGwMUEnXR/jgLgDB88BzgsWvqvz/gb9TwKu8LLUP7E/Z6aJ9oD+Qjdig+ULLcpkFLXmiO21rLSoNMRe/JlAbJW5Skv6GI2KwrLRkU3yoCJZYCOnKg9YXfVE9jnYzFhrhQWkxG0DmIk48RTAZCH3+3ZkQo4bulfBmE2i1xPCpr707EWdsig2O6igcujj8CYg/vguS5UKJaRulzFWe/NJARhg/ixFu39w7OiPzkz6Puitsf119ifXt6fv74IddxHn+5ZUMfv/rSz/8B);lineShape=1;" vertex="1" parent="1">
                    <mxGeometry x="65.87181345098688" y="103.96897739992005" width="32.93148502957204" height="21.538505084071794" as="geometry"/>
                </mxCell>
                <mxCell id="22" value="" style="shape=stencil(lVjJbhsxDP0aXwlK1HpO2/8IEKcxmsZBkm5/X04NTUxq5hW5eXmURPJxPcjN68Pt8/EQ+fXt5fzt+Ot09/ZwkE+HGE9PD8eX05t+Osjng9zcn1+OX1/OP57uLt+fbxfk8un7+edywu+LXBEqZZGK/OfyC1OO/374csE/np6u8YUkGnyklgG+kVSDz8RlH1/Z4xsxOL9Gkm7wIRIDBWoisQqHQjUBgUJZrMaBSgcCjVqyAnpE2xdogaK1qQTiCgSEcrACmSKwastDxVWgkzAQqNStQFI/gyd1pmCflDIVYNYeKVilk3o6AAGhbm/ITBGYtWfKVoccKQEu9ULdcTVBT/dO0ZIvdwqyLxCYidlIlAT53Rt1S1eNQPimQslqXfSVyHNCbAVqgHZtjVKzApE60KGtf68CaUT5XsgV9yQlMLCrZg22Vqp18HE7LYnPAhq1KO/lQs3StfbhmW0BpmqtpGGewJNS8nlGwxxRQxoV+6SWxp3bAjKIsApoYgI3aO4V96RGEfghis/GTa0E2BqU3jYeeqAGrBSm9K38reAGtaFVQYO2AO5FyuzxHT3IK3AV4zsCLmcsFwDmKY/ypADwMnufKV6AAjxKzYpf69cenj1e4PuDe0+FHmafvxSPkgVPDKrD5Tv2T45AGtqI05N9FA/8G31DtZQVYE+hUP37I7Cn+KqmeFRoxZd+9ReqUVt4fH6e+BmwvhP/YRIa5e4KjzpO7SvmAEYpiNIcj5hv0eNR1uWJb30wfC9eksejfLIVjxnj3Xu018P5JHh8hvFbp3hHfPsoXvv76gImwFofqvdAw11anFrThlNQ1BfbGGi4+ZX5BtwGitrcle4IK3GawrIpEUFaSX1kwauOCNWZnH3iXXouQLyi3bcTyJCp2riypV4VOIToecnpoFZCY07w06Z2kuhJ2jC56q0DLqoeOua4G7R/R+Wp68hhdVhGdDTmJN+OF9UBTQgaQNYP2twipXW2i04gwhKlXaK7QdkFJ4TiyZdwxC2drrsh4Qk4+gBKPArptgB7tkoZht4b+12jo1Ee0Z4gDzete4I6er1tgXUeWAXwUF7Z3xBwrlcyO6WDjKlkbx3kuzVqwA3L3GUTXx7twDae/dgV4SC4UN+ZCA5dipfm8CgPl6kahtHu7eLdtgnStKzbt/d1XMP2cVOmHoDOD77wMNwDKd4NpYzn6uBXKAyXOktNSB6Pa0jrHo/sI0O9dzxahnx4HfpfvH54373enx4fL6vb6//9rlZ/uux55fNf);lineShape=1;" vertex="1" parent="1">
                    <mxGeometry x="95.0271613852006" y="121.4392775917583" width="5.470254506557674" height="6.427284711359485" as="geometry"/>
                </mxCell>
                <mxCell id="23" value="" style="shape=stencil(rVfLbhsxDPyavRISqec5Tf8jQJzaqGsHjtM2fx9uXTkm7Z2gQG9rmSPxMUNKk9y9rB+eVxOHl+Nh/331a/N4XE/yZWLe7Narw+aoX5PcT3L3tD+svh32r7vH0+/nh9ly/vqx/znv8PuE40CxzSgOb39XKPOfha8n++1md2EviaQY+8jU6jKAG9VkDxAqDZxQKFYD0JWclwEpUrYh5Ewsy4CsIYoB1Ei9gBPSCHEAmlADgKxBR39CTsuA2QEbQ8k4rZWKrYOemUDhWAvHFpCog7R+EOEMCNQCBCSb1lQoIUCiYGNITIwAlThbajQqIK0SfZZmdkVIvmZjUMKjSs8e2yxJpgDqkDSGK5dyB1yKo65nQCcBAtK6suVSEorAJZWLq7Q6mUCWFBBsltRJRA1VXLOF0y0akGjqxFZAuVMAQatEU7cCimOL25XuvvEpoIM6iPgYFCBIQOpx9jFAQPaFywXrgam7OjDsfApw5NNKI3prrxanaYGNjIunhia6ApckjLpe6KGhCZR919AVRO8UfF+aNQ2okTKV7E/oSEA6RJ1LbeTt/wB6GAPqghoJFC4GzWswiJrhgGjdD4jWBr2WZpaja8+QG0rOYq8CF14u1brbSnSGDV+vM47gNcH7TNTLiB3thXGargTRRiNZsrdZVUkFLNFgOx+eWErW5iIe7L1dBPEjUU9E40TlKE4NOmDA1SQ2f0VUlyrorMkzNVZ8b/ANIKpggX2g6vYXSiCAK+XESBGQ7sr+fOVdcscXGA1b9v1Rs4+TafnJYzDeNNezbXE1VNSHxjwa5gE6o2+DGJ090nu8ulh8sr8Sq3r30YT9x9fO5/b68fG0etpst6eX2eX//immS6dnnNy/Aw==);lineShape=1;" vertex="1" parent="1">
                    <mxGeometry x="191.0167673757581" y="26.342613419577162" width="1.1321859216000822" height="1.3845839325044538" as="geometry"/>
                </mxCell>
                <mxCell id="24" value="" style="shape=stencil(nVnZbhsxDPwavxLULT33+I8ATRujaVKk6fX3pWBwY1K7k7ZvjjP0UjyGHO0pvfl2d/P19hT52/PT4+fbn+cPz3en9PYU4/nh7vbp/CyfTundKb35+Ph0++np8fvDh8vfX28mcn768vhj/sKvi90YNMq0ivz78g3rF+8v+Pvzg8XHbvCRWgf4Ti0YfCZOEM/V4AvFDPCNQjP4SiUAfNXHK75RR+fNVIfBSwAiwCcK0eADU0UBCpTYGkRK4Al9ULARClmfuW9QqdkjhKpB3jfIPqahU2RgIGdwRcGUQZZbp2yfMMsIPKEVyjassy6QgQTRRmkmuh0b1EHJFkZiKqAyqhRatgaJeACDRMNmOhWqIHFVwmqjlDoFcOjSadhMZ1Yn9w2kNOyhc1Qn9w3yYlCIQVhLpO5capAASvDFl7v+xK5BHpQtgxWGlCQONFut4mQFnJErBXtoCUMGicvyb3toCTRiDYl6d6wnPIhckihZWi2DOjBIC29LdTVQGqlRtk+Q+u2gNKSYi23RWmiATEu7eIOu1LZvEHxPN4ZkL1zNtkVb0m/2DSpV26JCPCisMfmOE2pDdB8DRXsGIc8CSkOoN9vECT1H8IRQ1IHNoKqT+wbS8jYPMmJQP8hESzasMsQGcKn7NMhUZUR8WvsbvsDpkHVgbvgGSSlq5W/4rsW+i2dfFS9b0wHeTbfATAwOwH72zAeAlLHOvms8PEBY8Igi2S9JgkeTajvdFR7Nf9b0X+EjxnePRxsM+xkiCR7Qf7eDCb5Df3Ja8DC/ZfEH/75fOjukUvYTbcYHNABTz0v8YUH34vEZ8Kjgl/xW7P/y+ziedfEf57eEBQ/7K/1rA8fVIRigsDQYLgheAoTGzG5DwgN7xh3aEn/tT8AEtDDugA0ci8cjmfaveFEHDt+ooOVGs7nhZScEv1+03K8mHiLcthR0gppuKB1cTWCkPWTGF1sQvesmf7RFuIjKFoEyHJYh3xNlENJJErbmurQ1qIm47IutKY8dbXNOi7cM9xRZVIrlUZGRSGWKRHSSTmQkOsOUiDastUG1L1u1NyhQA6bqL3Sq7HdgFqRtFG0GjAXXlqYrsYLWIVE3ycmh7dbmSD+5/aMUvWHYN5B+s4RdkqbySAMmp59EDiGXulbOJksxw08R6i6+OtQeIkLdUjF1JziDiNDolHKGW9QUoe4MEbvU9QZku4DAY0cqx/GSyMgIyls0pVuVU4aytC5aPEUYpdq9S0KeFVRrCzqZNoMKZ5VIRMd8ccvM0e2XW8dFFTbgkkhEN87DUFW4b5C0mDeDBq9Rhdxdi8oAYPSE7jVUSDrj9yfWskOGoKpn3yAuM1Sb/OimNriJBblbNGV23K1b69HNsb9ngiuDbBS+PVU2H+GdDE9wJx/LxUDEN9PDT0PW65RDfHd4xC5TQlSHhyvM8Lc5DMlobrDN41H8hx/mr+Kd6GL8pmL4a3WGC9Lc8Jd4YrzbORnXz/ATiiFHXEmaF4P6ygP8gZFI+49XS6/g5cPLe6yP5/v7y2uw6//7917y1eWdWXr3Bw==);lineShape=1;" vertex="1" parent="1">
                    <mxGeometry x="169.88987513294143" y="26.536931286275518" width="21.520044322673186" height="15.272185383619068" as="geometry"/>
                </mxCell>
                <mxCell id="25" value="" style="shape=stencil(lVjZctswDPwav2IIgudzmv5HZuLUnrpxxnF6/H3BupJFUF5P3mR5VyCBxUFu5OF99/S23Xj3fj4dv29/7Z/Pu4182Xi/f91tT/uzPm3kcSMPL8fT9tvp+PH6fPn99tSQ7enH8Wf7wu8LTzzl0Fje/bm88STy78XXC/6wf13iHZXc4QtVgNe/ucdzopQBIVmCrig4QBAqridUkgIITK63IJkk3SZwId9bCJEiIkTyvYUolDwgeIq9hcTEYA/syBlCIQcImQp3+BzIA3yk2u8gV8rxNj5QlF4WgUIFOqKUerwKBeCH71dPDoRglsCM1/2iCARKvUNrpMBQRalYQkU7dpPIZkKCIZNqU7NZCMBHSsjDHkCuxUrRWy8VEGUVmbUQpnRdl10mZywIebCHotls3MrQraVOK54JbvrEujI0FfollfnNOqGQsCWgEqaEMhAy0FKttl4oAUVaCanftKaPoD1Uqs4SClgSu6HCFFxWm4lgCRWISQnZaMNBuSpBsiXAUGtvMha0rKIlFQpiCR60NxVTHQiMCf/L4nIPaEl5WvHSS8hCmry+jANooI0wRhqJaUhqFVNGxThPvWZB8CjSc4ItEwJlkHaPYAkZbbpQGggJy5vHsoFz1LbEAmulEspASNhCNW6tsImuEmDgqq1kKj7BlcwMMkq4Y8EN9R51xc8TdMVmSQGODjq5iKkaEbpVm5xpEJpSEYhP26iZrq5l4VajTqZqFNhGdRSobAmoGMsYaQ0lsNDGmWwJBbhVByZT+RY9Zr0HiZVrnf2wHrkprotNI/HJMGAl2HbZloA2VIJsGFqoahGtXwv7UJMcKPU8TAECu5VYYecCY6zHmP77We4cMkKPTwlKYpgYYsX+9zYNop5WgUP1IBZ7QtDkBmnAwwAgCR7ERk14fJDRIIRepO0TKG+iVYXuKoD23NKgl12GU5Ifjg08xf0W3kxVDkZZKwUng49g/Yo3MnJwPe1Kwhk8PFexvWHAZUjxMVg8yjK285SDARY/nUyveDRoKz4Ug0dVRfHmpMqw/7UrIVOo4ViueNM6GM6bn75yuovXh+v91sv+cLhcjy3/t/dh+upylyaPfwE=);lineShape=1;" vertex="1" parent="1">
                    <mxGeometry x="169.16559282284396" y="39.18836590876366" width="5.923975424155701" height="5.153961118091642" as="geometry"/>
                </mxCell>
                <mxCell id="26" value="" style="shape=stencil(lVjbUlsxDPyavGps+SL7mbb/wQyhZEoJA/T295WbnnAkJ3uGtxC0sSSvVrJ26eb14fZ5v+Pw+vZy/Lb/dbh7e9ilTzvmw9PD/uXwpp926fMu3dwfX/ZfX44/nu5Ofz/fDsvx6fvx5/iF3yccFyoyUBz+nL4JVPjfF19O9o+Hp5V97CTV2DNVZF+pdWNfKHZgXyg3Yy+UMrBP1K3/MVAUCEjBAhKOIFFwAKGMXGJqxaYoUkYuMYmNWZPUIgbYE1IgbhjAFpA3T4gW0CkhQKJiY8jnby4Dzg6cAYKZJxTsCSUSg7Qqk6ulatEzEwBkEsdVoQ7IqlkPNq01UA8AUEiSBaSl/i4CMlO2LtW60PEyoFGz9VAbMWBrKRQsQAJlcIKG+L8gzwBeavYyIFOybJVMuQKAeGpIhdRQj6O9aWlUCgCwV6WmZAH0Vo+7DboxpLd6XC1bW6YKyKces3NJfwLcg3QvM61BmWmRknWpq2qALGmI3d5Dj9RA0E3F29ZDT8uZlwFCYrW1aw0CtqrH1Z2g9QAuTh3wMQhFdIL4/tD1ZpAuheAbRO8UwVVrBdXsAQIuoqj2Jg9AslGa74oKQBehJ9Q4xQCkr8aly64AAQWdvJJpXpFWqtD5oBuU76ohTic0JBvshamf1fOqCkzc6AhQfWffoIbIBQDquzJp5aAGko3qZUMBFSlZWQpsBWiggmTqWQrogN56ccXWw6qmrnEjT2lCnbqmSTcUALih/OY6RQ1cGhU0AZDgjxqdYshYBXjKK9Jv1ZkyXXVAnVpn+akgOrjqWvwsMCoIudQoyQRA/I7LMLIGIPZlijzFgEquLvPROku4qD8G0D46U4MBW7VTx+hjQDOZDg/VZUngCSMGJ651ydu1tAZHjbwlrsUFneDUJ+cnzGraQBenXHKvIJ0OElINzYlNq05MBZBP6e3qYcxkqB40S25M1KkPUEMrLjmXGJ8wZWlMrmgUEC+u72S59iBgW0CCB1F9hjVLPiVLATetDz3XgpQs6AR9BbnpRMlSQJaS9gcLGMIDlO/CS67CMZETRXsPo8WgR/55abB+K6JNCPsJSztGQOO6D2E8d0HM2Q/repGofHhJyPrBDlIU/BtrbARAwMHPGRsrh2ns3thpzPZ4aTLZb2xlJgptrH300TrvlYDeBS8VY3EF/WlWgMdmDPCHiV0Zw/QnP20X/Ojx2xu8NIjRl0tYJodr9j05e7QcGku64OwjXleFyR4Uy9hjVmcf0NJQPBsCfNfG89NmZY+KVwXT5yeA9j2qPXp7oOk8Pe8CpIOqz7R3ZhCvsit5fxA7eWrdYWkJ1+w/tAffttcP70v3+8Pj42lnv/6/X9LrV6cFf/r8Fw==);lineShape=1;" vertex="1" parent="1">
                    <mxGeometry x="192.00854706269502" y="27.32512995648014" width="1.2851171541629676" height="20.487803944847542" as="geometry"/>
                </mxCell>
                <mxCell id="27" value="" style="shape=stencil(lVfLctswDPwaXTEkwRfOafofmYlTe+raGcdpm78PXA1lgZK2k5ssY0lhuQuAAz+87Z9ed0Nwb9fL+efuz+H5uh/42xDC4bTfXQ5XfRr4ceCHl/Nl9+Nyfj89j79fn26Rt6df59+3Ff6OOCGXb6DgPsYXjpL79+L7GH48nGbhXihUEx/J++34UCl6E19JeDueI6Vi4j1TlG1A9OTEAvQTwRfF0tZrgJBhCimSiwbATBkAsqOSLEeeBJCaS+O8AZKjCFgqTNV+UhLKcRtQHbEF5Eo1AEChEAygKG9lGyBCydIqkQTs4J0jZ7OWTK7CLSpbgH5lhgBvxSeVOAFAodolIY2HdUAm5h5QgFyVlGT9NuNhHRHagrMtKhCHeApukQTgtQpJ6mmKSE3Ka+0PgoE4qpreZq3EeUCT7sBWfpLIoYNwvV6VaUir7w9CGB81L3bQk0HqSwt9B8pI35kK9wBBgEqB+xwykoYs5DrV2y2AcH8OGel7qaVMFe8QFx6FB1f7UiaTurZorZ1acbHUFH3uAYJy4Kb+OQBbtCwsitquyrv3Q21NZtNAC4sW7OmvAbQfJAvQJoMKfnGtWE8tJZBHbVEdZ7WU1Q9AfCk3Q05tMTbBr88CKgRLa8yt2a8DQvPXNAtUODxwapxMANd69zrAkbcAnbASSFoHtq7J+UQR+EEHqmAN5D0x2IHJW3UXymj9vtaXNqFthHdVMjd/r4a7voLhZBczRoQ+c63JTKdFCUhapzS7eoDV1C9OigqanftwB7sBt9HmHo6aeGzuvodDM7ah+h6OqnRpnW62OiqIX7uF/DdcH+4XnpfD8Tjel+b/9xckfTVervjxEw==);lineShape=1;" vertex="1" parent="1">
                    <mxGeometry x="191.19073251071825" y="45.248619393435746" width="1.9464274170399944" height="2.9344043436684455" as="geometry"/>
                </mxCell>
                <mxCell id="28" value="" style="shape=stencil(lVfLctswDPwaXTEkwec5Tf8jM3FqT1074zht8/eBqlARYGk7ucnyLoXHYiENfPeyf3jeDcG9XC/nn7s/h8frfuBvQwiH0353OVzlauD7ge+ezpfdj8v59fQ4/X5+GJHj1a/z7/GEvxOvVWppZAX3Nt2pFOK/G98n/PFwWuCr4KPC+0aZAYHJN0UIhWLZJpRMVT+BE0W3TcgSgFeEyJQbIARqRRFSoAQIKZOvipA9xbRNiI2iJhRHDjwhBqqsCZVy2CZITUwfqgQJqhSp6Jxbo1S38YFy1ngJCJzvyZnzC/m8jXfkDV66DBKW+mmdNqYEhOqo6II2TwXgA3mDd124G/X0WnS19Qqsi46irqdMUgT1lzlji0+o/p5CsQF9hLhOYAo3GQcgah/tnElJK3pC6ucteoZELYQPCS9EAZOONyoqPat1ggy6CUlkjZJ2XZWLuckg6UpOp+Cd67fWzeUmokYFCIOJvc2gAbynxLZEyB0dsbaulsnhwTQ9m5uygbcFDcRIFN2aFzLN4Hzuy2IxB4zMvfd/MWi4wXbwKzQuUVC6meQKnGgkhK8QxIuM9xbxdlQi161zJnC313WCTJV2rxzhxpQN3HTXZIc6sA7SjV/HQgxCSoWq1qkEWUAfcrIbJMiggZCK794zE0SpYJKLhKSfIP4U0btRtlt/tqd1fKGmtefhDhTlm53g4A6UyTKvXrIRQEllcpPFI6sTZzALAb8VifvXZvAR4WfJfNbHA2sU5zTeG+DKFGc23sVw2wje9CvCnb9YFfPYwF0w7iIz+XDKvvq2/3+8XHx+Wjwdjsfpy2T5v/0UkVvTZwzfvwM=);lineShape=1;" vertex="1" parent="1">
                    <mxGeometry x="193.42594382203328" y="45.8677752420308" width="1.7549123671564508" height="2.3145986017150757" as="geometry"/>
                </mxCell>
                <mxCell id="29" value="" style="shape=stencil(lVjLctswDPwaXTEkQYLkOU3/IzNxak9dO+M4bfP3oepSNkFpFd9kGitg8dJKAz+8bZ9eN4Mzb+fT8efmz+75vB342+Dc7rDdnHbncjXw48APL8fT5sfp+H54vvx+fRotx6tfx9/jHf5ecIZCHkHOfNQD6/8dfL+Y73eHG3NLkRvz6WDW3JONjXkgn5bNE7G6u6EEbm8t5dQCAg5fKNkGcE3ALMA5EtMChLIFgEyu5cBMKS4DWChIA/C2Zm0+p55cS9onEhBScGRdW4UAOYRMqSUtTAbUQSLZNq2SSQCHyDWACoiBEihcMjWACkiWPAgpBeKWQ5JamXlAiTg0gFxGATRrZt3c5eS/z3mAECsPQhYBcu3+CZDXACqtIwC09wiIGsAODJAphTAa4eVehAAfY1CiARG4GAGdh4RKl/UauPpcAsQWcENrCSG9C1yK4DoATpP3HesVQF8IHBInDQhghkZA1gDGheg5OLAHxgD6DscA6UgbsJrGUveAgJupB6x0X5clu9LfocsS5pA7Dx5s/PkhDSsuus0RV6a66++0kteuNzIudezStDJy0nr4wlSH3gUmcSdAyCjWRXCgmXOU1LYsqgs/6JTKyhaSTl6rrBThRMRuWyZHDgFYq9AoJGAiRCgqgCEPSl0kjW/btUgaJDiC1R6CYKnLtTknWVZ8goEows+1A+EnOTsvLVMVkpO09FBlFfGqtKiLdbktyWPfhlT0PQMPRYCrwhUBjh5aUQuU6x3mk6SXcUkaIlDX4hR/fVzMmhstWw1cMGU3iDJHLVTMnTJHDdRtYFOfXF8196BSM8HwfVSReDb6DcPAFWSqKL2aGzDtRle1mMOqKpmNd7rREmRK1YJ50FRx7He9X6+al4vrq/zLbr+/fAm4/V+/+pejy2cDfvwE);lineShape=1;" vertex="1" parent="1">
                    <mxGeometry x="191.68662021617348" y="28.105530566087253" width="26.071381678131388" height="17.062836541887652" as="geometry"/>
                </mxCell>
                <mxCell id="30" value="" style="shape=stencil(lVjbcloxDPwaXjW25Otzmv5HZkIKUwoZQm9/X7mMCZYPS/J2OOzasrS6+Kzk4W3z9LpesXs7HQ/f17+3z6fNSr6smLf7zfq4PenTSh5X8vByOK6/HQ8/98/n369PDdmefhx+tRX+nHk5UA2Nxe7v+Y0ndv9ffD3jd9v9NT5TjiPeU5LbhOKo8kBgoVgBQYj9QBAmXwAhUk0DISghAEKh7AZCZIr+NqF6CuMZElNKgBDIy0DIvrthmZAojYfOlTgDQqGYB4K6wQG31kq5joTal1gkeOfIjW6qTBXblMYtaqSM/Bopjm6qmRKIXHU21G1PIFd1CpsdKjkQOdV38ZbgwRmSrlemHYBcYyUJEwFkUFBCsYeuYAdRgkwE4FauVP1EAIfWIpEnL6FDe+lOvCIw2qFH6VJm3uW4vAOFZDdAYlUlOYvPIH8chWjxAQjJ2QpwJ8pzspWeHLfwUyY4UGEciQlAphgR3kY4wyqsbcOoOkHNeSpi8QXYw7YEt/WBf7RUxcl+EC8hSZN/wPpCiS2+Av3IVBs1vkDP2iQnPSP9a9ec8AHl/EKdyyBfmHjSP8ov3xvkxxN4rqMFJnCc8BEI1BGzxSNBu55OVwHLwP4lvIcFhU3C5zvrW0FkYrC++nNKAOz/NCckSJhP42UyKPVOeKvJmJlICShiC23sMhp+tFFGWFRaK86WgETamj1PBBCFNk4ES0hgBx1Y0mQSakwl2AleCR6YpEOXM24NcIJv65nUFFhbmhCMl7R9IoIecQxcwXFQA4IZl12X481Jc4xD5i7HW5cKk89JYH6qxWaiiIKvLWxbiN5zkJb0ClFGgt6kCpC3aimOh+bQ28oyIfQjXqo891AuE7xNIHwvang2+Ah8tLQ+ElL29sSOCrbH3KIcvDmqaMwY6LBD9SLKBo9udXkac3CTzTrmWPvv4Iu1B9WKJghvzwtKtuIn/6OpS/GT/9HU+OnPG3fx+vD+LeVlu9udP8Vc/2+/veir83cbefwH);lineShape=1;" vertex="1" parent="1">
                    <mxGeometry x="213.71011035752178" y="40.906083804791194" width="5.0141609766048" height="5.86107417601728" as="geometry"/>
                </mxCell>
                <mxCell id="31" value="" style="shape=stencil(lVfLchsxDPsaXzkS9T6n6X9kJk7taRpnHPf198XWlWwxa0xzW68XkkiCILQJd2+7h9ftRt3b6Xj4uv25fzztNuHTRnX/stse9yc8bcL9Jtw9HY7bL8fD95fH8+/Xh+XL5enb4ceywq8zLmYJdUGp+31+46OU8vfN5zPgef9yBUhFkk6AUKS424AcpZUJEJuUdBtQstR5h9zEkSMVlRQnQFIJBID1zJFCkBhI0CqaZ0CVmG8DQup/jyMlafU2QJHWGVC8VLJDDJLnGLKjOyQE3SaAVvGNZMlLmeugyJKnlTaF841mKdd+4gHIUiKpdOjMGYDUa78OqJKjBTQSdA3iDaCKIzvU3NtlZMlLJHWoTfwcg+JIZIfmxM2AgEqTtGKHYABZHClcLTbo6CSRBkKWTFpj7FGt16GJztS4CM86INoYYqF1QE8bEcAOFJBEZ/KhpRITMhUX5rS23oPrACfeSOXQwlstWmYR0CaVZOnS8gOAHYiQZRTOkM/1N+uA0nMy+qFQekOMTdDouELYWopNKwCZ0Ru65O2RmJBVrFdt0EoqXaudcUgrGyjouGYArU+MWwBTaVAjfBjACgcVmnUJSvWvMusDBQ00z4cWJRMAZlwwdXCQKpJXjIM0l7ohLMZvUfO9ow00th9DNFN2J6lGMyCdRDN8sG4J5ieQHGFiGqcBJjnCVaynZv5odwbrIcAmGFWSwhQA42ymKq9Z1XezQSJJaRvyMCIutAZXpLnySp4cCVsYJ4MxH7kAhDnmhXfM+qCfnQWwLKUsadbVyssWkzVXaNhK0rQYTjMQ4W3IkUDuYvxepl4JhS0zk0ClSmzDIoozNcClStKqQ1CulJs5GcSQjEFMVOr1nZNB+zBHqe+MiXcUEHy/7QxqUAWATMf5RJUSYxGAYr8nRYBTc9GchzmxqN3ZXQUciabC2RmmIqXMun34SvkfADxcbrBP++fn8wX4+n9748Wr82053P8B);lineShape=1;" vertex="1" parent="1">
                    <mxGeometry x="192.75528328576502" y="105.54256700720796" width="1.1851770941245738" height="1.1401130144271356" as="geometry"/>
                </mxCell>
                <mxCell id="32" value="" style="shape=stencil(lVjbUlsxDPyavGrkm2w/U/ofzBBKppQwAXr5+8pNHWL5ZE94C4kWWdJKXnkTbl4f7162G8+vb4f99+2v3f3b4yZ82Xi/e37cHnZv+mkTbjfh5mF/2H477N+f749/v9w1y/bpx/5n+w+/jzhXSLihPP85fsMU6r8vvh7tn3bPo30Y7T2lBO25DPaJEgP7TNUP9voPBNoXN9g7RxEDchgBiTKKIJPkMWKmgkOQ0YMXChkCUh0AwVNERVDAeKRQqOIY/hepA2JaK5uYsnlyIK0fNDgBCqUAAFPQEin6y4AQyI1plUrZAUChMsaQI6xDjJRH7uUCj5TYNk9x3ecyQHpdTwD1GS8DxJGXEZCJwZEkUBj7oWgaQNCSbENXhlmS3Ot6ArhOlkVAZuLxSNVTAVzKgfIYdA0wBi0Tj4WrmlYAKNpfJobUm3YZIFTGwlWB1NCcBOMhkwNZcqxpMoWoFAG/9WdJFpDA2KhlwQMafZoU7y0A8bsxYfJQUSGUTKOHszwsIwLF2QWiX7WjrAGAhyw9KedpQvSLVJ0FCKhcm0NiARGMgZzITUfyqIUy+SlLDhyp8DQG9EoBZNLB5fwEAB2hc8jnCYD47ZeOhOmaqw2aEaB0rXOeJdRBSv+pIQLyUK2caT0KBo0eSaYjZcBWnUN+4lIBXGrDd+4HANDC1bEOqz0aFzoIkkkV1QwAaVJ+y9RyBbBPOyhMUQtu6pkbSLl+GqAXaYj2iogIEKiaUgsJEgOqTwwgQema9AAmSxH2aIpWiepVjQZ+k5GmqT32oDGYLLku05ZV3ERXFTToHo1iAR+Mv6QTjRhoogxcQZHtrNQOQXUI0Y5vFZaoH3RLMrKvSVes1+NIDeUvypITO5ia/AZjQ/cwNxauCXykdadNscAdxfdRfb6ioDWLeDzP2g5kReXakmXV1coWx71RrlwTuTPgyj2Uu2a+ctFle3uubNJs92K8qTOlkaH4IWDSI/idYRLP+BmDrRY5ubtUWmvuQa94O9i5r67L48ESjbu7S31iQ0UbYelrx5k5CpX7XnOlvZ8fkNBxnN4Y03lQ1076BifTTesprlV70LL2kAqffzBbsdcPH69zD7unp+Pj3vnv9jVPvzq+BIbbvw==);lineShape=1;" vertex="1" parent="1">
                    <mxGeometry x="193.55919753298656" y="105.99888502976972" width="0.9898801943282757" height="23.28070263421057" as="geometry"/>
                </mxCell>
                <mxCell id="33" value="" style="shape=stencil(lVfJbhsxDP2auRKSqI3nNP2PAHFqo24cOE6Xvy+nhsYm7XlFbrPwifsjNfHD+/bpbTOl8H46Hr5vfu2eT9uJv0wp7V63m+PupE8TP0788HI4br4dDx+vz+f3t6dZcn76cfg5n/D7jGsU6wxK4c/5Q6TY/334ehbf716vxGMdvxf5QDmtA1KhbgGzhrwO4ERNLKBTkXVAXgwYAK7UKgB0ys0AciEu64BSSbIBFCYGUarF+1AjMTCpZYpsAQI19EjVamiaGZAH6ZSCAXShDvIgQtFqkDiMXAP0aAEJ5iGGQMHaJJkKQKiKZsMklRg7EWzmpJGgMOlv57Vgr7XWggfAuBZKNxoEpFqYhD2gIA0a9mIBHYc1Um8+SqhHFcDOh0IZRWkp/wXAVCMENEsbs5EoSomqy4PyAtLA1GxpaEMgFlAXg3W6d+q4NPItAPnQfAepSQX50ElunK7IBxm/r3o0AnKda9NlWssRa/C1VCALKIAdbTRcS53YaejUGgxrdCSgYUAmLRZfhtxCVfcR+cYmGU24Vn0xeScEtdxnAToPqismPOV04gTLM61TBHGtwddGCyOX9+do9ExWEyVgUmYK1mkdvKiDOA92vxrtCa0nbRhwvTwAp1MYPb+sJ3hA6H4kVkOUMYrvA/yM0xMYyOv5rvSIgT3Kim4PoAhSoHVvT6+Q824mus4FeLrbJjMFkF4lN5vdNAhzJZLJ2q6hBeLKhLZhAhzkPEy9iCe0dXoSwoyiZeuNCagXKfnTMxD/5Nb/X3F9uFwwXnb7/fl+cv3fX0j00/kyw49/AQ==);lineShape=1;" vertex="1" parent="1">
                    <mxGeometry x="192.28862407016254" y="127.67411300249842" width="2.55951046193849" height="1.9802025273943067" as="geometry"/>
                </mxCell>
                <mxCell id="34" value="" style="shape=stencil(lVbZbhsxDPyafSUoUedzmv5HgDi1UdcOHPf6+1JdbGpyvVPkbS0PJR4zJCd5eNs/ve6myG/Xy/nr7ufh+bqf5NMU4+G0310OV/2a5HGSh5fzZfflcv5+ep5/vz4N5Pj6dv4xbvg12/VGpQ+ryL/nk0osfw8+z/jj4XSDb41iMvhQaPzcMqiJYjEGEiiDFwoTV2OQyvLmXYMcSJoxyJlq3TZITM3GXCrFvm0gTMXGUBtV4FKMlLIxaJrWAF6gFAy+d+oZPEAheXwGDgVimyKte23beCZx91eqBeGZLb5QBiVQvK1Az8uLG/ji8qO0AvkMlNz9QhHEG6nYenU9Af4L9erxCahAo2OPR/nR7AXvf2CgMkrV4zuoV1vxIRMDvrUlezf1jfh+l893D7f8d/lplIE/5Y5eBNQ3U+ge3wBeqFn/A79TfINAeSXICggRVgH3pe1tCCBnn6AA7l81US1Yh4Jnl1DtoaAA2iBcQhMkdKBgO6gSNAMCRT9mVDANTA29La4ECe5P1MoKj2bGB/E6FZsNoGlIiECJuhvECc5JUU5bSpS4dKX7IWTfVMbkRINVe6wYg6SjG5CorGSvQm2oTUS/HASGc0azLrbOAWZ1tE2rAxUSmPTKYsdTpgAiVpW4FOE2oSp0/isexVtJssMLwq8ate46gBOj67hGB2WseDeI8dwba4zNj5Ag2fBqk0g4YO3jFo8XiTEnbIF1kIE+99H9+P94/fi3jL8cjsd5l7/93y/vejQv/vL4Bw==);lineShape=1;" vertex="1" parent="1">
                    <mxGeometry x="194.0751901631607" y="127.52672814248953" width="2.334684438536697" height="2.5524373326397023" as="geometry"/>
                </mxCell>
                <mxCell id="35" value="" style="shape=stencil(lVrZchw3DPyafUWRAM9nx/kPV1mOVFEkl6xcf5+ebHG0BKlW+W21AmYA4ugGuBf79OP+y/e7i4Yfry/Pv9/9/fD19f5iv1xUH57u714eXvHpYp8v9unb88vdby/Pfz59vf79/csheXz64/mv4wn/XPV6l26HloZ/r98Eqen/L369yj8+PN3KNyl1klcpjcgX6WWSz2JG5LPkNslXMSXyJj1N8n0YuJdXiX2SjyrKDArD3lMhSSMKrUnSWQEudKJQJOdZoUsjPrQkdT5TBEEDUTAJ8xs0SWIKUdLstMJIolBhsTOpDa/2Cs3HwYIUckq1+GM1HaHfKyTJs0mWRdkbVNKcelalMoUgGieFFMa5bRVKHbV1KhhNvpIlzCalIrEQBSTCXJ6pSyA+5C5p9iHHUbF7BSTCHIeMdCSRzjYaxKnA6yEH6bMPMJLFITWxOb1LHOm4V8jSw6wAI0mXQZhcV0JkIml7KYrNyVeKFFJA1kWdQpVOjhW5qc4HPIKYhOyPswLyt7A3oL5cK0ZqkDiggh2WVBtFu1VAj2hzE0DRdnJK6EJ9Tj60BZZL6HMul2od79wrmK84tDYjbUajx4eGYyXJh+Ze52xFt23E6Yj0nn1oStMbeBNnHwAADLIimsp8rIAYhuoxL2/INNLATAcoQL3A3mBSF4XK3rAErvE2A9zPcz0AuQOB3Yjsj16hsmONoi7SnZsE7jW/AeyDnlKQmLwCi3T3INojTdbmAQv8KVH5MHcx8DMl8ie5O+XTSMU9vkmeSwF8MZDqzKOyTnmkXWTyoXt5RjJOGnXKo72wnip1TlLw6UrssYH2p3yn5490sUWeJBDkg5dX4m/wRBLygcQrLPaj5RN/F7J9zBvU35y8fCY1jAKrizx9fl/ixYhClLg8n5EjgEf08izfIN/8+TM+uJOnHWixp3/k7/J8hmVhEIgbeebvEq8YzpR9LyGWBGWcJQxwv5Wnz/cB7jTAu4Jhc9GuINn8G0b53RYk9dch/VGQtEHomtD0fNJaYNSe0hd5ej59KRj2fCToIs/sjxt/2Sy+8Pzj/Bli/6S8SsyLv4yOLoBdqf3muSXkWUNPgyLdAiqbzcbkdgPYkU2LS/0mKl+WhmV0MKsLQOp4wjvydSFMmcg3P06DkLF86wtr7XTs6+NpN/IUAIJPOJBWigDRdyDwaAbZUCjRK0ROvHXOCVD7xBTMBw3TRmOoZD7roKBMAeOOe0Oi4zoGoOzeYBy4i9+bQoEldqx+NsbUxzIbc6U/1rP57VtF8Ds7jLqd9SIdZ3IqNLpsPeixm+8rjQPKOc3lXzPlx0e9uZVDGku593YUbslXlc6Vpn6NWE+M2CskH+nCOY4VPxQUTkoNkDQ3+VLpGjEFvyQvmaJ+Mj9XljSA/b2Nmgtc0bEM2iucsHSzs2NdIyNws0m5cyRZfMhl7M33CnnZO6bxiL1CG7Peze7U2HY2+u6dGl2rl6WA0nk/8t6G2fGFpHSAQm667m388gHZ7wJ3bCLZpn+5oTG+MK7L0I4aTAyj67LpDxQU0efUXW80ynpa8CbpmSx7BfWLFjCtD+50HDEHVWS9FYjmmHDki0qgsp+lCjep+0YGmKR3cdFfDYAbsAXZsRxybJLGradlb0+pCbipW8DxqztwX7fA1jHu7eW7nwYDBZ+35cqbPNt2HbOfv5wN7Hy6R8NA0/qYRb09bLg+lgHZy3N/6yLPyG33wBYogzlmdfXnz+3vPl7GWF5YxvFAO9FWIfMIuAUTBmJ2/f6z1/UfyuPD228Dvj08Pl5/WnD7f/9bAnx1/R2Cff4P);lineShape=1;" vertex="1" parent="1">
                    <mxGeometry x="172.77518377590792" y="107.40310687960726" width="20.18708977272522" height="19.364160289772524" as="geometry"/>
                </mxCell>
                <mxCell id="36" value="" style="shape=stencil(nVjLbhsxDPwaXwlK1IvntP2PAHEao2kcOOnr78utq2RFecdob/YuZyVSwyGpndy8PNw+73eRX15Pxy/7H4e714edfNjFeHh62J8Or/ZrJx93cnN/PO0/n47fnu7O/59vF8vl19fj9+ULP8+4UKjmBRX51/lJpJz+PPh0tn88PI32UQf7RpyBfaaUBvsglAQAErVxgVDxCkI6AmKgFAEgkpYRkKk1AAj9dQcIkxQAYKoOYF4BH5R0DJI0amABpTB+P0WqYdu+UeXRvpAAjxvJaJ+ZGNqHMaJZqID9V1L3/UpJkX0e/S2BYkX2cYxnycSAdMXvp7R+ghv2efx+tayB33fnVQvcv/Exjklm8QeUtiSro71QBvE3f2W0tywG8bcMKGOOqT0BhDOZ4HFHKiTAA8vZ6lZIfc3LAMuB8cw0UwYAMdKNSqe2SSB1qVKNHhABK4zEcQIgJSr2mj0gM+B1mqJU4EG34JltgACY1yqVOoUVRMm+V1xYY1eby4A6USPCZDBAYQ9gtEKj6AAWBnAO2rxeLyuAfFb1AmkARG8D/NXndZSQ01NJuJJAgbkHZYWAXmuvSauUQ+wzQB5lw7jBQAUM4I86k4ActYPIwQMKJpPOAOR0JUkekDC/fZQy1Mr3FF4rGYpS6Qe7AkD2lckH3FPpVK+MfQ2xr0xhjV2qtsKaogcwWqFNbL2ao3kqQYozKExOxyv0Vg+A5FPfqto5BNTbXszRinNUJ24ITrlSPAC2nv8KWFoFx42GAbHnyxtAYcpdqHLay9hWHZUZAFZYKjVPAECmNJXF1VlutRstTEuA7mFu0hd+oZaJJ25oH862RisvNA0C7Fyd3lvDAk7adG7SJcSMaa5S7s3ERXv2bX0zcQZnMGWbUVGBv+zbsaq9sd6wd21DzVRR/vsxqQa4n0B5LD02lkQYT9fWl9Tr6WUGdSl5s2c49pgcjv7mCkVefPxtLERVRLp3b2Mqjr/4u4uUOwM3+ClubA6wVc1+P+9JvTFWOVURgWN59XcpNtREsH8by0cRMo8Q/9XzeWE4utxhkpFAy3UPGvMC8cjogNtaA9TRBRuy0E1KmC53YIRseTcVhs7ZLXvXSlmOogyLfhBmOKUG8U0I9wW37F2d4e7QlqRHcfaoKi23a8Hbo/1Yv56dPSRE9t0yQwVa+OXtURdo9k4SAyX8fTfD46bxP65Dr9jbj/e71/vD4+P56nb93t/V2qPzPa98/A0=);lineShape=1;" vertex="1" parent="1">
                    <mxGeometry x="172.6050926089623" y="123.1362782700779" width="5.242420862578518" height="5.211650755921558" as="geometry"/>
                </mxCell>
                <mxCell id="37" value="" style="shape=stencil(lVnbctwwCP2afWXQDYnnXv4jM02bnaZJJ01vf1/crZwVso+bt11ZGAEHdMCn9Obb3c3X21Pkb89Pj59vf54/PN+d0ttTjOeHu9un87P9OqV3p/Tm4+PT7aenx+8PHy7/v94sO5dfXx5/LG/4dZFjkroIRf7dF7j9XXh/2X5/frjaHinLsD1Q1v3tmVIYticKeX97IRnfninX/e2VEg/bhULa364U07C9EYOzh0CpjbYyJXD6kKiOCkKkFoGAUHLeLFSAwcFMGKMVGhVgssUrlUHAAibA6CUETiBTQ4DQHtFVALs1RZLRrSl0lGwLCMU4ChgskIB6TKdKGcQhR9IxcJk7VrYFCunoJXtFBV7Kjep4JHsFC8iE4LGdKzxSSR05q4BSAlgqU7ItOtGRqtdgOv8dcltAPbxNZwAaJBCPWCpCCrAkhiUn0KgBaEjuFWItGVYAATTEElJHgQjdKpV4RKskUgANaZSchgJzWpSqE6gQSzVQHKuw6SzgSNXcOnqpMgUQ6Zr741XAygyIQy2ThoRtMPSPGWc60c1TDQgjWk0nikNjymNdMp1IQ4seraZTwf3QLEXHfDCdCYCvWY1wN1bopW1bQDyWTCe6zlvtt8EqkKkUIGBudTYIMYh00+71VcDqCMCSWhEYA2evQBo0evApQ9qgyQfOdDZgtAnoaLRiHqO5v28VyBSR0VMxthWoQSiP0FAcB60UihcQkHEmUMfA2Qq0Qam5Ix0ETnu6XAmg+2ERUC+QEOPbEigg4zaPVF9rNMSSevqz6MQCZazegY2j4zOlyQh0jS5un8+E3eQzyKxGR2qeMC1+QPhu/QBXAhm5qXkOpytZ3rUheAF0yS2PnYbW68KeQFQvgLj0YqJMAgdgmo50oKFOR1LsJX2tl3TCEorDFZqvQ31QBsQLQDCp5wJHcDU3zRmEE6JMGg5SLo9G/0dWxwngB4WDp0g07KZXCtid4sDROvvdu7WKC3WFrZzdgq5vWm4tdKQyVSZ7BTpS9i21rVRMBtJEBlALYfwku9oXIe0zNuK9xJBY6kRdjTJB6jqhz0gZgqvRPteOGu1DF2mb6MZCZpGG4nPUqCuK9AtRXQUiLDQvVPiKfqOkNrLtNFRLc3CkOtEN6wgQ/a5T71cFd2biSZl1NbAzK348Y40Won32uDgNsbODvWbR936MNbBnQKKQ69rjOGacNbyou7THjn6LwDjYY5dAkiG8ZerMJFJDk4rJrRJ6huyNNniExjJOQQLcT7wKVNjKLaMSNzwpfYC5NwBiN89JPWn3RkxhGjGhK6tMKZoVUqzC3oZcIWPKrZfeq0EcGoja4zzGIadePPeGidkN4hjeokl7W7WOK1tH17ZA6RfUKlDgtZssRUcbUui0bnuo23w7uqzgsbGfAhfYg8fg+6aIq3do3uiAiWgoHhpBYJkJycfBVhL6QMC+zNgKcmvrreR6AcFpjnjuIzg9fXtSYM1LnQGvmOitwbaxntavmNrczhT8ZyU0l2V/hzA0lT3JY0gV2Hd6DK/xqR/hPmv537ejmYRtL247muuzp9gMQcw+07lP03a2x+a3g0LC/osYblkmWnq0vUzboWde9eXycLv9ePlI+vF8f3/5xnr93H9UtaXLB9n07g8=);lineShape=1;" vertex="1" parent="1">
                    <mxGeometry x="193.71531675317874" y="105.53034578043739" width="21.918974795212268" height="20.594464772058807" as="geometry"/>
                </mxCell>
                <mxCell id="38" value="" style="shape=stencil(lVjZbttADPwavRJccs/nNP2PAHFqo24cOO7196VqyNFy7THyJlszWh7DQ5r04X379LaZhN9Px8P3ze/d82k76ZdJZPe63Rx3J7ua9HHSh5fDcfPtePj5+nz+/fY0I+erH4df8xP+nHmlUA0zS/jv+R+mmv//8fWM3+9eV/gaiLXDFwoM8Lo8bsGHRJoAIVGuHUECVQWE4k+QBk9oTCwdQQulCgiBWuoIMVERQDCnuSMkpdYAwWLSOkIOVAogZB+lXCkGQLAoxT5vkRSdUKn2USqNAnK6UepPsNwLMqn5sFbzCkQpsGWuj2ttS6RvHRF6J5pQRoTsbWqRGtLGoO+P1FyXa6PsTCpUECGS9BVnqVEQVyvpzAMBpLowhTAQQMmZOF0FGUHACSmQxIEAxBTDIp21SaAvabgSJVTU1ufK4ENB6vP4lRxvEMQd0KCUzKDk8RXkmZekrvAJZG3MslVHRHgeZFSAv4ZPHi+gD/Nyd1UIFdqTmscnEJ9hUhleYb7SUJhIo0IcBjwQkFAc/E3AHvFDZI4PsEcHe+pSE7fwxeNR5xJqg97QQJChwBrMl5BGj0fN3daC6vENNKFA2uPvFTBT48EgWMCxeXzGBTk4IPD5Y9etsMBGQUTob3AJLjCg5u+Az7Bh+YQVuKiF5e66wEA8P4s3g7JTXIIO25AJ6gmoJdoYC8MJCnrElUGZKIAYzaOYPYHBoLRhz25hsQ0HrxNRPSGDKNnal4snoEFQL6vrhaCwcOx2cZUm8C3EdjJ2uykuTSNIr1XbTVGUjBB6k+YwIIIpxy3kDa+mlqa+/G2DR/NyjlJfD/aOgPqXBTH20sgC17rGfvlNEa4gFnXXkmKGM9le7tyQUrw42rbsmrby8ojrBBneNwX7wEvTvcwREwvwodRFmxdpwLZnaXXqNnGjirZydK/YcE+Y8erw8Y497PAMetgsyz5Attki+5OPDy86vIWP/pMFavOGL8XhkSJK9nMQrwmGTwMeNVTrJNnh0R5lDVi9v6hmxvc/25xRfj/5Ceg+3i4+vje97Pb78+eq9X3/fcr+On/b0sd/);lineShape=1;" vertex="1" parent="1">
                    <mxGeometry x="211.46462503218766" y="121.13999032901077" width="5.499546728443471" height="6.067799401952714" as="geometry"/>
                </mxCell>
                <mxCell id="39" value="" style="shape=stencil(lVhJchsxDHyNrijuy9lx/uEqy7EqjuWSle33AaOiPAQ4PdZtNAI4WJoAGjt/9/788LbfOfN+Ph2/738fHs/PO/9l59zh9Xl/Opz5aefvd/7u6Xjafzsdf74+Xn6/PTTJ9vTj+Kud8OeiVys507Sc+Xt5YyiV/y++XuRfDq9L+UTtv1E+A3lLKd4gXzKlKuRzAPKOwmiPJePW5XOkWoR8jOvyqVBIgzx/0AB5Q8EO8h76Gy1VP8hHCnVdPnhyoz25HzCV97GH4+ovBwgYxOd5oRCogAxwguKYYVs7RqYKfJ6AhAsdhHMMUR4hwW9QzjjFeUxBJG9BjMiNkAiWPPDY9nhc5TNFcL6VEI0YE46sgARHAMh7KmN8UuwRnmNUxjPb/sW5/ZzhMaA59ZDNFSLZ8QvFUAWQaEVhRHUJVIEL7IMoE6XAe+k5yWNQuTIhUARDZvxC9d3IuUKiOlbSylcZRIlREEfccXEtSKH2IF4VMgwr4yALhQJ9yIbKWL24PyBocDm1Rip44EPmNHmpgBL3gZylSaBCckcoWTpdAJZKUj5kCI2SZMFgBVTxWCGqxFmQh6KuaFNAbTCTSUoBOa3KfPMB5SFPfEBFoHXyqMKKFbLKQ8QmJeV0Qonj87xUyChxbLFSKNgko6CxAb6inC4YGtoH1J8bWhWWMsoD3werwopuXCKjE4e+wB1amRSw0xreHofVKR8cVpB1iS8QjpJGK7yiSY4l23fahZtMynJW3XKa86ruNJp89HS+lbjc2cRnoZFVU9wA380KftaBkEm2R32hUECZaT1uBJ81pl+RuQZPO6rvVtRGTZ84FwoZNGoeBWS9rx1ea8NGEPgukJlE1ye2JTZAceWByQp8Jxglr7hqDXA68U5VAQujxNRBcBkeKzPAN1MdASaubejKWd9HvKuChY26Shd49kY3Lkrs8XDvgLzr2F+QB9QSmY6P5zNQUEc0sjc08gP8NZIsMbkKKKAynkze0CzG5HO0h8khHJQU/699JlhLsB/LPPMzxNAZQn78gi2d0K1xH9EXmFGjEPkguyczOjQnBQaFIHzwJkerGDRkb43IiCT0EXxtCSO4mMUFOMrebKA9TBkEOTSYk6i+afrI9OklGFpSzZZsBp0/WeKhQto4mlyybZwveizLg97x0YsW8gDRrZ8mGU9UE6tsNQZvnIyqQoY8CNBcAa1FJxahKj3zON4Y0YQzLFY2BlbdGSLgWvfWtfGmPD987KifDi8vlxX38n+50+ZXl324v/8H);lineShape=1;" vertex="1" parent="1">
                    <mxGeometry x="181.31580169509854" y="10.430563309249052" width="4.395269686219933" height="10.339983463376555" as="geometry"/>
                </mxCell>
                <mxCell id="40" value="" style="shape=stencil(lZfLctswDEW/RlsM+CbXafofmYlTe+raGcd9/X3BqmxEUL6Kd7KMI4LABUBO7uFt//S6myy/XS/nr7ufh+frfnKfJmsPp/3ucrjK0+QeJ/fwcr7svlzO30/P8+/Xp2pZn76df9Qv/Jo5FymFSln+Pb8xxO7vi8+z/fFwWtjHQPW/pT2TKbeBVCiUDrCWor8N5EjcA85QMbeB4sjmDvCWEgMgku1XCJ4CAhIF0wExUg4QKP0KKVG2AMhkUgfUMCSQB0c+doB8Am06evJWA//itg4kstwDCeYhGfJFAxEBEsSoAY+kIXn1GnBAfDnrxNUVwKZFSyFpAGpJvsc6rKiAitRD1oBH0iiUiwag+DI55VIhGwHgqWQNoMQVJps0kMEK2VPsM22YiUFcUx760hbhyIR7nIoS9wFA25beZ/wQWJAJKdIwFGkGAhdgzDUSRxyaZZUfAgoV1QawwJPXrWyjhDJTGkoIFmls8+CDbaDYJoRlo0ElNDT8jVYmeeWgw4qa5UKcH+zH9xPSwUuvpq0ZIVXX76JOITTcvXapzjm0gqXQp65OUpC6IAXTAzKr0WAMhmLvkrMtN6uAFwf6Tct5A7UBx7qE5ESTAMDke32LiyCoQ5oNOSA9bkpu5tzqb9Xc6rOP8MDc6/4imwG+D5OE2+lvXdO2be3dHgnUSOVr71GLl9CpU5LYg1jaoMf//1yv25fWdxb7BWoWKaohxe1Utm4ftPpFaSD89x7Ot+3l4f0m8HI4HueLxPJ/fXOQV/Otwz3+AQ==);lineShape=1;" vertex="1" parent="1">
                    <mxGeometry x="186.36058109960513" y="14.630754577576859" width="0.19007145592817665" height="2.6421353975090582" as="geometry"/>
                </mxCell>
                <mxCell id="41" value="" style="shape=stencil(lZbdUttADIWfxrdnpNX+XlN4D2YIjYc0YUKg5e3R1mOIlkSd3vnv88pHR8c7yc3L9v55MwV6OR0PT5vf88NpO8mPKYR5v90c55MeTXI7yc3j4bj5eTy87h+W8+f7/mQ/+nV462/4s3CNUEKnAr0vV2JCan+v3C3Abt6fAxmlGCAJWnWAhsoGyIKaXSCJAUoEeyUltGyAqis4QG2IFmiMFh1AVbIltYLE14FCyFYlJgLRdSITJNolGtiRKRGq7ZzqQE4jooBtI2oFO4BUkAVK84EMsrrmBhIHKGMjUkV1VIphXCGqW5zO6W1pFggITklaQK4G0CKzs0KuaMkCGSE53lARrZlU6OB8dG+TXUFbGfyBoGFG6V8zykPjCLFcB87c/OkNWoPh8hI6MBbQofJa3UdysGtbX3FZJh36YUg1GJySeqzYkr6i53KrBeXbjFYnBjQa6wBofHozmhCHoVZZHTN1QP4HkDima09Dx0whrm7+BBKyE0yc1rQ+i43ofHRBtW4tDHHaEMYwzrym7cXn1ar2AxKvKXLteWuLSODg1ZNsYgRfUc0TWz831xQcR4GYkZweBxmBBHEmRz0x/Bm0AY6garpBofHfpgdfO47HebdbNizn98cdil5adjdy+wE=);lineShape=1;" vertex="1" parent="1">
                    <mxGeometry x="186.38489792202222" y="13.214406455816942" width="0.15716392126486767" height="0.1576460476002879" as="geometry"/>
                </mxCell>
                <mxCell id="42" value="" style="shape=stencil(lVlJchsxDHyNriiSIEjwnOUfqYoTq+LYKcfZfh8wCqUh6GnZN3mMHhJbY5kDv/l+++HbzSGF70+PD19ufh0/Pt0e+O0hpeP97c3j8cl+Hfjdgd98eni8+fz48OP+4+nvbx+6ZP/19eFnf8PvEy5S4A5K4c/pAVMt/x68P4nfHe834pVimsQTlbwvHpmCTvKRSgXylXJ18qHty9vxNU7ygUoC8jped5GPui/P7PUNFAKQr6Tq3w/0zYmSf/9/hZ6XLxS8fYSBfPPvT9C9cnbPkM+k4D7ClGSSryRAX8kU53CLkaJAQAkzQIiRBgaYI8JMmoCJ+pWciYQqApjOs404jks+D0gUZx16mCAdAuU5inKmBE7ISjLr0F+B4qJQyjOgEKNAZSrzlUqkBnTIgXT2dDHuAACzSZ2tVO0EEBqciR2gkCCA5dbsOLUniC0smGcraaaMAPbv+Upa8QmR0sxHLcBYiurzoTE0ayxU3QkyOGHvhOwA51fs6VBnDmjmaVAUUhkctAFkxKrsq0IHoPCO3nEGQEpbugh7QEAk0EjUW0mB0kUpxQUAzGrBHBezBnCC8ig1W6WBDtpGfr3QrE2pOR101PfnAc2nqAFQPTRAYQ9gkNMG0OoBBVQsA7TmAQ0EXwc4TzcYS/1K2QMEX0maB1SstKu6/ZLoSko6A2LAjYwh8noEcrX6zqTbASlRPRt352OAFA9ANatH82LXgAGeNhS2S+3M7htAvmKlJYMSOkGHitsMwq72ZlWsdBsd8PYExAJt4UrTAbOALiwgOIPaooOiqniJ5o2r4xUaWACotPfgXGigXOG+NSFwbHhmOnPVHsDVoBdk9SsRViN0STpYVNhPWD3pQNnqdW6JDgUB2yvpAoBDzZlXtgA0dJyHyK0OqP+OywltDAl7HY0s4SeoySpLYWxwUuyd5UqvwHE2eq8ANJrF7KcUo0NUIiIvvWuB07ed4HMuU7jS7Dod0iDc5wHND04W8IjAbX72I0GBNGDDpHOcZUhG3bH69qHiboCTnyGqwCuxjJ3NZtJCnmb1o1kpoyPfywdXeW1ahONl9vwtAkmgD7CzWQUTmY3Irp22kRb1J7n51ZJNqHDMXyZeNqVBTvdli1tVCOxdJfnuoe82EJFFX+Wi4P2M3Xg+IcZRMnZXFS68YXTnpSoWWE5yJZ0TNEOezEI8y1u2oYVaHPuty4JMwP156Vrj6FX2iN4tWuJQaC/7Wdx9ApLnJSRG6u2xvIuIBHuMztneniiAqt8FYHdZBsw8IbjP88EjI+V2xEN+xdvDWPtdxFGFtcgvThxZJiwbN2KQWMEvzgVS9NL/5jGqv1S8gLq6XCbDpAqemzMs88GPmgxDMviZC/P4Kz9wXBW3H5dvKZ+Od3enTzHb//tvL/bo9N2G3/0F);lineShape=1;" vertex="1" parent="1">
                    <mxGeometry x="188.51882519594326" y="14.07610959535782" width="2.72584638695119" height="3.5540066899993263" as="geometry"/>
                </mxCell>
                <mxCell id="43" value="" style="shape=stencil(lVfZbttADPwavxJc7v2cpv8RIE5t1I0Dx73+vlQF2SIlTZA3WR7u8hgOqV18eD88ve13wu/Xy/n7/vfx+XrYxS87kePrYX85XvVpFx938eHlfNl/u5x/vj6Pv9+eBuTw9OP8azjhz2iXhDIPVsJ/xzdMof9/8XXEn46vM3yuVJPBC6W8ja+BOBh8oYDwzZ/fKfA2vhWqYvBBqKdtgx6pdmvQKBZg0Cg3G3EmkW2DwExscxojSYNXBOuTlgUaCBWb1RyoBZCmSMWmtQRcN70hG4PK1AExivLGpql26nHbIFXiaAy0lh3EENVjG7TWMlcQA5Vi8Z0a8KiQJI/vgBmJSrVMuld+PQIKcXEB4GqgWj2+Alow1cX5GRSZV/wRkFCNzvaaErdDfFrgC8AHku7xCXSaalf0eEGUW/E/AHymwgs88KdOUjX3B+BvwjOPF/DnVp15PkF9lS3B46E2epEY+ADP5+bxGeSzES/5DPhQVviMJEV12eb/44YsywuAQ+J1elAU2MC8OL8APE+qP8NH3JDs8QzxsmgYVACV/OzxCQwBWRCiwTn2abwKvutgoQYMYpv+ng2ZiCikc9SmVMcYCrmkaZ+ZDcoCbqiZ2Ha9jmK0Euns7jZodbIgWel+UA7rBJisXR2wjakLC8qS3lBt0Np7aJ1oi6B160KjTPdAsTeEOKnxugFP0nlfHDtIUolefOuUhC1iuCpoWZC0FMpuz5w21XV89otvoAyWD8W7YRPgGhuTF1MtOpAixTttZLydJWri8AX0jfrvtE4LCPKv+N4dXtD5t2Vy9mEDGBrr8nxG+O77Ho+axFNHzfAgnylM6ZjhQX4++yH3MV4f7l+NL8fTafzonP/vvzL11fiFGh//AQ==);lineShape=1;" vertex="1" parent="1">
                    <mxGeometry x="192.470164623642" y="16.130486976347093" width="0.7226265496191218" height="3.726147023751132" as="geometry"/>
                </mxCell>
                <mxCell id="44" value="" style="shape=stencil(lVjbUuMwDP2avmpsyzc9s+x/MENZOstSppS9/P0qE5zGcjiUtzQ9iuUjHUn2jm9eH+9e9rvgXs+n48/9n8P9+XHH33YhHJ4f96fDWZ92fLvjm4fjaf/jdHx7vp9/v9xNyOnp1/H39IW/s10WYj9ZBfdvfuMozS++z/inw/MKXxJF7vCFOH6Mr55cj/eJRIBBpNwbhEAZeFQrpd6AHZX6sYEECrkziI58AAaJuF8hOXJg01KsS0lIEjAQcr1LGpd3JzcNvFMPXB+HQgX5JFR7A2VawBKivIbOQJRXhjTVfhOiK4DIiafcu6TEoRVqolJ6A2npuJ2tlXLqs+9C3LaFI3Z2iQTyNXsK/RJKHINdJ0819gaZMsjXGCiK5bUCA2YrIU35CmgKqWl+FeoADHwl369QCzngkndN9IsBkwCD1AS24DUwQEGuLb/IQQsViMIon0QB1ACtEMniHcQbRovGDPivZTJZfAHf91ScxWfw/dDYWONBuWByMuCBDDTlyrBfoLNIfvAfVaNoS7Dy78F+t/CoT6k/3uITUAA3ya7wmB+73wT50XiFAY8aApXB/0/yLVv8e239KJ8Hf1D+bOklAr1v6hHji8WjAqTVY8hPAfy7xt5aj5D/WC0+Az4D+cGfjEo01REPvs+2Z3zi/1KNr+Qntuhcyf9X8dKq64KX1ja3+V/K06rBoDasEaumhWVioOBQW9NdDHT4ABRxHrqqh5qMySa1MFU0SkQ7vOsMlgBLme30LrhvF291o9ONRwalpdnKIINGVjWzxRpEwJJOGibSugfUuqcx07CEe5n+HcwM6CijUVlrW8/SNFujeT+1762ndySHaPv9dHBDm9aGY04UDg4sukXpK54ecjw62RU77usxCp1ZlBMzU7CDLNWhiUxlEA3v2VY9n2Fq6LRvZvECq2qOlPoa4KCiJ7wzeJR5E74YfAL+K75YPCP/kx1D8Jyfl3JywaOTcs52rMAHZcWbkwo+neVF6Vfji3zFnzrehnhQgBVf7H5RvqloB/4ZSOartzOf4/XhchX0cHh6mm+S1v/bqyN9NV878e1/);lineShape=1;" vertex="1" parent="1">
                    <mxGeometry x="195.20636641245147" y="13.430788795275063" width="1.4483909530211463" height="5.156444730178876" as="geometry"/>
                </mxCell>
                <mxCell id="45" value="" style="shape=stencil(lZbdUttADIWfxrdnpNX+XlN4D2YIjYc0YUKg5e3R1mOIlkSd3vnv88pHR8c7yc3L9v55MwV6OR0PT5vf88NpO8mPKYR5v90c55MeTXI7yc3j4bj5eTy87h+W8+f7/mQ/+nV462/4s3CNUEKnAr0vV2JCan+v3C3Abt6fAxmlGCAJWnWAhsoGyIKaXSCJAUoEeyUltGyAqis4QG2IFmiMFh1AVbIltYLE14FCyFYlJgLRdSITJNolGtiRKRGq7ZzqQE4jooBtI2oFO4BUkAVK84EMsrrmBhIHKGMjUkV1VIphXCGqW5zO6W1pFggITklaQK4G0CKzs0KuaMkCGSE53lARrZlU6OB8dG+TXUFbGfyBoGFG6V8zykPjCLFcB87c/OkNWoPh8hI6MBbQofJa3UdysGtbX3FZJh36YUg1GJySeqzYkr6i53KrBeXbjFYnBjQa6wBofHozmhCHoVZZHTN1QP4HkDima09Dx0whrm7+BBKyE0yc1rQ+i43ofHRBtW4tDHHaEMYwzrym7cXn1ar2AxKvKXLteWuLSODg1ZNsYgRfUc0TWz831xQcR4GYkZweBxmBBHEmRz0x/Bm0AY6garpBofHfpgdfO47HebdbNizn98cdil5adjdy+wE=);lineShape=1;" vertex="1" parent="1">
                    <mxGeometry x="195.564898227198" y="11.83440729505034" width="0.15716392126483925" height="0.15764604760026657" as="geometry"/>
                </mxCell>
                <mxCell id="46" value="" style="shape=stencil(rVlbbhsxDDyNfwnqLX6n6T0CxGmMpnHgpK/bl6ohe0XtjlGgf86GXInkcPjYXbh7f3542+88v3+cjl/3Pw+PH8+78Gnn/eH1eX86fOivXbjfhbun42n/5XT8/vp4/vvtoUm2X9+OP9obfp31mEptSp5/nx8UivHvg89n8ZfD60I8kPhBPFFx2+KZJA3ikRi8XSjyIO5JwNudpzrKO6oByGcKMshzN2dVXv/ts5H3CcjH7rurPDOQr5StfKjA+Z5KNPYW8P6QKY3+CZTA/YNYf2ZyZVs+eusffQEIb9Tou/H+kQIIcEzkTYD1BHSj1AFwQZCagK6UiUdIqJMziEE7YUwY9VoCoFOFMF5JzyzIBkXReKWkfgNhixrVMSkzU0UKnsKYllmzHhnNNu1LII+Qqj4ZkVEqhQwUKnEZFGqAVNGwPbq1FmJ0pURuDJxw99u6gnLdCD5RR+P0rCO8RcGH8i319y0VADTUrd4oKLoQlgKVMdISyaOMEwpjpAXnQ0qUx8CJIwfcmn038RI4gSyWlSVHt1Z9AtxaYn/fAhoCTqhKu9EqRJDTdcppVfCosPEKWh3IB6m2Ljd4A7eKTG7F+aAKhjWaDQBLqlDEKiRkg5DkKQ7ABseXerkIdcBWG2JSBdSQNCOMghBjI+KkcONKnKxCRH5VNOdJQaCCYYF2JaRQpkAIRl+ZvFRhRVGFJFYBGr2mwFihGBYokJia0ckqoBLU3DplEOod5EJDy5QDtNGgMfEMquwNfJPRHjBZg/ekEPEJMilUcMJ6jjqEvpkGag/+lkKdThBshGVXwXQsthdoKYciVyfuk95b/ycFrRBTWYwArlqDZmJCdFznGiS9yGzVURlt0EuiCpHF9vfaC6Ck1l7AwFW7DYe6jdznhUVPlgGWEtv+vnVMqNWNNg5KJKif0d6YR7fKpWHZ6lxNgVA4ZtT16RQ8XmmRhOsabAdLPcIDI3RwM1SmVqM+MbAlS20s0aweHCVzJQ8rRLN6KloI32GavmsmD5Ja22/j1+p7I7iuUOwJpcBRLkxdXFHEo2GRe11eTGYog6KzCZEZj6PTzJ4CZAEdIXi0QefXDMDXxlEzUmMma0PKeKW26MBXiqOCTvkRXWlaFHnulXXLrSaBnNIGOoGn1Ya7OfCaEgTbSgWrDTRsHTTfTGGPsEdsx5uodaBs7boMY1xYamuXVu0uCq1+XOmj82J1CPzjgt2NxRuzhp0qE5Svfc6+ur8A96RpooQA9b2DujI8ObTJpJqtPIqWs4tAlYfe743v8v0gulNw2/0BkypHmTJOAsWnPWMG1s41H9L63NCSAPZZEc8AODznOYrUZcN83ccLAAL3vd1VHK1G/nHbf1Ncf1w/LDwdXl7O3yWW/7cfIvTR+SNGuP8D);lineShape=1;" vertex="1" parent="1">
                    <mxGeometry x="197.81360762744987" y="14.540562829570646" width="2.8527654716273787" height="2.7936655026010158" as="geometry"/>
                </mxCell>
                <mxCell id="47" value="" style="shape=stencil(lVjbUhsxDP2avGpky7bsZ9r+BzOEkiklTKC3v6+2qWEtJ4fkbbPRse7S8W7k5uXh9nm7ifzyeth/2/7a3b0+bOTTJsbd08P2sHu1p4183sjN/f6w/XrY/3i6O/5+vl0kl6fv+5/LCb+POCHOCyjyn+MLppD+vfhyFH/cPa3EKzUZxANpPS8eMpUwyAuVfF7etLc4yGcSBvJKOp6vlMH5kklHdwNTAv6mRDoaFIQq8DgLtdGioFTbeUARkjYAYoQ+qP2tI8CiICBngdglwXSiJFcSB2gUgUkt9Sx1QMqUEKB6QP6gkJiJHaJSUKCiURrjWhK2qVCuYy1xP+I0IPre0YKbp1Aa42qpEeCDtl5rb4BCHGFtuPqujRrQUIqvjSYUA6jvSnWsvoadTrUb8AYwr0AeDFCqBzTgtAHiDADFlKwjXY++l9c5hMikAtRGKj5zC6BAQI5TmLCGOMcVZM4AYQIoiqtpmJwuGPB/lq4AGdVGIZ1MSqBcLQ+RJwAySU8UU0JRsqmSr9JQ/dj4yAdriMkHGKVGYQIUMPAXwOQDzHQjnhJXsdPaPKChBqo9iJf2g/qxcUGPuoF/AYJno1DqSo/7paOp9EW7DizuiDAFVtG0PAVAFGsxaSqOjCfTdYBsJrmOyJAzGQWKTkOEA7xY1Kc1p2iRqmcP1UwCPlTxxWSrOqLdPjWpkQFGdEM8NVZMRRd+MmpYCA0CTOVtyzuCfrA0uS1nrAyt6vZGX1a8D5WGRT2NPhizFLDltHZyseKuGcxvKw0dfTB23MCwLEx54t+IilpMQhnnTMUMyHiiuzSlfsTpW4pdyvzsIwUa7JbEo0naWdppNm11MPqc4UKxO4+rpARpaPGELEJ/2V83LCXAGruhevEET2cvLiC90z2D4Q3UxJsTjyAy7Ekb91V9RjwnJ86gW9hzc+57/XRa+0RbiYPWCn2vrMTR3Xz+soBOj5TkCtujZ44mDrJ65WeOD8Xt4f2Lyv3u8fH4QWb9v/8CY6+OX2/k818=);lineShape=1;" vertex="1" parent="1">
                    <mxGeometry x="201.18075210839152" y="10.61057055196207" width="2.0952459240330654" height="10.539255382929042" as="geometry"/>
                </mxCell>
                <mxCell id="48" value="" style="shape=stencil(rVjJbhsxDP0aXwlJ1HpO0/8IEKcxmsaB425/X05dOSNy5k0C9OaFlLg98lE7vnl9vHvZ74J7PZ+OX/c/D/fnxx1/2oVweH7cnw5n+bTj2x3fPBxP+y+n4/fn+8v3l7tJcvr07fhjOuHXRS8H4jxpBff78oujHP/+8Pki/3R4nsmnTLUN8p5SWJePlbIf5ANlIM9Nnx/JM5BnaqP9iWJelw+ZWhnkC3EC8o78aH+jAuz3xh4fKIGAVmpxlE/9hOUEEPMYT0cOOMDafgloRgEip86XjHjgMLU6yPPVwpXzyxj/6GGCo/Y3FiifKY/yiSkAfxulMT6pUQD5knTmMWE5UgUX+ExhjFCRmkIZcBRHk0rqSVlWkL+VQqOIQCMlM5pUmRihMlFJo4LEuYCseapuVGgQBtIn/HhDk8oCdZ0ilRFoLfYwLBeGJzd2liZeIYVCbvShFQi1EnSva7Wjb1mh9CDOFP61v+VmITFRJjWItipgbEahAoVKwSggH5rMi6p9SKA0Gnd8zcLaQPFNf6uwJjhzpqgHrYDwIArR3MCoaVRTfLjrTUE0JjHAgyjEZBRA4kShsHEaVKsoNGMSgqh3zgAiUd64omiFguIqs8bYhJqrKKSqFRqOazCZawBykmpdfRn2man8P3qDBsSGD6Wf994oFaqmNgrCaKFibkCsYbrBOJ1QaVRyxmlYrpXYYhQBoupBvQ05W94boGZ7A65Wa1JEnUzwYACUUPG1hdLIH1VABHcyySCu/leF2A2YTRTE6d+YwnxmgVqSIadNap3grI7RsTRmzXBtUgdzRUNcIFMxCmhoFd/H7CxMGTHjZLpAgQ1fmLA2KUPmKlSbVSIi9CFmw5gChFx0mibWK0SWmWvUoBbminilLGRB3cCwk00b1hhWYd8Icl6qeYSc8HsPOpmPus/IBhHARPHCycYbZEdpIEqlezhbgmAaNG+dMg+XPvXIMC1xwGOnt4dpSQQ5MMRkYwm9rsyzJRfNQ6+rTiKAOC5rPulbJ+4r8Vfs0OPVRJZQ3Y8CBXCB1FxWs62P07WVUq3RGS4mHPSCGOErBlfNF7gTueWCK5pwB3JghqSkO7yDlEqWQ8UuXOcna/JJP5ttLJ+q9+LxkYNeVjfOD7rzbtgf9PC4PgmsyRd9PgKkyJv4B5AvkVfPYK5X+Pvlsf3GHkQpJn91fhOarUHvIa4DbjVfH3l23ZaXD29vvA+Hp6fLE/H8f/0mLD9d3pP59g8=);lineShape=1;" vertex="1" parent="1">
                    <mxGeometry x="58.19835831653786" y="5.8705627110940455" width="3.165918480934053" height="10.344339918042003" as="geometry"/>
                </mxCell>
                <mxCell id="49" value="" style="shape=stencil(lVfbUuMwDP2avGosy9dnYP+DGco2Q2mZUvby9+tsxlDL5SR5y0UnkY6kI3mQu/f949tusOb9cj697H6PT5f9IPeDteNxvzuPl3I1yMMgd8+n8+7n+fRxfJrv3x4ny+nq9fRr+sKfGcfGkDETzJq/8yNDyf1/8GMGHMbjFSAncq19IjHAPpKVxp4TTbffAgJJbgC2PPEA4CmmBiAFgELw9XUFuEgeueTJcAPwmSwDgNMuRUMBseQotH9ITEYgwLUspUweu6TyNkWVIECxdFUrNxG+punzD4lS+N4+UsjaPoA0cAkhaIADDllH2WmABaxKItP9gQHAW3K2AwCXQiAvHQBUd0yUuYsB5C2V1z1LESRadO0VQMTFKl3iMmo4U9vrE5CJUQyFVtYAAYDSXpqlXIm+nbhYRegKEED/OEsxbgHYXNtrpUtcRKgDoKBzTetKVv2NPKO0hU4xcF0wU+wEAFWe5dorK2tbhFzSANQ9k7B3pQr7kylvUoBYVDR2MQBA8uR7llC7WZJOY5BOTsNkkxBvBpRKaklaHg1h0/DxdZatnG5eK9LC+PS6+xfmcxkk7fcXFgCnCVrYMJz2Z2GF6SR7YUfqxGthCWOdL7zkbdwhmZxX5gGYl/1OlLkDsbLVOmqgqPTBGmLEvSUblb1BGiSUtT+wV0It3XX2Ifb8IH/KRqGGK443RXL6+4jPoiYdPyhfRWv8lnLYfGRZASgXXyek5/FwmA9Y1+/1iao8mk9j8vAP);lineShape=1;" vertex="1" parent="1">
                    <mxGeometry x="62.94056449180519" y="10.010819068205429" width="0.070754332429658" height="4.163652332045146" as="geometry"/>
                </mxCell>
                <mxCell id="50" value="" style="shape=stencil(lZbdUttADIWfxrdnpNX+XlN4D2YIjYc0YUKg5e3R1mOIlkSd3vnv88pHR8c7yc3L9v55MwV6OR0PT5vf88NpO8mPKYR5v90c55MeTXI7yc3j4bj5eTy87h+W8+f7/mQ/+nV462/4s3CNUEKnAr0vV2JCan+v3C3Abt6fAxmlGCAJWnWAhsoGyIKaXSCJAUoEeyUltGyAqis4QG2IFmiMFh1AVbIltYLE14FCyFYlJgLRdSITJNolGtiRKRGq7ZzqQE4jooBtI2oFO4BUkAVK84EMsrrmBhIHKGMjUkV1VIphXCGqW5zO6W1pFggITklaQK4G0CKzs0KuaMkCGSE53lARrZlU6OB8dG+TXUFbGfyBoGFG6V8zykPjCLFcB87c/OkNWoPh8hI6MBbQofJa3UdysGtbX3FZJh36YUg1GJySeqzYkr6i53KrBeXbjFYnBjQa6wBofHozmhCHoVZZHTN1QP4HkDima09Dx0whrm7+BBKyE0yc1rQ+i43ofHRBtW4tDHHaEMYwzrym7cXn1ar2AxKvKXLteWuLSODg1ZNsYgRfUc0TWz831xQcR4GYkZweBxmBBHEmRz0x/Bm0AY6garpBofHfpgdfO47HebdbNizn98cdil5adjdy+wE=);lineShape=1;" vertex="1" parent="1">
                    <mxGeometry x="63.44488975857007" y="6.734405959906297" width="0.15716392126486767" height="0.1576460476002879" as="geometry"/>
                </mxCell>
                <mxCell id="51" value="" style="shape=stencil(lVfbchoxDP2afdXYlm96TtP/yExIYUohQ+jt7yt3x2Ftw4F9M4uOLR0dS/LETx/bl/fN5MzH+XT8vvm9ez1vJ/4yObc7bDen3VlXEz9P/PR2PG2+nY4/D6/z7/eXYllWP46/yg5/ZhwnSqagnPk7fzGUwv8PX2f7/e6wsPdMzjf2TJJu24dEURp7ayi624AoZNoD1CMHACmQbyNwGpO9DciOYhdCIgsAog7kBuATBQaAQLl1SWmQDACZrGsAUQEgDaIstbSmSGIgwLeA7CmgoKVnSWnwEQI6JYmeICDTkYxtAUIOaEkBMgAMyINqKXQuZcpIS1w5WQAiCDrlK4AAAJmrEJYAEEMW4jAAkJY8mQGA7oPoFR1ZAokr0hjyAC+Q1P0WAEbyzv2dVgAMOhAPgIQA5oqWBEgjh17e1hgy4MplLRvrEMmTDDwhp9JnLX0wbC0rIawhVu+cHYhFqVOAH1xC4oia67RGfsn1HaIIHNEaKQ0noKC1Q9jhBHhJ03AjcBkQV0vjg4VGIoWRJSCNwjoPxdLfBizE+WA9Xo9Qcbi1PaKXH+5CMfSl5k6fU4BvebrTSaMnbjNRejVyyZK0J4RcO9/1mSn2M1aZN4BefSaODaBMNCAPXoe8lqUyMwEAc1+ZdCpjwJJz/USjcx86Idax8zPmmvmr5oPyDKwZptJxMY/A3PaaMHWQuM7OOEMzGksoh87cImfMuL0BarCBjOvtQaWwUkvVwh6lVgeMnkw0hblMrt8fNQS2tedd7B3Ynz1l29MP+OGhHRhYq9c+ke7b6+LyHnvb7ffzc275f/9+00/z24+f/wE=);lineShape=1;" vertex="1" parent="1">
                    <mxGeometry x="66.24068783621092" y="11.750588199791139" width="0.18703960689811083" height="4.299261304136465" as="geometry"/>
                </mxCell>
                <mxCell id="52" value="" style="shape=stencil(lVjZbhsxDPyafSUkUudzmv5HgDi1UTcOHPf6+3K70NqivBPkzQdnRQ6Hh3aSh/f909tuYvd+OZ++734fni/7Sb5MzIfX/e58uOinSR4neXg5nXffzqefr8/L97en2XL+9OP0a37CnwXnyPkZxO7v8kOhmv//8HUxPx5eO/NSO/NEKWybC0n/9ECBt80jievMhVzaNi8UpTP3lGTb3Av5/vGOInDeV2I29s5t2ysXxT6fgT8SKTnjv5Rt+6D0VENPBP7ESKHnR5Plt+1TtMn1mm4ghqyA0gMS9KgEqr1HcwhAEJWbANaQPWXAUU1NvqviHFV0QqXYxxAdpQhU4VYVrLSqjoBMq5ZUf0TGwtAgUh91ruTRCWKjLokykHb1xL1LyjRKRKkUepfUyQBiuDqwAio5IKaSbapn3tAJeXCpUAGZU0D1AwAFXUjiAEANqQxBawzIJeVkZKlCgOlJCmBEq/6dLCCgGFRq0QJQj9egLa2VCugzCoiDSzDThfzAUkUsZUq2k+HerYiRpoqi1kbjhqhxQSQZeAWtrKy99AYAu6sChkQIBqQhaI8KIjVObvWNi1rYAtBIUUAeixrXKLsBgOWaBpcqlmsdCsKhE5TEYgGMTrhXo/JBFxilgbRU7ZqngIy7wCcB2r6NvFNrVVu0FkMrN7FszazYJ24WPNoFgmUp48TVoeJ0UHt0QrYuzasABvieVt02MqgHjSH2LAUPVwFNXO5dEm7d8z6A7czSJd2BRpalVfDaXHMbGff3ymDbt/dwxYpi10Qd9aAcQrBDUa8ZIAsSWktZQ6YA/NG9OZpxQgKSpheHHI09IsgHu8l4uKjrWp6s/2h5057a0ymwlKNtwQH2R2m5vN4y0BzkYW5CbritEldzBlLgYcjCLZXtjarCGyHbC2Rtibifp2GWUUKyoWBDRfuBb+v0jTnIqhtW03b73DC3y3VbLjbMeeAdPn3wnaHvbtAM4P3T7zQ+MNcP19cnL4fjcXn7cvu/fd2iPy2vauTxHw==);lineShape=1;" vertex="1" parent="1">
                    <mxGeometry x="69.77916608697856" y="11.608630231321335" width="2.5278651208202234" height="5.931928440254957" as="geometry"/>
                </mxCell>
                <mxCell id="53" value="" style="shape=stencil(lVjZctpAEPwaXqdmZ+9nx/kPVxkHKgRcmFx/n1GUxdpZ0cRvQnRLc09rN/7hbff0ut0Iv13Op6/bn/vny27jP21E9sfd9ry/6NXGP278w8vpvP1yPn0/Ps+/X58m5HT17fRjesKvmSeJapxYwr/nO0zi/974POMP++MC75m87/COagL4SJI7fCIB+OAocv98oRwBIVEwhEJcbhOiNIMbQQLVcJuQmELvghfocyrk+piqV1luE3Kk7DpCZMrAh6Ix6U2KlWIFhEK19mnIVEGeq7cENTKCKNVMqfdBjRQGhKvFV0JuYVglOGbiPtVVyOFXOEOI5EEi1AnX26R3/iV/nRAo9qmuBceVqUpPqJRR5hK50Nf3exzWGdyKbfGKBFKnmWVvnSjAJi3wxDZMFcQ1ORJjUqICCNqkZsxo5iKeG9J39VTBoIWkDonQd4JB41J73pXAFEGqNQ194rQJHaglnaxpwIM8sy1u7Z8KsjZ0j+ILiJDis8VnkAJdHEM/JxBQbv8u8BHEx5FzAx7Ni2Eg5bZb1iuCnAx4UKPSrF3iUcVRHexJaHWu2JNBfBSfLB51sSce6pNBPIedM9UnxPsRD+LjmrULvID4O/JlwMN+HJ/vYL+E0X5gD7fuXsYT2sNDftEQZTulp/zC+SBDvyfobxzrH+Lr2L/AX0chDHhgv1t7Pqy3MMQngvnzUbzqymQIukOAA14nkFkxDiqcoCOiLyFdYh6ENAZis/UCNClp0xu9kppYXdcG3GK+WPWoy7Iu9kFMOKA+irN6XAlQ/JYhSrWNvnXN5dreWrwhIZEWrIBXp6FuTIMyvX733CKYYTRJWVAaSgijWr6jTE07S1vQN5Vpn2nVhWh/l2gJqgsZ5CHXNn8WXy3wu0hsx0XGOjNazaK6sACTYrZLxHuYh1Cp9KUhEaq04El6gsNrypdWaosv4ApM0q9RMwS0VoDPog3cD2ItDKRbvG0fxjrH26zpJr2DZ4P3d/DF4FFhK74MRxxIBwYrrBnufcUH6y9qA8UXsXj0/NjqZYFH9scmK/8Tn2z9MNQtU3kN9qB8JcoWj1bOR4+k7uP14v3862V/OMzHZ8v/7XmZ3prP2vzjHw==);lineShape=1;" vertex="1" parent="1">
                    <mxGeometry x="74.88543646613147" y="9.29064830268021" width="2.0132221443826666" height="8.714523070549838" as="geometry"/>
                </mxCell>
                <mxCell id="54" value="" style="shape=stencil(lZbdUttADIWfxrdnpNX+XlN4D2YIjYc0YUKg5e3R1mOIlkSd3vnv88pHR8c7yc3L9v55MwV6OR0PT5vf88NpO8mPKYR5v90c55MeTXI7yc3j4bj5eTy87h+W8+f7/mQ/+nV462/4s3CNUEKnAr0vV2JCan+v3C3Abt6fAxmlGCAJWnWAhsoGyIKaXSCJAUoEeyUltGyAqis4QG2IFmiMFh1AVbIltYLE14FCyFYlJgLRdSITJNolGtiRKRGq7ZzqQE4jooBtI2oFO4BUkAVK84EMsrrmBhIHKGMjUkV1VIphXCGqW5zO6W1pFggITklaQK4G0CKzs0KuaMkCGSE53lARrZlU6OB8dG+TXUFbGfyBoGFG6V8zykPjCLFcB87c/OkNWoPh8hI6MBbQofJa3UdysGtbX3FZJh36YUg1GJySeqzYkr6i53KrBeXbjFYnBjQa6wBofHozmhCHoVZZHTN1QP4HkDima09Dx0whrm7+BBKyE0yc1rQ+i43ofHRBtW4tDHHaEMYwzrym7cXn1ar2AxKvKXLteWuLSODg1ZNsYgRfUc0TWz831xQcR4GYkZweBxmBBHEmRz0x/Bm0AY6garpBofHfpgdfO47HebdbNizn98cdil5adjdy+wE=);lineShape=1;" vertex="1" parent="1">
                    <mxGeometry x="75.26489136074292" y="6.014404739203172" width="0.15716392126486767" height="0.1576460476002879" as="geometry"/>
                </mxCell>
                <mxCell id="55" value="" style="shape=stencil(lVfZctswDPwav2JAguDxnKb/kZk4taeunXHc6+8L1SNbBKPN5E2WsMa1WJAbeXjbPb1uN5HfLufT9+3v/fNlt5Evmxj3x932vL/Y00YeN/Lwcjpvv51PP4/P19+vT5Pl9PTj9Gv6hz9XXAhUeEJF/nt9w1TL/xdfr/aH/XFpHylrZ1+JkX2mkjr7UCildUCMxK0DxEQ1A0AjiR1AhJquA8Qirh0gJYp1HZAqxb5GqhRADlqp9YCslEGVcqPaV7UoxbYOqJG09G0wQFwHtOj70GTu/PsAC6nvg71hkLR9btkDBHtIgwcFjWuVVDygAGq0QqF6QAsAoKQjAPTBiug6/REgerZOAFSlQDx4KKgP7Ok9lVUAl5ofaQOgeai3qi+pgcjHlFwOlQrwYElr8ADFZfXkq5QQNRLlIaSEqJEplgGA+lDmFJc5YHq3AVBA4yYiqAc0kHRgfodMEWVtLoIHJKBkbZC+6S8Qv8usjAsA2kDWiDCoQENkSjMTbivoXoc1NtXRBep1GAhuSSAPTDJ4yKAR08wNAAG9/jwgDuoqUMqKSZk7CigUGm1+admWU9DqdBuYxR5tQGhkmDnb1AI8xELac8POAgkkHSrlfmlJogCm2g5Y0lMjKjEAqJ84OzAh2QieSZUCINKgAAwryvNB526Oppm9qjIpMLfYqzMXEEycFfpuHkBzhbKPncEA6FgZBoXMYzBIU4yZzZujZTB/XaQKBCiwF0WGK9zs3b5kuC6NxcmHn7H9564VH9rbw/0O87I/HK5XoOV3f+exV9f7kjz+Aw==);lineShape=1;" vertex="1" parent="1">
                    <mxGeometry x="79.20057523917129" y="10.310727057006574" width="0.6046608356330694" height="3.9309289585309912" as="geometry"/>
                </mxCell>
                <mxCell id="56" value="" style="shape=stencil(lVhJchsxDHyNriiCG8iz4/zDVZZjVRzLJSvb7wNGxdEQ1HTimzSDHmJpbNyFu/fnh7f9zrv38+n4df/z8Hh+3oVPO+8Pr8/70+Gsv3bhfhfuno6n/ZfT8fvr4+X/20OTbL++HX+0L/y64Bwl10De/b48YOLw98Hni/jL4XUlHsjVQdxRlm1xoZSMuM/b4swkYuRdAfJC0Vt5ty3vI/lo5BmoH5iqNTfVbfnoKLLxZmAgX4lHfTwloE8SKmO01CCgT87kRn0yZRBdCV3dLl8peyCvr8tobyAGCpVEbOgm5EHEip6QRw8xZXBCnUxQm1MEgEw8ckijnhGgkDcAIQe8WivFkdXRUwa0YLfQeEEU6CY9Io9ETYEKyDQ1QsbMTBW7SeM0GpETzM2aKIwqyZIdW5HjUSVJFJHRjmTkhvKxghNK6d/rgBL6J24DMvkwAjJVYHSJFEZuKIFRxSjKhFGlyv3JbQCTG0tG8xvOUVNTa+yhvA1Qaow2aChRTxCxcVBAQSfkzs0FoDkK3KpEKMZooQC8JJFkAlRAb2FLDU0plECy9MkVoCKAozK6dZXmW4g06YTYpwA/A0BCZH0tk9VAJQUUtgBULBVg6sy1Gm4CqgXAHld7YFcASNel568ADnip1S1jQ6GKT7ApV2AclEyuTABM15AnG5BK3BNs7SXMb5m4FPAJMiVEQvTWQjdRAw6TbPtoYysqfWw7dcsHHLg6AwD5FGDK938kdZhzFIXaTQW/9mq4maOTXwUnta3fGjngpjy3FOVGwirN7MOVzCaE8huc8HFAsOOJdgg0umpLiYbfuRN4q2lFo1LCZMoUqwWg9UEbbzJ0jX1c3mrt2dgQcKeuU0J4PDGx3ch0nkGdWicwHjuKTkwBJLWuEGan0ZlMAFuL2HqvZyJ6t5FttEFwAqmJxYy6qQ+OtwHRGt1aN4jDlTnL9B17694a1+M036O+qw0nzBsEXoNk3lEwgMd8aGsQWuV01h5t0EULVQ11qykzusoVkKJKZp6WRdRRdIMw1NCN3QGjdSFwow268MIVfFrMdKVGXhLf97ZrC4KFTPc2c0khkHtJem2/Xjog6ikNzIwY4PejUt8EAY4yLaZju8KXLKou20ucCrK5XSplIy8gxMyWdTrpowiTmDsTOH2GKbxwi3Z2omdorLPTNveCvyGe/YfETRFaCuWGuLfKoArk+gB7FRfAM50QrGdQXjnbZvBePt3YMBx+Xaf4KqpQ3F6bQcpPeyDDyqwjqaUYuhX94JXxP8X1x/V2+unw8nK53F6/t7fZ+uhyEx7u/wA=);lineShape=1;" vertex="1" parent="1">
                    <mxGeometry x="80.10059568845551" y="6.073664116264119" width="4.817757114147696" height="8.721799751196777" as="geometry"/>
                </mxCell>
                <mxCell id="64" value="" style="shape=stencil(lZbdUttADIWfxrdnpNX+XlN4D2YIjYc0YUKg5e3R1mOIlkSd3vnv88pHR8c7yc3L9v55MwV6OR0PT5vf88NpO8mPKYR5v90c55MeTXI7yc3j4bj5eTy87h+W8+f7/mQ/+nV462/4s3CNUEKnAr0vV2JCan+v3C3Abt6fAxmlGCAJWnWAhsoGyIKaXSCJAUoEeyUltGyAqis4QG2IFmiMFh1AVbIltYLE14FCyFYlJgLRdSITJNolGtiRKRGq7ZzqQE4jooBtI2oFO4BUkAVK84EMsrrmBhIHKGMjUkV1VIphXCGqW5zO6W1pFggITklaQK4G0CKzs0KuaMkCGSE53lARrZlU6OB8dG+TXUFbGfyBoGFG6V8zykPjCLFcB87c/OkNWoPh8hI6MBbQofJa3UdysGtbX3FZJh36YUg1GJySeqzYkr6i53KrBeXbjFYnBjQa6wBofHozmhCHoVZZHTN1QP4HkDima09Dx0whrm7+BBKyE0yc1rQ+i43ofHRBtW4tDHHaEMYwzrym7cXn1ar2AxKvKXLteWuLSODg1ZNsYgRfUc0TWz831xQcR4GYkZweBxmBBHEmRz0x/Bm0AY6garpBofHfpgdfO47HebdbNizn98cdil5adjdy+wE=);lineShape=1;" vertex="1" parent="1">
                    <mxGeometry x="258.66142916702984" y="22.465684897664573" width="0.8671112897372794" height="0.8697712971050366" as="geometry"/>
                </mxCell>
                <mxCell id="65" value="" style="shape=stencil(lZbdUttADIWfxrdnpNX+XlN4D2YIjYc0YUKg5e3R1mOIlkSd3vnv88pHR8c7yc3L9v55MwV6OR0PT5vf88NpO8mPKYR5v90c55MeTXI7yc3j4bj5eTy87h+W8+f7/mQ/+nV462/4s3CNUEKnAr0vV2JCan+v3C3Abt6fAxmlGCAJWnWAhsoGyIKaXSCJAUoEeyUltGyAqis4QG2IFmiMFh1AVbIltYLE14FCyFYlJgLRdSITJNolGtiRKRGq7ZzqQE4jooBtI2oFO4BUkAVK84EMsrrmBhIHKGMjUkV1VIphXCGqW5zO6W1pFggITklaQK4G0CKzs0KuaMkCGSE53lARrZlU6OB8dG+TXUFbGfyBoGFG6V8zykPjCLFcB87c/OkNWoPh8hI6MBbQofJa3UdysGtbX3FZJh36YUg1GJySeqzYkr6i53KrBeXbjFYnBjQa6wBofHozmhCHoVZZHTN1QP4HkDima09Dx0whrm7+BBKyE0yc1rQ+i43ofHRBtW4tDHHaEMYwzrym7cXn1ar2AxKvKXLteWuLSODg1ZNsYgRfUc0TWz831xQcR4GYkZweBxmBBHEmRz0x/Bm0AY6garpBofHfpgdfO47HebdbNizn98cdil5adjdy+wE=);lineShape=1;" vertex="1" parent="1">
                    <mxGeometry x="258.66142916702984" y="22.465684897664573" width="0.8671112897372794" height="0.8697712971050366" as="geometry"/>
                </mxCell>
                <mxCell id="66" value="i1 and i2 have a possiblity of exceeding n and&lt;br&gt;&amp;nbsp;j1 and j2 have a possibility of goin out of left or right of the box ie &amp;lt;0 or &amp;gt;n-1&lt;br&gt;agar itna dimaag nahi lagana to simply saare conditions laga do&lt;br&gt;0&amp;lt;=i&amp;lt;n and 0&amp;lt;=j&amp;lt;m ye saare laga do" style="text;html=1;align=center;verticalAlign=middle;resizable=0;points=[];autosize=1;strokeColor=none;fillColor=none;" vertex="1" parent="1">
                    <mxGeometry x="215.62999999999997" y="18.009999999999998" width="430" height="70" as="geometry"/>
                </mxCell>
                <mxCell id="67" value="" style="shape=stencil(lZbdUttADIWfxrdnpNX+XlN4D2YIjYc0YUKg5e3R1mOIlkSd3vnv88pHR8c7yc3L9v55MwV6OR0PT5vf88NpO8mPKYR5v90c55MeTXI7yc3j4bj5eTy87h+W8+f7/mQ/+nV462/4s3CNUEKnAr0vV2JCan+v3C3Abt6fAxmlGCAJWnWAhsoGyIKaXSCJAUoEeyUltGyAqis4QG2IFmiMFh1AVbIltYLE14FCyFYlJgLRdSITJNolGtiRKRGq7ZzqQE4jooBtI2oFO4BUkAVK84EMsrrmBhIHKGMjUkV1VIphXCGqW5zO6W1pFggITklaQK4G0CKzs0KuaMkCGSE53lARrZlU6OB8dG+TXUFbGfyBoGFG6V8zykPjCLFcB87c/OkNWoPh8hI6MBbQofJa3UdysGtbX3FZJh36YUg1GJySeqzYkr6i53KrBeXbjFYnBjQa6wBofHozmhCHoVZZHTN1QP4HkDima09Dx0whrm7+BBKyE0yc1rQ+i43ofHRBtW4tDHHaEMYwzrym7cXn1ar2AxKvKXLteWuLSODg1ZNsYgRfUc0TWz831xQcR4GYkZweBxmBBHEmRz0x/Bm0AY6garpBofHfpgdfO47HebdbNizn98cdil5adjdy+wE=);lineShape=1;" vertex="1" parent="1">
                    <mxGeometry x="-564.5937019954162" y="57.22430137799864" width="0.867111289737201" height="0.8697712971050366" as="geometry"/>
                </mxCell>
                <mxCell id="82" value="" style="shape=table;startSize=0;container=1;collapsible=0;childLayout=tableLayout;" vertex="1" parent="1">
                    <mxGeometry x="40" y="160" width="240" height="160" as="geometry"/>
                </mxCell>
                <mxCell id="83" value="" style="shape=tableRow;horizontal=0;startSize=0;swimlaneHead=0;swimlaneBody=0;top=0;left=0;bottom=0;right=0;collapsible=0;dropTarget=0;fillColor=none;points=[[0,0.5],[1,0.5]];portConstraint=eastwest;" vertex="1" parent="82">
                    <mxGeometry width="240" height="40" as="geometry"/>
                </mxCell>
                <mxCell id="84" value="" style="shape=partialRectangle;html=1;whiteSpace=wrap;connectable=0;overflow=hidden;fillColor=none;top=0;left=0;bottom=0;right=0;pointerEvents=1;" vertex="1" parent="83">
                    <mxGeometry width="60" height="40" as="geometry">
                        <mxRectangle width="60" height="40" as="alternateBounds"/>
                    </mxGeometry>
                </mxCell>
                <mxCell id="85" value="" style="shape=partialRectangle;html=1;whiteSpace=wrap;connectable=0;overflow=hidden;fillColor=none;top=0;left=0;bottom=0;right=0;pointerEvents=1;" vertex="1" parent="83">
                    <mxGeometry x="60" width="60" height="40" as="geometry">
                        <mxRectangle width="60" height="40" as="alternateBounds"/>
                    </mxGeometry>
                </mxCell>
                <mxCell id="86" value="" style="shape=partialRectangle;html=1;whiteSpace=wrap;connectable=0;overflow=hidden;fillColor=none;top=0;left=0;bottom=0;right=0;pointerEvents=1;" vertex="1" parent="83">
                    <mxGeometry x="120" width="60" height="40" as="geometry">
                        <mxRectangle width="60" height="40" as="alternateBounds"/>
                    </mxGeometry>
                </mxCell>
                <mxCell id="87" value="" style="shape=partialRectangle;html=1;whiteSpace=wrap;connectable=0;overflow=hidden;fillColor=none;top=0;left=0;bottom=0;right=0;pointerEvents=1;" vertex="1" parent="83">
                    <mxGeometry x="180" width="60" height="40" as="geometry">
                        <mxRectangle width="60" height="40" as="alternateBounds"/>
                    </mxGeometry>
                </mxCell>
                <mxCell id="88" value="" style="shape=tableRow;horizontal=0;startSize=0;swimlaneHead=0;swimlaneBody=0;top=0;left=0;bottom=0;right=0;collapsible=0;dropTarget=0;fillColor=none;points=[[0,0.5],[1,0.5]];portConstraint=eastwest;" vertex="1" parent="82">
                    <mxGeometry y="40" width="240" height="40" as="geometry"/>
                </mxCell>
                <mxCell id="89" value="" style="shape=partialRectangle;html=1;whiteSpace=wrap;connectable=0;overflow=hidden;fillColor=none;top=0;left=0;bottom=0;right=0;pointerEvents=1;" vertex="1" parent="88">
                    <mxGeometry width="60" height="40" as="geometry">
                        <mxRectangle width="60" height="40" as="alternateBounds"/>
                    </mxGeometry>
                </mxCell>
                <mxCell id="90" value="" style="shape=partialRectangle;html=1;whiteSpace=wrap;connectable=0;overflow=hidden;fillColor=none;top=0;left=0;bottom=0;right=0;pointerEvents=1;" vertex="1" parent="88">
                    <mxGeometry x="60" width="60" height="40" as="geometry">
                        <mxRectangle width="60" height="40" as="alternateBounds"/>
                    </mxGeometry>
                </mxCell>
                <mxCell id="91" value="" style="shape=partialRectangle;html=1;whiteSpace=wrap;connectable=0;overflow=hidden;fillColor=none;top=0;left=0;bottom=0;right=0;pointerEvents=1;" vertex="1" parent="88">
                    <mxGeometry x="120" width="60" height="40" as="geometry">
                        <mxRectangle width="60" height="40" as="alternateBounds"/>
                    </mxGeometry>
                </mxCell>
                <mxCell id="92" value="" style="shape=partialRectangle;html=1;whiteSpace=wrap;connectable=0;overflow=hidden;fillColor=none;top=0;left=0;bottom=0;right=0;pointerEvents=1;" vertex="1" parent="88">
                    <mxGeometry x="180" width="60" height="40" as="geometry">
                        <mxRectangle width="60" height="40" as="alternateBounds"/>
                    </mxGeometry>
                </mxCell>
                <mxCell id="93" value="" style="shape=tableRow;horizontal=0;startSize=0;swimlaneHead=0;swimlaneBody=0;top=0;left=0;bottom=0;right=0;collapsible=0;dropTarget=0;fillColor=none;points=[[0,0.5],[1,0.5]];portConstraint=eastwest;" vertex="1" parent="82">
                    <mxGeometry y="80" width="240" height="40" as="geometry"/>
                </mxCell>
                <mxCell id="94" value="" style="shape=partialRectangle;html=1;whiteSpace=wrap;connectable=0;overflow=hidden;fillColor=none;top=0;left=0;bottom=0;right=0;pointerEvents=1;" vertex="1" parent="93">
                    <mxGeometry width="60" height="40" as="geometry">
                        <mxRectangle width="60" height="40" as="alternateBounds"/>
                    </mxGeometry>
                </mxCell>
                <mxCell id="95" value="" style="shape=partialRectangle;html=1;whiteSpace=wrap;connectable=0;overflow=hidden;fillColor=none;top=0;left=0;bottom=0;right=0;pointerEvents=1;" vertex="1" parent="93">
                    <mxGeometry x="60" width="60" height="40" as="geometry">
                        <mxRectangle width="60" height="40" as="alternateBounds"/>
                    </mxGeometry>
                </mxCell>
                <mxCell id="96" value="" style="shape=partialRectangle;html=1;whiteSpace=wrap;connectable=0;overflow=hidden;fillColor=none;top=0;left=0;bottom=0;right=0;pointerEvents=1;" vertex="1" parent="93">
                    <mxGeometry x="120" width="60" height="40" as="geometry">
                        <mxRectangle width="60" height="40" as="alternateBounds"/>
                    </mxGeometry>
                </mxCell>
                <mxCell id="97" value="" style="shape=partialRectangle;html=1;whiteSpace=wrap;connectable=0;overflow=hidden;fillColor=none;top=0;left=0;bottom=0;right=0;pointerEvents=1;" vertex="1" parent="93">
                    <mxGeometry x="180" width="60" height="40" as="geometry">
                        <mxRectangle width="60" height="40" as="alternateBounds"/>
                    </mxGeometry>
                </mxCell>
                <mxCell id="98" value="" style="shape=tableRow;horizontal=0;startSize=0;swimlaneHead=0;swimlaneBody=0;top=0;left=0;bottom=0;right=0;collapsible=0;dropTarget=0;fillColor=none;points=[[0,0.5],[1,0.5]];portConstraint=eastwest;" vertex="1" parent="82">
                    <mxGeometry y="120" width="240" height="40" as="geometry"/>
                </mxCell>
                <mxCell id="99" value="" style="shape=partialRectangle;html=1;whiteSpace=wrap;connectable=0;overflow=hidden;fillColor=none;top=0;left=0;bottom=0;right=0;pointerEvents=1;" vertex="1" parent="98">
                    <mxGeometry width="60" height="40" as="geometry">
                        <mxRectangle width="60" height="40" as="alternateBounds"/>
                    </mxGeometry>
                </mxCell>
                <mxCell id="100" value="" style="shape=partialRectangle;html=1;whiteSpace=wrap;connectable=0;overflow=hidden;fillColor=none;top=0;left=0;bottom=0;right=0;pointerEvents=1;" vertex="1" parent="98">
                    <mxGeometry x="60" width="60" height="40" as="geometry">
                        <mxRectangle width="60" height="40" as="alternateBounds"/>
                    </mxGeometry>
                </mxCell>
                <mxCell id="101" value="" style="shape=partialRectangle;html=1;whiteSpace=wrap;connectable=0;overflow=hidden;fillColor=none;top=0;left=0;bottom=0;right=0;pointerEvents=1;" vertex="1" parent="98">
                    <mxGeometry x="120" width="60" height="40" as="geometry">
                        <mxRectangle width="60" height="40" as="alternateBounds"/>
                    </mxGeometry>
                </mxCell>
                <mxCell id="102" value="" style="shape=partialRectangle;html=1;whiteSpace=wrap;connectable=0;overflow=hidden;fillColor=none;top=0;left=0;bottom=0;right=0;pointerEvents=1;" vertex="1" parent="98">
                    <mxGeometry x="180" width="60" height="40" as="geometry">
                        <mxRectangle width="60" height="40" as="alternateBounds"/>
                    </mxGeometry>
                </mxCell>
                <mxCell id="104" value="" style="shape=stencil(lZbdUttADIWfxrdnpNX+XlN4D2YIjYc0YUKg5e3R1mOIlkSd3vnv88pHR8c7yc3L9v55MwV6OR0PT5vf88NpO8mPKYR5v90c55MeTXI7yc3j4bj5eTy87h+W8+f7/mQ/+nV462/4s3CNUEKnAr0vV2JCan+v3C3Abt6fAxmlGCAJWnWAhsoGyIKaXSCJAUoEeyUltGyAqis4QG2IFmiMFh1AVbIltYLE14FCyFYlJgLRdSITJNolGtiRKRGq7ZzqQE4jooBtI2oFO4BUkAVK84EMsrrmBhIHKGMjUkV1VIphXCGqW5zO6W1pFggITklaQK4G0CKzs0KuaMkCGSE53lARrZlU6OB8dG+TXUFbGfyBoGFG6V8zykPjCLFcB87c/OkNWoPh8hI6MBbQofJa3UdysGtbX3FZJh36YUg1GJySeqzYkr6i53KrBeXbjFYnBjQa6wBofHozmhCHoVZZHTN1QP4HkDima09Dx0whrm7+BBKyE0yc1rQ+i43ofHRBtW4tDHHaEMYwzrym7cXn1ar2AxKvKXLteWuLSODg1ZNsYgRfUc0TWz831xQcR4GYkZweBxmBBHEmRz0x/Bm0AY6garpBofHfpgdfO47HebdbNizn98cdil5adjdy+wE=);lineShape=1;" vertex="1" parent="1">
                    <mxGeometry x="69.2702160051499" y="180.81188413306637" width="0.5916759388793948" height="0.5934910027304153" as="geometry"/>
                </mxCell>
                <mxCell id="105" value="" style="shape=stencil(nZzZchRHEEW/Rq8VtS/P2P4PIhBGYYwIwNvfO8tytaZvzZwxfgMpb3ctudxcWg/pzdcPbz8/PkT/9duX518e/3h69+3DQ/rhIcanTx8evzx9s389pB8f0pv3z18ef/7y/Nundy////x2Ss5//fr8+3zCny+4MdwYExX9Xy8/8a7mf37w04v8x6dPZ/leTvLB5YTytZ7kowv8/JRO8sn5hvLBi3wNIN9djyf57AKtv7uSRb5GlPfhJF94Pc2183qqC/T85nIXeVxPW8e95O0HFeSr617kUR+qK+f99nUht+RDE/lK8sW1836H8wPl0xD5QuvPblSRH/T87PL5+cGzAWTnswL+NaHrgOTKeUUhuEhLMgvxCmikE9FlecMdowyuZwWg1gXVupD4DXaIG6DCKfXhmvihjG8wgG8KIM3u3eWzZofCb2iubwB8Q3NRAGYd4Cx6dc0roID1GCA2BXRaUnH9bG7B/AUonwHUHpordHFlbfECMECXelYPGbqLHQGxKqCCz+vJNTklUxYGhKEA8jI9qte2MEturAe9aQOQTXdzKue4OQMzqEYbGyBiJGzdtQ0w6A1tefYDYAcN6t2qy2ebtmBb4JRaWYpwAMpybdcBWaOPhU/yrS2p17B46EG9W1y/vgA0ekNY8f4A9BVSrwO8i/KG4SJcXB0rQF0ABryhmrkIB/OuAAmrTUlhspAF2moAOVYD4JKq2nTiCFSLeu+UFrO8DjBVO99Dymii9SCaFwCyhxqVCqeygth1wOYEUkWyVM1HyBsa2kMZSzcPQEd7KF29RhroNUpTQDbPR4CqXMMAdKzFQtZ509nODZxxyUvVDkBE720A4fTZdImWlDTG5YMFXgdEVe+c0d2XoHwpG/EFXSp+nckFAI/VrunsW3NFopuHskoDUGDPfS3gAJi2MiBVBQxaUttUo69zuwVITQEDjnVuUfYwFiG6BUiSHzITsGtqG4C8hgEkApmyEEk0VYtnJ2DqmMBrmPZLQDGFT3SsG/0xk8KbDqpLZuUFOJ/5iHy+B/MjDUKWuS25afNUA95gjlEBA5mxuV7JRM09Z4hx5tzFpi0AEJW28CEhy0IMnZIFqCpLSuj5LGYOeUNG9TaAEKwZiMFELYyLLlmopzhtREH30NY7rwO8Zvj1zk37RacOwFE0ugowOpVl0wOJ7qx5SFGGq25xSy2NNhYwUaO14+wEjJiSxRlAvIZRX8qy4pbHTXJNAPu1vKFgtmvZQjh7DUsQiDpYPhKzAig+WIokxUbLWRod61amsKyImPHMC8/aankXOQFLVYWRWWYXYUkze5aCWsBjDW2rwBn3BuULVam0pbMNAsose8geEuaiBvBnN2M5PFV9Q96WxHwpJDWgznzJADEqgNhMiErW+5HO3gLoPVT0SyGo1+gNA3vYUsvekYYGv+LNBQCr18p++lhGfkNePKvJVyqDrBzvKM4eye8Neb/JNzjSpjRjhFUwu55grQu6kG+UVK77OeQj+sjNCQ/OcotmlLMWTOnbSlsu5Ml95eU+D/m8soIb8tIsGVzAyasXccgX7H4kTWJGQf1JSrZHRWcaXW8q3ymAaOCf7RmwyKhlD5NH1+uq6FvHfH6z39mug/PxWnCb7UDQB79o/lH39H41H24AxODnC0CBvPYNxsAs1a867YU8GbzXTH72J+ECvLZWxsH1bslHlU+g0FuSPfuZfD7bfilQeq0rTHlw6F6TnCmP55+39VOEOeqIl/sFA/Ma8kyeDNhvBsN065o8OcRr66EA4Fc+dmmQuH7ppkz9h4Bn9yXtmvsGuV0A9Tu9kpQpjxveFZo86FEMvDRIXM9ukIWfvxl8YgPeDCaiAYdt/dT//l75oCnNHBiA/QYt3Zs8NQfidv4VuX3UBGjwvELUfqJFbKw4bAwlc7Ku1bFxp7KkWasxoI4MSBlcQv3JK95eMLgO6y9aezP5hPLShDMGik0HF73KUwDbOswmj/2u7fkeWxRNOxTDc1NdS74zY4D77crQOwekseVUfYW0WymSdN8sCRuUn/st82SOaFmbbrniwEgIWxZWObfdam69YFQygJ7q3exZ4rzl51RCC1tjdnbxGSBzSp1TmVCUq3duX89ZjK6AyADJlnrAbkNoaszdL/d9qzgk/L4NrHKHrcrdOvZZd8JuABqFiGErAzZM0WfEOVPk2fanCBK1ftsKhnyLCXIPLaNP2p12S4sX3qp9SlOzRUw7pluVTQeuTDY1IANQZm+OTxogzeOgXxxa4KpjcY1bAHECtaMTSF5jc+V6VdqampXJSNpKaJUdmQGk9VszJrwpaYXFAFSDTnnbAw+wpqKMvEZkhGnzSzVgUSY1LQOWgVWH1NWmS8fq6pwBEEDjLqjXXkCp2G3IQSeuSuFKVNTZupLQ8+WkqXWJGLJmS19ajuEeQEYWi8d7yNssa/GYLeeqS5rdaHpDVTeTO84H5m1wJ/PAiAEkA55NeepGb8o3m/J0cd1VWVLlexjbsEXl9vXQJCYXJvVbHW5eJTgB05x9/qPDpk03/QagbrQBpJNrCk9jZmXrmGSOcSWru89HqL8O2KrXmafGzEdIcmt+JNGmm/YPzFPhpreGQ+pcgN/6e+ZtiZHVTTVSxQqPOXcpCRkA59KiFnVniAH1rkmpgwUxOlYLgVJWT8y9LSqLM7ZATOpdt0ZI4qBoAJn0MTKBe2hrvPwAeOQaRnYkaTIAZZZ1a3YZg6LU3gibjo52XJIBhOjGhmzGOKT0N2b+DntoUVPLyAPnRpyFJL5WLK4DylLmA5AxTlu2oOOvzMhaU/WegwU86CxdLEtBaNyvDfUalhWRm7E0T7xG5JmuHrYRXlY+S1X3CXWKcX1rfQXmfLOlXxRA6bEBhjSPeDK656243bCjPmcAmgLwe4qi+YPl8DT/YQC5uMDJa6+a7RqAeOscGpCPFwqG3Tk00BRAnG8ODcgbMrYAeteEI/AQWO/b50IJ/VIfOshmAOpzzqKh3EPEfNoAEh8MQPFhhFVjOAABQ9aI2ydPAVtVs7UvF+eRt479qxOmPwbQbhWWKkdWX3zcyy15OaM73+Zl5aD8Xc7YiuMdexlzGOD8/MZXVrYhOWzWju1rqsrPr/pZREEzmN9qylwt3+8xLn3wYez2m7zMZWWsRI+mlbfEz+/arErYfDV56b5GnHedvWVxEzjo/9pLf5Wn5vpsDZ5p6h37GjoO4XF6aMrrt9Y0uTp710Xk0b6G2iN/ajFbrbpf6h2/tmb/s7x8u3t3Pf079zt0/XfOU/T57n1t38aTPlz03l8BxAP/x8f3d+TtH69f+r9/+vjx5Q8FXP5e/zKA/ejlrwqkH/8G);lineShape=1;" vertex="1" parent="1">
                    <mxGeometry x="10.187440537532893" y="180.42881916430105" width="57.97104020839427" height="39.25332997033135" as="geometry"/>
                </mxCell>
                <mxCell id="106" value="" style="shape=stencil(lVnJchw3DP2auaJIgAt4lp3/UJXlaCqy5JKVxP77gJliqwnOvLZus+A1ie1h6ZPc/Xi8//5w4vDj7fXlr4d/z1/eHk/y6cR8fn58eD2/2aeTfD7J3deX14c/X1/+fv5y+f79vkv2T99e/ulP+HnBJZLcQRx+XX4IVOr/P/xxEX86P+/EK1WZxIVavC0eA4U0ySvFAuQjcZzk7ZcgAMAkPAMSRaBAFAp1BlQqDQJKmAAcKWYI0FlnM3JFRjIblhmgFBAgUZidJmYlhoA4W0mEasKA2UpSKOMrOcdJIwkYMEdSYmLFgFmHlCljpXl2XFJSFBqm9HylzFTwCc4P2ayEQ6PpBCjhCFBnHUqC+WkAmYOvKFV0AvsrVVMahYb9PVupFuw482ubAY0UhUakNgef2iURCUQqcwJpJkVXit5KemglFxqNKSMd8vh7AyRs1kYpekADJ7CpOJu1WXQBIuNGWTyAgVmNI6QuSiNAHcS4ASL0QwpDxR2AgR9SojRHawuUgNKW8i5FtVEFCZTjeN4OEIEfciKdHWexVBCgUluCLwIdyubXDVApoSIdPHtrGSXmOkDG8/YAoIOlfG0egLhVg0+gI4B4T3cA0MH+LskDUGFvZZSPHWs0cKVWfU4fAZQS+yuhjGvNlywDVAyoTmkLDcRLwToydwSOPjuiLRkUwBEGyOoBFXjOzOROsKQWQBsGcO2MAVBFMc/F4gHQc8U7op+ArpRJogdkwPe9HERvpYZOSJ5cDcDIrCttWDwCcr1ygrXGGOB1KLBQdystCSEf8oMB0DzQPe2YLA+6vRlLCzFF0PT1aC0eAD1t+bDQNxqCrmSclQzUh15N6g/yRoPNtAGi6zYCpg1d+hmbLFF8V194e44iu34UYFYMrgGKVIHSvQY1D0Djbq9ySwOEAFZHdQUAx1lp930lQza2eaFmD0AVIlvkuBZL4Ak2JNXqAaiZTm3pKxMJauLyMOIGyBRQX8l+7dAwC4j6gaB3B+BKkgYzboAK2fh9Qt8BEN+zkYS7Eh5fWYZNNkA7Gjl4BuyI5NZUU9gfoWgyWzpR0xrFxtJX9lgCKVpGb77LnwB0LgvbKxxeLQqWyTIBhctScxnuTapnSZuNE7h/HX3OJo8D26rbMt0LlHf0UhTOV+rZxfgGy7uB72ABoiO8fnPDstznYIWjoyb95o5I/abhYAmlniYOtlzL8/saDVUcvx+ScnAfv78V2JsvxaDzGLSPk+8RiO8/EwonWP90tFq7ZSzah6nnxKiw1CwjXtxa1uvFz9u/4dLnB5eNX66KBx8921B8Q1xcMEBfBW8bhnuLpcdkuBcx8TmS48HT2a3lB1PfsszMmwGv2P0WKMCxI/oJNsDLsJ8uA1zfL/0SLrqyvqFBGSV+LRgg4X/w/c+huH14f9X09fz0dHlTtf/fv5qyny6vteTzfw==);lineShape=1;" vertex="1" parent="1">
                    <mxGeometry x="10.167211904401256" y="212.51652794904027" width="7.5784362661271345" height="9.055589054128284" as="geometry"/>
                </mxCell>
                <mxCell id="107" value="" style="shape=stencil(fVbbchoxDP2afT0j25Ivz0n6H8yElJ0SyBDaJn9fbXcWkGH1ZszRSjo6kjykp8/d5mM7RPo8n46/tn/H1/NuSM9DjONhtz2NZz0N6WVIT2/H0/bn6fj78Dr//thMyOn0fvwzfeFrtmOGlMkq0vd808D8/+LHjN+Phxu8JIRo8AmxreOz4qvBE4KDLwkldHiu6/iaIM3geQnwIb4FFIsPhJIcgwLO1qAhOx4CEYiMhXJas+OiIbDNgZCcpBujWVJFfRaHpYIm1kBvnCRK7WnKyeU1V7D1kAWBHCFVUOw9ZCdprn2l9RPNkRIHhC7pAHFKnTLY9gJHl9YkIOshBeTgGBSQrXQMiOLkEBEtS8EPaRKClassPD/Gt0X9136rTkCF+oAuan+sPFrGySVjiPP92pBs/1dErz0FzTZbyEvDrjWb2IRjRnIYVYNqI1KdeL3TMoqliIvLUaN+BossN6sG9c7ASVpZpa6dlSVHqFV6GZW8+FwdGF3dBOwNehWGZalFd65mQu42VXGlNLWCrfTNaH7cnjqIbRJT8R31qThF+pjIWZ9BR1aXREB1QtLt1Dpe2a0cL+17KZwgeQ763aNz2+PobrlJv3D1cH1tvI37/fxYuf2/f53o1fyySS//AA==);lineShape=1;" vertex="1" parent="1">
                    <mxGeometry x="251.10902809440768" y="179.18114748811206" width="0.5828279584097532" height="0.5814034274329006" as="geometry"/>
                </mxCell>
                <mxCell id="108" value="" style="shape=stencil(lVvbkhU3DPyafXXJd/uZJP9BFRC2QoACcvv7tLNln+P2nCa8LYt6xmNLrZbkfYqvvr5//fntU7Cv3758+u3tX89vvr1/ij89hfD88f3bL8/f8NNT/Pkpvnr36cvbX798+uPjm5d/f349LMdPv3/6czzh7xdc7662gQr2z8tvzHX/3y9+ebH/8Pxxtw9+s/fOR2HfXGtkH4u0z/z8EqS9dbLv6vnVlbTZBxeTtA9sX9XzC39vdL5J+9TJvqj9L87bZp+cqfVnVzPZpyztYyP7rs43O9vXk/Xz0/y8m33v0t7Xzb64rPYT27fb4wCV/+B4Atk3tf7gctns4bAm7OGO+3r6/KBH9rGQfVP+YK7G3f/NJbVB5mx/gfcuiC9o3cXMAEURrbmyu4QProg9bZU5yEf5DQ1Btm+qh1cLL215HuoCZP2G5OruFr7Mr7oGRJcJAEdSgOACnUOXkdxsEttiInNRuHbtruyuMbhU7FJtfNIguy6WVCuTEdjCKwCCnQDgG7FLFeewnzTiP6mPjq7SG6rLakmBCQMRXQTDV39kEB2i1fgconcmvqF0DqAIZxEBVMBB+zfEKD+6rD1ZgOSaApTJcguARCR2qSC+dm+NVSaGkua5LkBzVWxriccbukxVBdS9n0PyUzxcAzwfXAoymRebjrAAccqHRwAjQJLxkPvk6gVYCfsagJimbyhzG64BdeqhBVj0fA0oM8EuQJ859RqQJqksCWDTf68BkZ0v4xyEL2XP+QGPaGpJOIc9A+UsZUZq/NFj38S2Ytcpr+MoTQGSyzsZw1mK8CX4Zt2VJBxeOd/N+xcgTra9BCC+Ei0pzyR2DagshsEjRUQcSCXtJw1qM/WGw5dAnkkE0CDGPR5Az1XsEqjX7weHjCGXBBKgN0QXBZEhfRB7I+spcYIElXbWQF5VdB+OmK5lllnXgOMckOrVtiKNk7fWJnU3hEKlbe2TCx8BiCoBUAcX1q4vpW4yA0HsUGJvXhLZrdS8AyjNB0DYdwkqUFUPUHikKqEzvQggaEgiAQCaBhgtaRHPNaAxkUFcKzKGDiZFBoAiAQCMzqHICgXSPEUGKKEL8d/JNaokYwBiZ0AS3upX1XwHUFnUr5BfgOa8foMFBij3Rk1FIQqA8lYAbOcllIIqplHmsbfqEEUh2XYAqlOlZlDbcjX9nfYTR+itHr8uspi7Ue938cmVuxk9yvYTHHn3o9E/EbEAN9rPrOtQiLN0WfZVaoDAFV8HbYv9MS5ae5f7aUe30Gw2jB4AfP5BAImY3uUJGPPdsNfP92yvpKRxP2x0WIWHXtkrmWeTqO7sFV8bBzHslbgw7ocNe7l+3w57wVvwiGP9qqC3I2JgLz0unvsj18/9ti4bzrA/9lOVqXZEmO4WXK1fJXDsz7H/XfrDuf+qAWvcf/0fEXwETJcOZyel6IA5HFR1bC8DUhPEGZDS4c71qNLxioCUBjTusY0AkATxY/ZhCsq7lCELIi7GkZJUACRu7iLlqf0sh/9oQVq5b4QUrAiozV70XYqXEynuQI4WvZKvxpUNRI1iIKigTOKyz6HNI51FWRgAVZICQLJmaEX1DZELRgBMi0tSckPvKq2YmNebrjABqIkBUiBnbtGgKlDtDX+MylqRqQ91B3EvAKbecAwHm44FlELUrRjFlgI0jmaUc0pO+GM+2/RAEQUjSV5UmCoeRkajgwuy/kOVTBkBAJVxAKAQRR0uOy6BW8fNZMEYzimh1r3hiAcAVAsfNMlNoKZbNJmFS9URN2oPaqAUqXzBrJT6AZDn0Fhb1CzLanArldU1Sq0Qjcm7Bqmmop/PWwA/B7iP+oOk1+pSTI86kET3pcltjUe/fExjdBe17gdXimwCxT5ruAVIMqEkm0XuXSdYNXZTYBIoXoqGMdagTrDJwj0Vrityk1k0Ne4a5TKz3jVg6eoFyHMK8GiqUI6pgur5j/+muYWXdJ8TD/OzyfZALixWU5Oj9lxZXaUqh8jYdb5vUvQuNW7RpCSHyPm4gZSiFPTwnEyANfq4BnjulycvqbIEbh0nnR9K5FtCUVepCEia48WmR7z5eEORVFkOcRKznqcuR1iAJBN7Oa4LgDyVa5SD7kHP6uBAvTwTNl0LeO4EjxSjrjyEeUwL0OSItx7lD9KkUsY1sbeOG09qSZmvnkAbqD7tSOMEiJIEoCxopDUEkQKsCnIBdNsVcooUmddds6HwCNDkSKtF7pNAKyvNN8YaBFhX6a4BmbXGaOrrW0nUfEVVpE4aBQy5Bgo12Z1uPJYDQJ5Dn9dxFsDLBjsAjQAmU9aobakdoO8L+qO/KHkP9jw90vf/AmufNYN+ZE9XNqrUVj0ySxbpp7BvfD+yqf1Mx8WCyeOP7EmJJZnazvuaSd9PPSZfUd6OGvdN6SqSHECM+6x050wSRS8cxkF2e/pBjnoA1CuXVV7f76zcWvGSVcZ8he9bK+EMexKdJjs3vfNNFpNK/jZtuNmrMfyt231nr7734n75d55PNzVNptfb9OZmr2b2t+743f7o9Xdev7qgddcdvzsw1aa6AuTvfAGvSGnTqy9WA6lhzycsbyBfnJhkuB//i4Pv2OOH2583vHv+8OHlryPu/5//HAK/evlTivjzvw==);lineShape=1;" vertex="1" parent="1">
                    <mxGeometry x="186.74823254187845" y="178.86045009342365" width="65.26302920589617" height="40.520142958209576" as="geometry"/>
                </mxCell>
                <mxCell id="109" value="" style="shape=stencil(nVnbUhsxDP2avGos27KtZ0r/gxlCyZQCA/T299U247CWsye0b0tWZ23dj8QuXb3e3zzvdzG8vr08fd3/PNy+3e/Sp12Mh8f7/cvhzZ526XqXru6eXvZfXp6+P94e/36+WSSXp29PP5Yv/DriYiHVBRXD7+MvTDX9/eHzUf7h8DjKswzylWIB8pnKKM+JagWARNEBGrUIAEy5DgA7U2UbwEqpDYDEpEBnNhuNJyT7RACATDkPgFwoAytxpJAGgCTivA1QauMBopSBkSrVUb4IRd6WLxTi6OVArNvymWoY5TMJ+L7FgPt+IwZRMQVFYwoNyZfRY02IgceElEd5cxjQt/W3J/lKCcgz9xg+AUxhoIDFHI9B2rTHyGYajCdooADSIE5RrWZToEOKXgeNxMjJZqVRB7WoBlGaU689J0CGJ+RGVTxAAcDSSsoIECrgSjJljhboh8K9NKwASOliFXI6AcVqqT55LlzJctdlpymNKmRNvVqtAA3UrypTLAlVEN6W7pInAFC6zWaV3lnOA7JPIANkBCjdJqtYQley/IrBA5Af1FqluxLDPmKAVjwApai2yXEMY0nVN57lSiBaDSDsARUDXKuyqhFR5QtWt4JHoKS2I9RpbWkOuokBztQZZFfr9xOgACXMEc2ZSXpL3QLE6AEMwtVio0yAgJSu/fU6vpHSZSpMuZthC5AmP1TEYgrF6gEwvu0EB4idam3qMCUEqmRmJZ7iO6Pgq2dOgNStdcK8TmrkOIsl8YCIU85biS/mg3izInq1ZNzkB1QrzyV16tGyWTeSByjOUc82jIOicNXpShnOAf8OCKQugxpU2lhkax6gwBHW5TzrO9XbD/bRlWs+2qoVs4eZDNidQPidoRuK2UPoxXcFQOXYKFNRD0AZYaRMJh0ypn086RABwIilG1sXVyMmmvr31sEEdDBynF24GnNEbDqdoa6KprI2tZQCS5mNEHlqi6jx2pAiLr6tB6GpZk45zAVY/KhopazhUc7NxgZAlKlOnZ3hMsBIpNMgwFmdvU1ttIxA46kStwR9EHy/aoESKDHcx87TbF9hu4qeBFTsseSbVVG4ghLfFyy5UWZWn/pymmM3djHuPhJ7Ldha9rgVWhYSvE5yRCydUvs8wKjeGBIJzw2sPpEtChltGwI110ZaP/M8IHZStNoDoiuZm2Usd6VT6q1FY/SLzAuLSbcFDLD8mrxrg9aEgA+WlVh18ihrLExd2gTI/03eke2A90PiWyBu+/MK0OSRPUsvgu/yEX9f/H0Qz17cH7z9cedwjYDhABannGHYXf9jcX5B3h7et/R3h4eH45J//d5v9e2n438E0vUf);lineShape=1;" vertex="1" parent="1">
                    <mxGeometry x="186.53211755426264" y="212.797272181265" width="9.739300399988732" height="8.910584008443626" as="geometry"/>
                </mxCell>
                <mxCell id="110" value="" style="shape=stencil(lZrZcls3DIafRrcY7st1mr5HZuLUmrp2xnG6vH3BqjwSQeineCdb/HRI7ADPyX/68fzl+9PJmR8f72+/P/11/vrxfPK/nJw7vz4/vZ8/+NPJfz75T9/e3p9+e3/7+fr18vf3L21l+/TH25/tF/6+cJWia5Az/1z+Ycil//7x62X5y/n1Zrk1VMf1lrwB6yOFOKx3VPz99fxzpg7rA+UA1kdy434S2Xp/vTdyP4UM+H2f+uOP8xry9j4QPIUyAnxiIKHIOxISjeQLADIFsSU+A3hC8lJnrOT/ta4C2VD2I+DJRABksgJgvQMzKo5yHoEMpVT40KNdsOUWcIZqyY2K9pYS0HQNZEYpeU8emGqNlMct+UAVKK6ylMQTEt5SpiSeUKB3MlBHPfhKFSiusuWMQLAU0RkYGBXHBu+QlMrk0IEK3pI1I5C6hzwKZKwHBuwI1O60DwLstBVYqwK4bo6PAp4i0vQMBBhYFSCR2Tt0hnFJAQqlPaBuKi7h7KMAjhKI3grAwRO56AxwRgIJSAE4COydgUNl3gIq2S3j4wQQtraUF7F1BtzmGXLogedRYFcPOVHck1LuCeBRoPYU8yBQzOYZCkfvLT1cE/GjAPvDHhB71nsUSOS2XJRrg0UGsmkEOItiKbkxZZUKi0oGRHFSTc9694BUJLAQq6g1uL4pOFSWsUisbmWtVQCeEtpS7YXzAQTsQFVWZFxBeaQH7k1GTdeEg0ClHCWQYTdjeuV8EFxoIuursiSruPjm35N7KhSBubbYK07NWRFoLrG5jme4OZZOHJn/9hFATimQyxJA5sdptiYJoEDDgPC5JmlgTQx4J4EINMeJ3Exb8kiugYKXgEOHTv3rWwBtqcjWjwELpMS2kWYAbInTbJoOjYIlp9lZrB7Eb06zs5QC8GoGymRLER069vro1paAefMZUpAA6hWzlz1K8wcEWNnJVVy5pim6PuCjedIcfMRR/98C2CH8BBQEODl4uEbDu049PQF1NQzk6QkBmGurzqdgicYzXJ3PHoQcgottmaqxy20DXO+I8Uxr40Ho43pHDE8WSYvrHTHaWOTFViBlCaDMy4AYIy5yOwNixLSoHhiQ5o3rEwbELGRRATVgq8biqlCGDVzFlTolCFwnliqHiYtKlL8W5r2odRswanpRTSsArtcVAHcECoB7DgXAXY0C4L5JAXBnNgOL3k8BcHepALh/VQDcISsA7sEVAHf5CoDnCAqAJxUzsJiFKACetigAnucowK4eFjMpBcBTLwXAc7UZWEzuFADPBhUATx8VAM83FQBPUBUAz2gVAE+BFQDPmRswFomLSbYC4Fm5AuBpfDnatgPA8/4GiCsIfKPAQBQ3CvjOomVRcY2Cb0XKNKnwR0F0r3SQFzWpy+1eCedHsfpIBrnoVLe22ykUNZxss7zFXVOVPU27YQNP4GwQxr6s3eHhJkhe+kWYdluPLwDfLxpVIMY+WjkAA4Mxu4sZNd3uUsEZgpMDI4tvOpteRefnoFjdccV3bRVhjnNW9kAFCskm2U8nONawkxZwnEy9mz900Atx/ecpj7vn1AN8cxrYGTieMPJ+08AIbHrTcl2OWjcjJW9gZXs44HU5qqeczAbHYXRLkwMDAyNK6JnlZjmaR0gzxr+e5Z2sga9ZTNfQBuduGUgMtPgqu1nTJ6Z3lm+9ErNczh+ub998O7+8XF7euf1evq3D/7q86eM//ws=);lineShape=1;" vertex="1" parent="1">
                    <mxGeometry x="251.9179964102807" y="179.3668869648327" width="2.787784777469984" height="45.90877391341088" as="geometry"/>
                </mxCell>
                <mxCell id="111" value="" style="shape=stencil(lVfZbhsxDPwavxKiTuo5Tf8jQJzGaBoHjnv9fekaWi+5uxPkbQ+OJB7DoXbp7v354W2/i+H9fDp+3/8+PJ6fd+nLLsbD6/P+dDjr0y7d79Ld0/G0/3Y6/nx9vL6/PVwsL08/jr8uK/y54iJJvYBi+Hv9ECiE/x++Xs1fDq8zc2bK1p6JI7BvlIuxj9T6tn1MlIOxL1QZ2HfK3dh3KmnbPuly7vyZOnA4M7VsHeBxxHVAoyYWIFTqNqCk8XsAUqUEfCjifciZUtsGVA0q26BGymCHKhQsoAZisEOLVGyUahuJWQdUKjZvLVOQbYAESg7QqQIfJJFEA5BMDI4kjYL1QQRyoTeKzdYe9qELxeABCbCnd58HBQhwWgHVOt0LFXSkTt3ys1fKHwCc05rpjI/kGCqUAB8UwMkC9AvaQdcrHtBw4nL2gI6cnmIyByAfNOrNA1C13vI6AwQMSOzDGlEtTbU5S1wEfFAAL0oD9SUFFOdDGd1/K0q8IFBDO9QVPkSUh7oo7w8o2oYazHcAAqRRb9UDYKb7ovjKSOUWQJrPA2rGHCYNn6UaqfRlC9c2tPVhjnrKCZRR/V0X9V0QqVVGF6TuyIc6BotJ2QOeZRQh4VMIiVQdh3hI67rMKevtFqoyqJepLrr5R/dEtFblbbY6dIkEKly1XawPtY8l1gETxSZAhE6XPka2adzIQwPWAdkPoXlKzfqM1T0gdVjgedHLEsMjJfEiFPOI2zogem1nGb1nfXJdaIpOogw4p5N5t0fiQAXkgQuJdbrB2VuXE8ugMrR+/UAUxZkzujpQtYWaoYRO94qbeQXxD4uZeAxnG+bJZiuNNr5h7rQzEcPDuP4bxziwZW4jw7BywpDtmzma/jUyVm/CIM9W3IMzRxrOy9VhEVP05qjhfvJ2+qG5Ptwuwk+Hl5frPXr+31+c9dP10p3u/wE=);lineShape=1;" vertex="1" parent="1">
                    <mxGeometry x="249.19598333290946" y="221.14513305828956" width="5.6061751883924655" height="5.607093928302086" as="geometry"/>
                </mxCell>
                <mxCell id="112" value="" style="shape=stencil(rVddb9swDPw1fj1Ioj6fu+5/FGi6BMuSIs229t+PnuHMoucLBuzNcY7yUUcepUEe3vZPr7shuLfr5fx19/PwfN0P8mkI4XDa7y6Hqz4N8jjIw8v5svtyOX8/PU+/X59G5Pj07fxjXOF9imsVJYxRwX1MbyJa+v3i84Q/Hk4LfG3wPd57hLAdUBpi6QMaQiEBYSYwB4QEke2AnFB8FyABUrcDUoXLfc4OsZEAh+r6gIoatwNinFOcA1JBIjlIQesDNKvmSIDASRdQBEK2NVSk2gVUh0CUHguhT7pmeLKtEdkI7Rwcy8GWUmsoRAaPki0+5G28s6WtxR7JFrkVHxWN8NfsDD4jUj6xl6wlRKKAh/QCtDhr+HfFkPrGaYLGqhQuWnxibYAcVnjCp8DLio8n3gJpq3xJ06j6ze6nEP5aXYZPvoPPpt4KItnPBmf4aL3RfF3fkWM9E3xe8W9zR2zo5Xs+9xvSCtxQyQaF2Q8WeNYAftUwOn1IAzjroipAJQVxy24hcCUbquubBtBRQg3CmLQWaGUWCr9qYE9mpczlvmiYTPik1foyW8B/wftsHaUqIVYQOih7hYsONpKxUjIeXTwdMuJt02SlRHLQyWpcNCUENsYE1ZwOMh2USSmZ80fhsuko7r+g1uFJwHgW6DtZW4k56XiGMrM40VFQ18cJBOIUTWdNr5ujByItNEkGz6xRG0Xs+p6NAnX+bPDM6cZJ7S2e8Vfnt3xYTaixiRh8Zvnq7DCCwXO8sWo9HLF82yz/rYLoaXExKW5FPTPc+kA1TUBnk+Kl7+OIyBL4x3vKfbw+/LkUvRyOx+lOtfzfXqL01XQBk8df);lineShape=1;" vertex="1" parent="1">
                    <mxGeometry x="254.80173857310365" y="221.3712042856372" width="3.2647680813080275" height="4.936608899025166" as="geometry"/>
                </mxCell>
                <mxCell id="113" value="" style="shape=stencil(lVpbchw3DDyNflkEAb6+HecerrIcqeJILll53T6YqEgtm7O99p+EZfMBgEADnDv98P3h07f7uxS/v748/37/9+Pn14c7/eUupcenh/uXx1f/604/3umHL88v97+9PP/59Pnt/2+fjpHHX388/3XM8M8bLoZUDlCK/w5BjP8Lfn0b/vXxaRneKg6368MlqMBwyWx4xdm1XB+e9tkr2UwKrS/DJaR6fbiGnGF4J3u3kNoy3JeT68NzkLQM11DJUUuQ9agWml4fXkNaZy8hkqO2YOveazCymR56XIb3EMlmRHB6cUMR3YgGWZ1SUrBOABb6qh6XJOZoJRRYwTVEjixteOIEVGrf42LAlnowsiV3r7zazCWRreAOtjqoSywRgI2rPQHudAyQQ4QtudtxANjBJY1dyRKqrgCXNAKoIa8hwiWVuPbh26Clxg3X0VsPfyeG04i+pBKEnEHTuIwTkIbtzwFuptVwakFIlNYcCkSXaZlzQB3RZwLqiJbn0c7de1WrupaIpc19c7W0S9gZzNC9XaIsAFdMZea3nG2po5ashU4MlwUzSOYpJNsIjBOgNJDlglc0uylZGnEzrYd2SSXBOG+HdgnNPIKJzSWFaKlsebbMVHoOsBG2JiCPNc8BeVuhhM7OUIPaCmgjjpwD2kivMyNy5uI/g5aqa4m4t/8Md7oqpVL+s6z3odq4UucAG54zAa43tiV3vlWttQYhWvKf8+p8tVH3rh2ToksqUWuLwVYtuaSTFZpgIGspJKKlppjjXJLYCoZ2cEkiztfyBshD0eeAMhzhAsCyaJs5cwJKMMb3Kt44lzCu4T93QwCjiM35UkdAY1tqg1lMQKOxtfXB8C4AhQPgxrlEyKG732lBQGG82GntemiXKLF0l3FdJkCoL3UveYB6p7HJc4AO758AlxBf6oaH7jzt9rwBMg0CvYygMgFlxJFzQEWu4ZJM7rT/3FZv7e6OhGD1rQBySWVnmGFrAvpIMdcA4N4HgKm1Y447ACQp9slSLwCs4DgADQEsT0uMyE4cUW4ssR2CkY0DUBDQbqwgCOjMNzrSync9XDU1Vq+8R9K3QHN7iWI/eYi86fWGmvKm1xuGyJuabpgaCrMb3nTMt2nphr+W7Qw0unYsLn/gzm1bunWrt0MryUHvdr08NLd039XKeifnl5QEv3ME6wucbor1BU6PzerRU8V2rlgw3Q/c0p9FtC35dp5WKtZaPgVj4J4ImyCAbsnLelih0l6cJ3MMsJkrVjeAUTLqhATTilKO7wAokl3CSljnSLKxJpqt45beIz1025NvHLa/BkC622lbyrkqZOtjCsbAvWAFBu6+RJKK/yyKAGNVRB2X/oKy01pr6zK7hMUmr0ogbbmE2iEjkXOAsmpuc2+fIrMz6GYH4xVpws6AT8E6ll6R5q0iZd1vr3AT1CmzgX5eVTeMGscUrJVQsZntUzA7HI0D6G5UygaO1gQU+oW2dGrCAtOn6Lx/gm8WGjIDROy61kQfRUpDguJTsF5cqfhIU/poLlzrYwGj8SmMrWCjsXzRKWOhsqRhpgkwmlCKYO/BpxDeT4TIVyKtSPOWFHOj7fKckYBn/pqVFe9DVtoezLOhedHXZS+J1rEtZZy72lbCukSIa5ih4Yy/+FnCQt8lLPLpVghZpFRUK5YE2ijZ1YxBQAsl7KrYDlELmb2kCHa/NdGUpXGkwAkQ+kaQti7TMQV7PmrYDnmf4hxQB4ecgEYvUCojzk1ApS3OlEdfbAIKbXEmwz5W4g3598frCTDaOU4Jg8DxmslWkLHjCRDa4pSd3vfBlc8BHoVW13AJO7QU9CWXsLaU+J2GDxCMRm9JWDYdEvZKLeitMrnyOTPeSmpO4AatmBmRvowWLBMLfXTJGJAyLb7390Hq1Nvjt/LgNZrP099oJErIFYQSqjQ+NngfTr9vQN4s9DEqImuOlKFGzByRemVEDsI/5oj4oUukr4cbS4u0eRGRrkTaSt4+yoiUWW+NEd7OPxtOv6WKqJnEj5phuJDrEfExzwX0qIKKZH2ErUaJ9P3op78yuzHc/3j/oO3L49evb9/DXf6OH8C56O3jOf34Hw==);lineShape=1;" vertex="1" parent="1">
                    <mxGeometry x="251.22199038949566" y="178.6711764495622" width="61.119033367870166" height="41.52948151824544" as="geometry"/>
                </mxCell>
                <mxCell id="114" value="" style="shape=stencil(nVhJbhtBDHyNrkTvy9lJ/mHAcizEsQzZ2X6fmgitDNmaEpKbFrKbS5Es9i7evT3dv+53wb29n45f9j8OD+9Pu/hhF8Lh5Wl/Orzj0y5+3MW7x+Np//l0/PbycP7+er9ILp++Hr8vJ/w865Uqri1awf06/+KkxT8/fDrLPx9etHxzSj5K90S+Se9KvooP2/LVidfn93HhdXkvOSp5HyVmohAlGYUqhVmUpWqLQpCUiEIbHl4UcAOJaXPDgEtM44jCdQX8nbVCk1KJQpaclEJK4htRQJqrVuiSiEndidM35CSBmNS9dA283CSzG6I0HaUSBnavK+Rx3kUhiy9EAbXgtUKl4O7NYgnwjczpLrlohUAT5x3iqp0AHh0BE65w5ooqieC7F0kaTLVLYXH10vQNzd9CX9FxBYAzqyDUiwYTjmDoQ56qBhMAzBKRy+hyFwXgm6Q6AUy6IBCGRMAUk1QdJQCY5SFAQZsEAAfitE+SjElVAgmrl6ijCqx0kmhnW/cKjRsKJU8XEKy60alX8pVkDbNhciCTXg9rg5UP1GFT//0yvbbsmeQrARH8DVY+UXvKdH4kEELCkpUPJP5eQp/kKYDKZH+k8m06P7MSsFxkiSfBQxjtfJVfR/AA+WjlI42PKYAFbwQPfip5kBeCB28771IvxH5v8Xa7IGeDOmla7opBjA260aBW8ozpuJGedQJowbvpfDbyIW86YqPs0Q24rwFKG4phFEsB0HiaKbMUGD3/3+TBdbtJcKYkCkMmzFOJlDDGWDA16WmKMShNDjBZC/EBozgadlAHS9oa9gZ1CzsgqKjF9kXwj0RMamkQoBXDYYQF7Dfrzli50z3ZWQzO00hrwWj3Zo/KYwnYJLM6D8vmw8hsEW8UPN0R4EM3/Lpxp6ONEgh5u8E0db8A5a8EGq1PS0Wn62ZrliJgbWEmAWrGpHxhDVu7mukZWL0qu8HbDTiiSbIVuNmlAutjJSWKejC7WmiDCWztzFmHFVs/3eL9aFuXSdUo8yp9UoiUei2M387CsYxdVyh2ja+UqwGapkIT9yBZ8uspe1/kda93dDSXqSdhuJMUQN481CA+LKDJkh1HUYf4hGDkWT+CfLLnM64G+Wr9ZVQH+Z0eslhdQj5WK8/iUyz5BXng57dk48nwU+b4M675Hw93N+Tx4e8r4ePh+fn8yLj+374q4qfzi2T8+Bs=);lineShape=1;" vertex="1" parent="1">
                    <mxGeometry x="303.0459463651184" y="210.76103671609866" width="11.056586114753907" height="13.485060964830904" as="geometry"/>
                </mxCell>
                <mxCell id="115" value="" style="shape=table;startSize=0;container=1;collapsible=0;childLayout=tableLayout;" vertex="1" parent="1">
                    <mxGeometry x="359.83" y="160" width="240" height="160" as="geometry"/>
                </mxCell>
                <mxCell id="116" value="" style="shape=tableRow;horizontal=0;startSize=0;swimlaneHead=0;swimlaneBody=0;top=0;left=0;bottom=0;right=0;collapsible=0;dropTarget=0;fillColor=none;points=[[0,0.5],[1,0.5]];portConstraint=eastwest;" vertex="1" parent="115">
                    <mxGeometry width="240" height="40" as="geometry"/>
                </mxCell>
                <mxCell id="117" value="" style="shape=partialRectangle;html=1;whiteSpace=wrap;connectable=0;overflow=hidden;fillColor=none;top=0;left=0;bottom=0;right=0;pointerEvents=1;" vertex="1" parent="116">
                    <mxGeometry width="60" height="40" as="geometry">
                        <mxRectangle width="60" height="40" as="alternateBounds"/>
                    </mxGeometry>
                </mxCell>
                <mxCell id="118" value="" style="shape=partialRectangle;html=1;whiteSpace=wrap;connectable=0;overflow=hidden;fillColor=none;top=0;left=0;bottom=0;right=0;pointerEvents=1;" vertex="1" parent="116">
                    <mxGeometry x="60" width="60" height="40" as="geometry">
                        <mxRectangle width="60" height="40" as="alternateBounds"/>
                    </mxGeometry>
                </mxCell>
                <mxCell id="119" value="" style="shape=partialRectangle;html=1;whiteSpace=wrap;connectable=0;overflow=hidden;fillColor=none;top=0;left=0;bottom=0;right=0;pointerEvents=1;" vertex="1" parent="116">
                    <mxGeometry x="120" width="60" height="40" as="geometry">
                        <mxRectangle width="60" height="40" as="alternateBounds"/>
                    </mxGeometry>
                </mxCell>
                <mxCell id="120" value="" style="shape=partialRectangle;html=1;whiteSpace=wrap;connectable=0;overflow=hidden;fillColor=none;top=0;left=0;bottom=0;right=0;pointerEvents=1;" vertex="1" parent="116">
                    <mxGeometry x="180" width="60" height="40" as="geometry">
                        <mxRectangle width="60" height="40" as="alternateBounds"/>
                    </mxGeometry>
                </mxCell>
                <mxCell id="121" value="" style="shape=tableRow;horizontal=0;startSize=0;swimlaneHead=0;swimlaneBody=0;top=0;left=0;bottom=0;right=0;collapsible=0;dropTarget=0;fillColor=none;points=[[0,0.5],[1,0.5]];portConstraint=eastwest;" vertex="1" parent="115">
                    <mxGeometry y="40" width="240" height="40" as="geometry"/>
                </mxCell>
                <mxCell id="122" value="" style="shape=partialRectangle;html=1;whiteSpace=wrap;connectable=0;overflow=hidden;fillColor=none;top=0;left=0;bottom=0;right=0;pointerEvents=1;" vertex="1" parent="121">
                    <mxGeometry width="60" height="40" as="geometry">
                        <mxRectangle width="60" height="40" as="alternateBounds"/>
                    </mxGeometry>
                </mxCell>
                <mxCell id="123" value="" style="shape=partialRectangle;html=1;whiteSpace=wrap;connectable=0;overflow=hidden;fillColor=none;top=0;left=0;bottom=0;right=0;pointerEvents=1;" vertex="1" parent="121">
                    <mxGeometry x="60" width="60" height="40" as="geometry">
                        <mxRectangle width="60" height="40" as="alternateBounds"/>
                    </mxGeometry>
                </mxCell>
                <mxCell id="124" value="" style="shape=partialRectangle;html=1;whiteSpace=wrap;connectable=0;overflow=hidden;fillColor=none;top=0;left=0;bottom=0;right=0;pointerEvents=1;" vertex="1" parent="121">
                    <mxGeometry x="120" width="60" height="40" as="geometry">
                        <mxRectangle width="60" height="40" as="alternateBounds"/>
                    </mxGeometry>
                </mxCell>
                <mxCell id="125" value="" style="shape=partialRectangle;html=1;whiteSpace=wrap;connectable=0;overflow=hidden;fillColor=none;top=0;left=0;bottom=0;right=0;pointerEvents=1;" vertex="1" parent="121">
                    <mxGeometry x="180" width="60" height="40" as="geometry">
                        <mxRectangle width="60" height="40" as="alternateBounds"/>
                    </mxGeometry>
                </mxCell>
                <mxCell id="126" value="" style="shape=tableRow;horizontal=0;startSize=0;swimlaneHead=0;swimlaneBody=0;top=0;left=0;bottom=0;right=0;collapsible=0;dropTarget=0;fillColor=none;points=[[0,0.5],[1,0.5]];portConstraint=eastwest;" vertex="1" parent="115">
                    <mxGeometry y="80" width="240" height="40" as="geometry"/>
                </mxCell>
                <mxCell id="127" value="" style="shape=partialRectangle;html=1;whiteSpace=wrap;connectable=0;overflow=hidden;fillColor=none;top=0;left=0;bottom=0;right=0;pointerEvents=1;" vertex="1" parent="126">
                    <mxGeometry width="60" height="40" as="geometry">
                        <mxRectangle width="60" height="40" as="alternateBounds"/>
                    </mxGeometry>
                </mxCell>
                <mxCell id="128" value="" style="shape=partialRectangle;html=1;whiteSpace=wrap;connectable=0;overflow=hidden;fillColor=none;top=0;left=0;bottom=0;right=0;pointerEvents=1;" vertex="1" parent="126">
                    <mxGeometry x="60" width="60" height="40" as="geometry">
                        <mxRectangle width="60" height="40" as="alternateBounds"/>
                    </mxGeometry>
                </mxCell>
                <mxCell id="129" value="" style="shape=partialRectangle;html=1;whiteSpace=wrap;connectable=0;overflow=hidden;fillColor=none;top=0;left=0;bottom=0;right=0;pointerEvents=1;" vertex="1" parent="126">
                    <mxGeometry x="120" width="60" height="40" as="geometry">
                        <mxRectangle width="60" height="40" as="alternateBounds"/>
                    </mxGeometry>
                </mxCell>
                <mxCell id="130" value="" style="shape=partialRectangle;html=1;whiteSpace=wrap;connectable=0;overflow=hidden;fillColor=none;top=0;left=0;bottom=0;right=0;pointerEvents=1;" vertex="1" parent="126">
                    <mxGeometry x="180" width="60" height="40" as="geometry">
                        <mxRectangle width="60" height="40" as="alternateBounds"/>
                    </mxGeometry>
                </mxCell>
                <mxCell id="131" value="" style="shape=tableRow;horizontal=0;startSize=0;swimlaneHead=0;swimlaneBody=0;top=0;left=0;bottom=0;right=0;collapsible=0;dropTarget=0;fillColor=none;points=[[0,0.5],[1,0.5]];portConstraint=eastwest;" vertex="1" parent="115">
                    <mxGeometry y="120" width="240" height="40" as="geometry"/>
                </mxCell>
                <mxCell id="132" value="" style="shape=partialRectangle;html=1;whiteSpace=wrap;connectable=0;overflow=hidden;fillColor=none;top=0;left=0;bottom=0;right=0;pointerEvents=1;" vertex="1" parent="131">
                    <mxGeometry width="60" height="40" as="geometry">
                        <mxRectangle width="60" height="40" as="alternateBounds"/>
                    </mxGeometry>
                </mxCell>
                <mxCell id="133" value="" style="shape=partialRectangle;html=1;whiteSpace=wrap;connectable=0;overflow=hidden;fillColor=none;top=0;left=0;bottom=0;right=0;pointerEvents=1;" vertex="1" parent="131">
                    <mxGeometry x="60" width="60" height="40" as="geometry">
                        <mxRectangle width="60" height="40" as="alternateBounds"/>
                    </mxGeometry>
                </mxCell>
                <mxCell id="134" value="" style="shape=partialRectangle;html=1;whiteSpace=wrap;connectable=0;overflow=hidden;fillColor=none;top=0;left=0;bottom=0;right=0;pointerEvents=1;" vertex="1" parent="131">
                    <mxGeometry x="120" width="60" height="40" as="geometry">
                        <mxRectangle width="60" height="40" as="alternateBounds"/>
                    </mxGeometry>
                </mxCell>
                <mxCell id="135" value="" style="shape=partialRectangle;html=1;whiteSpace=wrap;connectable=0;overflow=hidden;fillColor=none;top=0;left=0;bottom=0;right=0;pointerEvents=1;" vertex="1" parent="131">
                    <mxGeometry x="180" width="60" height="40" as="geometry">
                        <mxRectangle width="60" height="40" as="alternateBounds"/>
                    </mxGeometry>
                </mxCell>
                <mxCell id="136" value="" style="shape=stencil(lZbdUttADIWfxrdnpNX+XlN4D2YIjYc0YUKg5e3R1mOIlkSd3vnv88pHR8c7yc3L9v55MwV6OR0PT5vf88NpO8mPKYR5v90c55MeTXI7yc3j4bj5eTy87h+W8+f7/mQ/+nV462/4s3CNUEKnAr0vV2JCan+v3C3Abt6fAxmlGCAJWnWAhsoGyIKaXSCJAUoEeyUltGyAqis4QG2IFmiMFh1AVbIltYLE14FCyFYlJgLRdSITJNolGtiRKRGq7ZzqQE4jooBtI2oFO4BUkAVK84EMsrrmBhIHKGMjUkV1VIphXCGqW5zO6W1pFggITklaQK4G0CKzs0KuaMkCGSE53lARrZlU6OB8dG+TXUFbGfyBoGFG6V8zykPjCLFcB87c/OkNWoPh8hI6MBbQofJa3UdysGtbX3FZJh36YUg1GJySeqzYkr6i53KrBeXbjFYnBjQa6wBofHozmhCHoVZZHTN1QP4HkDima09Dx0whrm7+BBKyE0yc1rQ+i43ofHRBtW4tDHHaEMYwzrym7cXn1ar2AxKvKXLteWuLSODg1ZNsYgRfUc0TWz831xQcR4GYkZweBxmBBHEmRz0x/Bm0AY6garpBofHfpgdfO47HebdbNizn98cdil5adjdy+wE=);lineShape=1;" vertex="1" parent="1">
                    <mxGeometry x="389.1002160051499" y="180.81188413306637" width="0.5916759388793948" height="0.5934910027304153" as="geometry"/>
                </mxCell>
                <mxCell id="137" value="" style="shape=stencil(nZzZchRHEEW/Rq8VtS/P2P4PIhBGYYwIwNvfO8tytaZvzZwxfgMpb3ctudxcWg/pzdcPbz8/PkT/9duX518e/3h69+3DQ/rhIcanTx8evzx9s389pB8f0pv3z18ef/7y/Nundy////x2Ss5//fr8+3zCny+4MdwYExX9Xy8/8a7mf37w04v8x6dPZ/leTvLB5YTytZ7kowv8/JRO8sn5hvLBi3wNIN9djyf57AKtv7uSRb5GlPfhJF94Pc2183qqC/T85nIXeVxPW8e95O0HFeSr617kUR+qK+f99nUht+RDE/lK8sW1836H8wPl0xD5QuvPblSRH/T87PL5+cGzAWTnswL+NaHrgOTKeUUhuEhLMgvxCmikE9FlecMdowyuZwWg1gXVupD4DXaIG6DCKfXhmvihjG8wgG8KIM3u3eWzZofCb2iubwB8Q3NRAGYd4Cx6dc0roID1GCA2BXRaUnH9bG7B/AUonwHUHpordHFlbfECMECXelYPGbqLHQGxKqCCz+vJNTklUxYGhKEA8jI9qte2MEturAe9aQOQTXdzKue4OQMzqEYbGyBiJGzdtQ0w6A1tefYDYAcN6t2qy2ebtmBb4JRaWYpwAMpybdcBWaOPhU/yrS2p17B46EG9W1y/vgA0ekNY8f4A9BVSrwO8i/KG4SJcXB0rQF0ABryhmrkIB/OuAAmrTUlhspAF2moAOVYD4JKq2nTiCFSLeu+UFrO8DjBVO99Dymii9SCaFwCyhxqVCqeygth1wOYEUkWyVM1HyBsa2kMZSzcPQEd7KF29RhroNUpTQDbPR4CqXMMAdKzFQtZ509nODZxxyUvVDkBE720A4fTZdImWlDTG5YMFXgdEVe+c0d2XoHwpG/EFXSp+nckFAI/VrunsW3NFopuHskoDUGDPfS3gAJi2MiBVBQxaUttUo69zuwVITQEDjnVuUfYwFiG6BUiSHzITsGtqG4C8hgEkApmyEEk0VYtnJ2DqmMBrmPZLQDGFT3SsG/0xk8KbDqpLZuUFOJ/5iHy+B/MjDUKWuS25afNUA95gjlEBA5mxuV7JRM09Z4hx5tzFpi0AEJW28CEhy0IMnZIFqCpLSuj5LGYOeUNG9TaAEKwZiMFELYyLLlmopzhtREH30NY7rwO8Zvj1zk37RacOwFE0ugowOpVl0wOJ7qx5SFGGq25xSy2NNhYwUaO14+wEjJiSxRlAvIZRX8qy4pbHTXJNAPu1vKFgtmvZQjh7DUsQiDpYPhKzAig+WIokxUbLWRod61amsKyImPHMC8/aankXOQFLVYWRWWYXYUkze5aCWsBjDW2rwBn3BuULVam0pbMNAsose8geEuaiBvBnN2M5PFV9Q96WxHwpJDWgznzJADEqgNhMiErW+5HO3gLoPVT0SyGo1+gNA3vYUsvekYYGv+LNBQCr18p++lhGfkNePKvJVyqDrBzvKM4eye8Neb/JNzjSpjRjhFUwu55grQu6kG+UVK77OeQj+sjNCQ/OcotmlLMWTOnbSlsu5Ml95eU+D/m8soIb8tIsGVzAyasXccgX7H4kTWJGQf1JSrZHRWcaXW8q3ymAaOCf7RmwyKhlD5NH1+uq6FvHfH6z39mug/PxWnCb7UDQB79o/lH39H41H24AxODnC0CBvPYNxsAs1a867YU8GbzXTH72J+ECvLZWxsH1bslHlU+g0FuSPfuZfD7bfilQeq0rTHlw6F6TnCmP55+39VOEOeqIl/sFA/Ma8kyeDNhvBsN065o8OcRr66EA4Fc+dmmQuH7ppkz9h4Bn9yXtmvsGuV0A9Tu9kpQpjxveFZo86FEMvDRIXM9ukIWfvxl8YgPeDCaiAYdt/dT//l75oCnNHBiA/QYt3Zs8NQfidv4VuX3UBGjwvELUfqJFbKw4bAwlc7Ku1bFxp7KkWasxoI4MSBlcQv3JK95eMLgO6y9aezP5hPLShDMGik0HF73KUwDbOswmj/2u7fkeWxRNOxTDc1NdS74zY4D77crQOwekseVUfYW0WymSdN8sCRuUn/st82SOaFmbbrniwEgIWxZWObfdam69YFQygJ7q3exZ4rzl51RCC1tjdnbxGSBzSp1TmVCUq3duX89ZjK6AyADJlnrAbkNoaszdL/d9qzgk/L4NrHKHrcrdOvZZd8JuABqFiGErAzZM0WfEOVPk2fanCBK1ftsKhnyLCXIPLaNP2p12S4sX3qp9SlOzRUw7pluVTQeuTDY1IANQZm+OTxogzeOgXxxa4KpjcY1bAHECtaMTSF5jc+V6VdqampXJSNpKaJUdmQGk9VszJrwpaYXFAFSDTnnbAw+wpqKMvEZkhGnzSzVgUSY1LQOWgVWH1NWmS8fq6pwBEEDjLqjXXkCp2G3IQSeuSuFKVNTZupLQ8+WkqXWJGLJmS19ajuEeQEYWi8d7yNssa/GYLeeqS5rdaHpDVTeTO84H5m1wJ/PAiAEkA55NeepGb8o3m/J0cd1VWVLlexjbsEXl9vXQJCYXJvVbHW5eJTgB05x9/qPDpk03/QagbrQBpJNrCk9jZmXrmGSOcSWru89HqL8O2KrXmafGzEdIcmt+JNGmm/YPzFPhpreGQ+pcgN/6e+ZtiZHVTTVSxQqPOXcpCRkA59KiFnVniAH1rkmpgwUxOlYLgVJWT8y9LSqLM7ZATOpdt0ZI4qBoAJn0MTKBe2hrvPwAeOQaRnYkaTIAZZZ1a3YZg6LU3gibjo52XJIBhOjGhmzGOKT0N2b+DntoUVPLyAPnRpyFJL5WLK4DylLmA5AxTlu2oOOvzMhaU/WegwU86CxdLEtBaNyvDfUalhWRm7E0T7xG5JmuHrYRXlY+S1X3CXWKcX1rfQXmfLOlXxRA6bEBhjSPeDK656243bCjPmcAmgLwe4qi+YPl8DT/YQC5uMDJa6+a7RqAeOscGpCPFwqG3Tk00BRAnG8ODcgbMrYAeteEI/AQWO/b50IJ/VIfOshmAOpzzqKh3EPEfNoAEh8MQPFhhFVjOAABQ9aI2ydPAVtVs7UvF+eRt479qxOmPwbQbhWWKkdWX3zcyy15OaM73+Zl5aD8Xc7YiuMdexlzGOD8/MZXVrYhOWzWju1rqsrPr/pZREEzmN9qylwt3+8xLn3wYez2m7zMZWWsRI+mlbfEz+/arErYfDV56b5GnHedvWVxEzjo/9pLf5Wn5vpsDZ5p6h37GjoO4XF6aMrrt9Y0uTp710Xk0b6G2iN/ajFbrbpf6h2/tmb/s7x8u3t3Pf079zt0/XfOU/T57n1t38aTPlz03l8BxAP/x8f3d+TtH69f+r9/+vjx5Q8FXP5e/zKA/ejlrwqkH/8G);lineShape=1;" vertex="1" parent="1">
                    <mxGeometry x="387.99" y="180.43" width="2.01" height="39.57" as="geometry"/>
                </mxCell>
                <mxCell id="139" value="" style="shape=stencil(fVbbchoxDP2afT0j25Ivz0n6H8yElJ0SyBDaJn9fbXcWkGH1ZszRSjo6kjykp8/d5mM7RPo8n46/tn/H1/NuSM9DjONhtz2NZz0N6WVIT2/H0/bn6fj78Dr//thMyOn0fvwzfeFrtmOGlMkq0vd808D8/+LHjN+Phxu8JIRo8AmxreOz4qvBE4KDLwkldHiu6/iaIM3geQnwIb4FFIsPhJIcgwLO1qAhOx4CEYiMhXJas+OiIbDNgZCcpBujWVJFfRaHpYIm1kBvnCRK7WnKyeU1V7D1kAWBHCFVUOw9ZCdprn2l9RPNkRIHhC7pAHFKnTLY9gJHl9YkIOshBeTgGBSQrXQMiOLkEBEtS8EPaRKClassPD/Gt0X9136rTkCF+oAuan+sPFrGySVjiPP92pBs/1dErz0FzTZbyEvDrjWb2IRjRnIYVYNqI1KdeL3TMoqliIvLUaN+BossN6sG9c7ASVpZpa6dlSVHqFV6GZW8+FwdGF3dBOwNehWGZalFd65mQu42VXGlNLWCrfTNaH7cnjqIbRJT8R31qThF+pjIWZ9BR1aXREB1QtLt1Dpe2a0cL+17KZwgeQ763aNz2+PobrlJv3D1cH1tvI37/fxYuf2/f53o1fyySS//AA==);lineShape=1;" vertex="1" parent="1">
                    <mxGeometry x="570.9390280944076" y="179.18114748811206" width="0.5828279584097532" height="0.5814034274329006" as="geometry"/>
                </mxCell>
                <mxCell id="140" value="" style="shape=stencil(lVvbkhU3DPyafXXJd/uZJP9BFRC2QoACcvv7tLNln+P2nCa8LYt6xmNLrZbkfYqvvr5//fntU7Cv3758+u3tX89vvr1/ij89hfD88f3bL8/f8NNT/Pkpvnr36cvbX798+uPjm5d/f349LMdPv3/6czzh7xdc7662gQr2z8tvzHX/3y9+ebH/8Pxxtw9+s/fOR2HfXGtkH4u0z/z8EqS9dbLv6vnVlbTZBxeTtA9sX9XzC39vdL5J+9TJvqj9L87bZp+cqfVnVzPZpyztYyP7rs43O9vXk/Xz0/y8m33v0t7Xzb64rPYT27fb4wCV/+B4Atk3tf7gctns4bAm7OGO+3r6/KBH9rGQfVP+YK7G3f/NJbVB5mx/gfcuiC9o3cXMAEURrbmyu4QProg9bZU5yEf5DQ1Btm+qh1cLL215HuoCZP2G5OruFr7Mr7oGRJcJAEdSgOACnUOXkdxsEttiInNRuHbtruyuMbhU7FJtfNIguy6WVCuTEdjCKwCCnQDgG7FLFeewnzTiP6mPjq7SG6rLakmBCQMRXQTDV39kEB2i1fgconcmvqF0DqAIZxEBVMBB+zfEKD+6rD1ZgOSaApTJcguARCR2qSC+dm+NVSaGkua5LkBzVWxriccbukxVBdS9n0PyUzxcAzwfXAoymRebjrAAccqHRwAjQJLxkPvk6gVYCfsagJimbyhzG64BdeqhBVj0fA0oM8EuQJ859RqQJqksCWDTf68BkZ0v4xyEL2XP+QGPaGpJOIc9A+UsZUZq/NFj38S2Ytcpr+MoTQGSyzsZw1mK8CX4Zt2VJBxeOd/N+xcgTra9BCC+Ei0pzyR2DagshsEjRUQcSCXtJw1qM/WGw5dAnkkE0CDGPR5Az1XsEqjX7weHjCGXBBKgN0QXBZEhfRB7I+spcYIElXbWQF5VdB+OmK5lllnXgOMckOrVtiKNk7fWJnU3hEKlbe2TCx8BiCoBUAcX1q4vpW4yA0HsUGJvXhLZrdS8AyjNB0DYdwkqUFUPUHikKqEzvQggaEgiAQCaBhgtaRHPNaAxkUFcKzKGDiZFBoAiAQCMzqHICgXSPEUGKKEL8d/JNaokYwBiZ0AS3upX1XwHUFnUr5BfgOa8foMFBij3Rk1FIQqA8lYAbOcllIIqplHmsbfqEEUh2XYAqlOlZlDbcjX9nfYTR+itHr8uspi7Ue938cmVuxk9yvYTHHn3o9E/EbEAN9rPrOtQiLN0WfZVaoDAFV8HbYv9MS5ae5f7aUe30Gw2jB4AfP5BAImY3uUJGPPdsNfP92yvpKRxP2x0WIWHXtkrmWeTqO7sFV8bBzHslbgw7ocNe7l+3w57wVvwiGP9qqC3I2JgLz0unvsj18/9ti4bzrA/9lOVqXZEmO4WXK1fJXDsz7H/XfrDuf+qAWvcf/0fEXwETJcOZyel6IA5HFR1bC8DUhPEGZDS4c71qNLxioCUBjTusY0AkATxY/ZhCsq7lCELIi7GkZJUACRu7iLlqf0sh/9oQVq5b4QUrAiozV70XYqXEynuQI4WvZKvxpUNRI1iIKigTOKyz6HNI51FWRgAVZICQLJmaEX1DZELRgBMi0tSckPvKq2YmNebrjABqIkBUiBnbtGgKlDtDX+MylqRqQ91B3EvAKbecAwHm44FlELUrRjFlgI0jmaUc0pO+GM+2/RAEQUjSV5UmCoeRkajgwuy/kOVTBkBAJVxAKAQRR0uOy6BW8fNZMEYzimh1r3hiAcAVAsfNMlNoKZbNJmFS9URN2oPaqAUqXzBrJT6AZDn0Fhb1CzLanArldU1Sq0Qjcm7Bqmmop/PWwA/B7iP+oOk1+pSTI86kET3pcltjUe/fExjdBe17gdXimwCxT5ruAVIMqEkm0XuXSdYNXZTYBIoXoqGMdagTrDJwj0Vrityk1k0Ne4a5TKz3jVg6eoFyHMK8GiqUI6pgur5j/+muYWXdJ8TD/OzyfZALixWU5Oj9lxZXaUqh8jYdb5vUvQuNW7RpCSHyPm4gZSiFPTwnEyANfq4BnjulycvqbIEbh0nnR9K5FtCUVepCEia48WmR7z5eEORVFkOcRKznqcuR1iAJBN7Oa4LgDyVa5SD7kHP6uBAvTwTNl0LeO4EjxSjrjyEeUwL0OSItx7lD9KkUsY1sbeOG09qSZmvnkAbqD7tSOMEiJIEoCxopDUEkQKsCnIBdNsVcooUmddds6HwCNDkSKtF7pNAKyvNN8YaBFhX6a4BmbXGaOrrW0nUfEVVpE4aBQy5Bgo12Z1uPJYDQJ5Dn9dxFsDLBjsAjQAmU9aobakdoO8L+qO/KHkP9jw90vf/AmufNYN+ZE9XNqrUVj0ySxbpp7BvfD+yqf1Mx8WCyeOP7EmJJZnazvuaSd9PPSZfUd6OGvdN6SqSHECM+6x050wSRS8cxkF2e/pBjnoA1CuXVV7f76zcWvGSVcZ8he9bK+EMexKdJjs3vfNNFpNK/jZtuNmrMfyt231nr7734n75d55PNzVNptfb9OZmr2b2t+743f7o9Xdev7qgddcdvzsw1aa6AuTvfAGvSGnTqy9WA6lhzycsbyBfnJhkuB//i4Pv2OOH2583vHv+8OHlryPu/5//HAK/evlTivjzvw==);lineShape=1;" vertex="1" parent="1">
                    <mxGeometry x="506.57823254187844" y="178.86045009342365" width="65.26302920589617" height="40.520142958209576" as="geometry"/>
                </mxCell>
                <mxCell id="141" value="" style="shape=stencil(nVnbUhsxDP2avGos27KtZ0r/gxlCyZQCA/T299U247CWsye0b0tWZ23dj8QuXb3e3zzvdzG8vr08fd3/PNy+3e/Sp12Mh8f7/cvhzZ526XqXru6eXvZfXp6+P94e/36+WSSXp29PP5Yv/DriYiHVBRXD7+MvTDX9/eHzUf7h8DjKswzylWIB8pnKKM+JagWARNEBGrUIAEy5DgA7U2UbwEqpDYDEpEBnNhuNJyT7RACATDkPgFwoAytxpJAGgCTivA1QauMBopSBkSrVUb4IRd6WLxTi6OVArNvymWoY5TMJ+L7FgPt+IwZRMQVFYwoNyZfRY02IgceElEd5cxjQt/W3J/lKCcgz9xg+AUxhoIDFHI9B2rTHyGYajCdooADSIE5RrWZToEOKXgeNxMjJZqVRB7WoBlGaU689J0CGJ+RGVTxAAcDSSsoIECrgSjJljhboh8K9NKwASOliFXI6AcVqqT55LlzJctdlpymNKmRNvVqtAA3UrypTLAlVEN6W7pInAFC6zWaV3lnOA7JPIANkBCjdJqtYQley/IrBA5Af1FqluxLDPmKAVjwApai2yXEMY0nVN57lSiBaDSDsARUDXKuyqhFR5QtWt4JHoKS2I9RpbWkOuokBztQZZFfr9xOgACXMEc2ZSXpL3QLE6AEMwtVio0yAgJSu/fU6vpHSZSpMuZthC5AmP1TEYgrF6gEwvu0EB4idam3qMCUEqmRmJZ7iO6Pgq2dOgNStdcK8TmrkOIsl8YCIU85biS/mg3izInq1ZNzkB1QrzyV16tGyWTeSByjOUc82jIOicNXpShnOAf8OCKQugxpU2lhkax6gwBHW5TzrO9XbD/bRlWs+2qoVs4eZDNidQPidoRuK2UPoxXcFQOXYKFNRD0AZYaRMJh0ypn086RABwIilG1sXVyMmmvr31sEEdDBynF24GnNEbDqdoa6KprI2tZQCS5mNEHlqi6jx2pAiLr6tB6GpZk45zAVY/KhopazhUc7NxgZAlKlOnZ3hMsBIpNMgwFmdvU1ttIxA46kStwR9EHy/aoESKDHcx87TbF9hu4qeBFTsseSbVVG4ghLfFyy5UWZWn/pymmM3djHuPhJ7Ldha9rgVWhYSvE5yRCydUvs8wKjeGBIJzw2sPpEtChltGwI110ZaP/M8IHZStNoDoiuZm2Usd6VT6q1FY/SLzAuLSbcFDLD8mrxrg9aEgA+WlVh18ihrLExd2gTI/03eke2A90PiWyBu+/MK0OSRPUsvgu/yEX9f/H0Qz17cH7z9cedwjYDhABannGHYXf9jcX5B3h7et/R3h4eH45J//d5v9e2n438E0vUf);lineShape=1;" vertex="1" parent="1">
                    <mxGeometry x="506.3621175542626" y="212.797272181265" width="9.739300399988732" height="8.910584008443626" as="geometry"/>
                </mxCell>
                <mxCell id="142" value="" style="shape=stencil(lZrZcls3DIafRrcY7st1mr5HZuLUmrp2xnG6vH3BqjwSQeineCdb/HRI7ADPyX/68fzl+9PJmR8f72+/P/11/vrxfPK/nJw7vz4/vZ8/+NPJfz75T9/e3p9+e3/7+fr18vf3L21l+/TH25/tF/6+cJWia5Az/1z+Ycil//7x62X5y/n1Zrk1VMf1lrwB6yOFOKx3VPz99fxzpg7rA+UA1kdy434S2Xp/vTdyP4UM+H2f+uOP8xry9j4QPIUyAnxiIKHIOxISjeQLADIFsSU+A3hC8lJnrOT/ta4C2VD2I+DJRABksgJgvQMzKo5yHoEMpVT40KNdsOUWcIZqyY2K9pYS0HQNZEYpeU8emGqNlMct+UAVKK6ylMQTEt5SpiSeUKB3MlBHPfhKFSiusuWMQLAU0RkYGBXHBu+QlMrk0IEK3pI1I5C6hzwKZKwHBuwI1O60DwLstBVYqwK4bo6PAp4i0vQMBBhYFSCR2Tt0hnFJAQqlPaBuKi7h7KMAjhKI3grAwRO56AxwRgIJSAE4COydgUNl3gIq2S3j4wQQtraUF7F1BtzmGXLogedRYFcPOVHck1LuCeBRoPYU8yBQzOYZCkfvLT1cE/GjAPvDHhB71nsUSOS2XJRrg0UGsmkEOItiKbkxZZUKi0oGRHFSTc9694BUJLAQq6g1uL4pOFSWsUisbmWtVQCeEtpS7YXzAQTsQFVWZFxBeaQH7k1GTdeEg0ClHCWQYTdjeuV8EFxoIuursiSruPjm35N7KhSBubbYK07NWRFoLrG5jme4OZZOHJn/9hFATimQyxJA5sdptiYJoEDDgPC5JmlgTQx4J4EINMeJ3Exb8kiugYKXgEOHTv3rWwBtqcjWjwELpMS2kWYAbInTbJoOjYIlp9lZrB7Eb06zs5QC8GoGymRLER069vro1paAefMZUpAA6hWzlz1K8wcEWNnJVVy5pim6PuCjedIcfMRR/98C2CH8BBQEODl4uEbDu049PQF1NQzk6QkBmGurzqdgicYzXJ3PHoQcgottmaqxy20DXO+I8Uxr40Ho43pHDE8WSYvrHTHaWOTFViBlCaDMy4AYIy5yOwNixLSoHhiQ5o3rEwbELGRRATVgq8biqlCGDVzFlTolCFwnliqHiYtKlL8W5r2odRswanpRTSsArtcVAHcECoB7DgXAXY0C4L5JAXBnNgOL3k8BcHepALh/VQDcISsA7sEVAHf5CoDnCAqAJxUzsJiFKACetigAnucowK4eFjMpBcBTLwXAc7UZWEzuFADPBhUATx8VAM83FQBPUBUAz2gVAE+BFQDPmRswFomLSbYC4Fm5AuBpfDnatgPA8/4GiCsIfKPAQBQ3CvjOomVRcY2Cb0XKNKnwR0F0r3SQFzWpy+1eCedHsfpIBrnoVLe22ykUNZxss7zFXVOVPU27YQNP4GwQxr6s3eHhJkhe+kWYdluPLwDfLxpVIMY+WjkAA4Mxu4sZNd3uUsEZgpMDI4tvOpteRefnoFjdccV3bRVhjnNW9kAFCskm2U8nONawkxZwnEy9mz900Atx/ecpj7vn1AN8cxrYGTieMPJ+08AIbHrTcl2OWjcjJW9gZXs44HU5qqeczAbHYXRLkwMDAyNK6JnlZjmaR0gzxr+e5Z2sga9ZTNfQBuduGUgMtPgqu1nTJ6Z3lm+9ErNczh+ub998O7+8XF7euf1evq3D/7q86eM//ws=);lineShape=1;" vertex="1" parent="1">
                    <mxGeometry x="571.7479964102806" y="179.3668869648327" width="2.787784777469984" height="45.90877391341088" as="geometry"/>
                </mxCell>
                <mxCell id="143" value="" style="shape=stencil(lVfZbhsxDPwavxKiTuo5Tf8jQJzGaBoHjnv9fekaWi+5uxPkbQ+OJB7DoXbp7v354W2/i+H9fDp+3/8+PJ6fd+nLLsbD6/P+dDjr0y7d79Ld0/G0/3Y6/nx9vL6/PVwsL08/jr8uK/y54iJJvYBi+Hv9ECiE/x++Xs1fDq8zc2bK1p6JI7BvlIuxj9T6tn1MlIOxL1QZ2HfK3dh3KmnbPuly7vyZOnA4M7VsHeBxxHVAoyYWIFTqNqCk8XsAUqUEfCjifciZUtsGVA0q26BGymCHKhQsoAZisEOLVGyUahuJWQdUKjZvLVOQbYAESg7QqQIfJJFEA5BMDI4kjYL1QQRyoTeKzdYe9qELxeABCbCnd58HBQhwWgHVOt0LFXSkTt3ys1fKHwCc05rpjI/kGCqUAB8UwMkC9AvaQdcrHtBw4nL2gI6cnmIyByAfNOrNA1C13vI6AwQMSOzDGlEtTbU5S1wEfFAAL0oD9SUFFOdDGd1/K0q8IFBDO9QVPkSUh7oo7w8o2oYazHcAAqRRb9UDYKb7ovjKSOUWQJrPA2rGHCYNn6UaqfRlC9c2tPVhjnrKCZRR/V0X9V0QqVVGF6TuyIc6BotJ2QOeZRQh4VMIiVQdh3hI67rMKevtFqoyqJepLrr5R/dEtFblbbY6dIkEKly1XawPtY8l1gETxSZAhE6XPka2adzIQwPWAdkPoXlKzfqM1T0gdVjgedHLEsMjJfEiFPOI2zogem1nGb1nfXJdaIpOogw4p5N5t0fiQAXkgQuJdbrB2VuXE8ugMrR+/UAUxZkzujpQtYWaoYRO94qbeQXxD4uZeAxnG+bJZiuNNr5h7rQzEcPDuP4bxziwZW4jw7BywpDtmzma/jUyVm/CIM9W3IMzRxrOy9VhEVP05qjhfvJ2+qG5Ptwuwk+Hl5frPXr+31+c9dP10p3u/wE=);lineShape=1;" vertex="1" parent="1">
                    <mxGeometry x="569.0259833329094" y="221.14513305828956" width="5.6061751883924655" height="5.607093928302086" as="geometry"/>
                </mxCell>
                <mxCell id="144" value="" style="shape=stencil(rVddb9swDPw1fj1Ioj6fu+5/FGi6BMuSIs229t+PnuHMoucLBuzNcY7yUUcepUEe3vZPr7shuLfr5fx19/PwfN0P8mkI4XDa7y6Hqz4N8jjIw8v5svtyOX8/PU+/X59G5Pj07fxjXOF9imsVJYxRwX1MbyJa+v3i84Q/Hk4LfG3wPd57hLAdUBpi6QMaQiEBYSYwB4QEke2AnFB8FyABUrcDUoXLfc4OsZEAh+r6gIoatwNinFOcA1JBIjlIQesDNKvmSIDASRdQBEK2NVSk2gVUh0CUHguhT7pmeLKtEdkI7Rwcy8GWUmsoRAaPki0+5G28s6WtxR7JFrkVHxWN8NfsDD4jUj6xl6wlRKKAh/QCtDhr+HfFkPrGaYLGqhQuWnxibYAcVnjCp8DLio8n3gJpq3xJ06j6ze6nEP5aXYZPvoPPpt4KItnPBmf4aL3RfF3fkWM9E3xe8W9zR2zo5Xs+9xvSCtxQyQaF2Q8WeNYAftUwOn1IAzjroipAJQVxy24hcCUbquubBtBRQg3CmLQWaGUWCr9qYE9mpczlvmiYTPik1foyW8B/wftsHaUqIVYQOih7hYsONpKxUjIeXTwdMuJt02SlRHLQyWpcNCUENsYE1ZwOMh2USSmZ80fhsuko7r+g1uFJwHgW6DtZW4k56XiGMrM40VFQ18cJBOIUTWdNr5ujByItNEkGz6xRG0Xs+p6NAnX+bPDM6cZJ7S2e8Vfnt3xYTaixiRh8Zvnq7DCCwXO8sWo9HLF82yz/rYLoaXExKW5FPTPc+kA1TUBnk+Kl7+OIyBL4x3vKfbw+/LkUvRyOx+lOtfzfXqL01XQBk8df);lineShape=1;" vertex="1" parent="1">
                    <mxGeometry x="574.6317385731036" y="221.3712042856372" width="3.2647680813080275" height="4.936608899025166" as="geometry"/>
                </mxCell>
                <mxCell id="145" value="" style="shape=stencil(lVpbchw3DDyNflkEAb6+HecerrIcqeJILll53T6YqEgtm7O99p+EZfMBgEADnDv98P3h07f7uxS/v748/37/9+Pn14c7/eUupcenh/uXx1f/604/3umHL88v97+9PP/59Pnt/2+fjpHHX388/3XM8M8bLoZUDlCK/w5BjP8Lfn0b/vXxaRneKg6368MlqMBwyWx4xdm1XB+e9tkr2UwKrS/DJaR6fbiGnGF4J3u3kNoy3JeT68NzkLQM11DJUUuQ9agWml4fXkNaZy8hkqO2YOveazCymR56XIb3EMlmRHB6cUMR3YgGWZ1SUrBOABb6qh6XJOZoJRRYwTVEjixteOIEVGrf42LAlnowsiV3r7zazCWRreAOtjqoSywRgI2rPQHudAyQQ4QtudtxANjBJY1dyRKqrgCXNAKoIa8hwiWVuPbh26Clxg3X0VsPfyeG04i+pBKEnEHTuIwTkIbtzwFuptVwakFIlNYcCkSXaZlzQB3RZwLqiJbn0c7de1WrupaIpc19c7W0S9gZzNC9XaIsAFdMZea3nG2po5ashU4MlwUzSOYpJNsIjBOgNJDlglc0uylZGnEzrYd2SSXBOG+HdgnNPIKJzSWFaKlsebbMVHoOsBG2JiCPNc8BeVuhhM7OUIPaCmgjjpwD2kivMyNy5uI/g5aqa4m4t/8Md7oqpVL+s6z3odq4UucAG54zAa43tiV3vlWttQYhWvKf8+p8tVH3rh2ToksqUWuLwVYtuaSTFZpgIGspJKKlppjjXJLYCoZ2cEkiztfyBshD0eeAMhzhAsCyaJs5cwJKMMb3Kt44lzCu4T93QwCjiM35UkdAY1tqg1lMQKOxtfXB8C4AhQPgxrlEyKG732lBQGG82GntemiXKLF0l3FdJkCoL3UveYB6p7HJc4AO758AlxBf6oaH7jzt9rwBMg0CvYygMgFlxJFzQEWu4ZJM7rT/3FZv7e6OhGD1rQBySWVnmGFrAvpIMdcA4N4HgKm1Y447ACQp9slSLwCs4DgADQEsT0uMyE4cUW4ssR2CkY0DUBDQbqwgCOjMNzrSync9XDU1Vq+8R9K3QHN7iWI/eYi86fWGmvKm1xuGyJuabpgaCrMb3nTMt2nphr+W7Qw0unYsLn/gzm1bunWrt0MryUHvdr08NLd039XKeifnl5QEv3ME6wucbor1BU6PzerRU8V2rlgw3Q/c0p9FtC35dp5WKtZaPgVj4J4ImyCAbsnLelih0l6cJ3MMsJkrVjeAUTLqhATTilKO7wAokl3CSljnSLKxJpqt45beIz1025NvHLa/BkC622lbyrkqZOtjCsbAvWAFBu6+RJKK/yyKAGNVRB2X/oKy01pr6zK7hMUmr0ogbbmE2iEjkXOAsmpuc2+fIrMz6GYH4xVpws6AT8E6ll6R5q0iZd1vr3AT1CmzgX5eVTeMGscUrJVQsZntUzA7HI0D6G5UygaO1gQU+oW2dGrCAtOn6Lx/gm8WGjIDROy61kQfRUpDguJTsF5cqfhIU/poLlzrYwGj8SmMrWCjsXzRKWOhsqRhpgkwmlCKYO/BpxDeT4TIVyKtSPOWFHOj7fKckYBn/pqVFe9DVtoezLOhedHXZS+J1rEtZZy72lbCukSIa5ih4Yy/+FnCQt8lLPLpVghZpFRUK5YE2ijZ1YxBQAsl7KrYDlELmb2kCHa/NdGUpXGkwAkQ+kaQti7TMQV7PmrYDnmf4hxQB4ecgEYvUCojzk1ApS3OlEdfbAIKbXEmwz5W4g3598frCTDaOU4Jg8DxmslWkLHjCRDa4pSd3vfBlc8BHoVW13AJO7QU9CWXsLaU+J2GDxCMRm9JWDYdEvZKLeitMrnyOTPeSmpO4AatmBmRvowWLBMLfXTJGJAyLb7390Hq1Nvjt/LgNZrP099oJErIFYQSqjQ+NngfTr9vQN4s9DEqImuOlKFGzByRemVEDsI/5oj4oUukr4cbS4u0eRGRrkTaSt4+yoiUWW+NEd7OPxtOv6WKqJnEj5phuJDrEfExzwX0qIKKZH2ErUaJ9P3op78yuzHc/3j/oO3L49evb9/DXf6OH8C56O3jOf34Hw==);lineShape=1;" vertex="1" parent="1">
                    <mxGeometry x="571.0519903894956" y="178.6711764495622" width="61.119033367870166" height="41.52948151824544" as="geometry"/>
                </mxCell>
                <mxCell id="146" value="" style="shape=stencil(nVhJbhtBDHyNrkTvy9lJ/mHAcizEsQzZ2X6fmgitDNmaEpKbFrKbS5Es9i7evT3dv+53wb29n45f9j8OD+9Pu/hhF8Lh5Wl/Orzj0y5+3MW7x+Np//l0/PbycP7+er9ILp++Hr8vJ/w865Uqri1awf06/+KkxT8/fDrLPx9etHxzSj5K90S+Se9KvooP2/LVidfn93HhdXkvOSp5HyVmohAlGYUqhVmUpWqLQpCUiEIbHl4UcAOJaXPDgEtM44jCdQX8nbVCk1KJQpaclEJK4htRQJqrVuiSiEndidM35CSBmNS9dA283CSzG6I0HaUSBnavK+Rx3kUhiy9EAbXgtUKl4O7NYgnwjczpLrlohUAT5x3iqp0AHh0BE65w5ooqieC7F0kaTLVLYXH10vQNzd9CX9FxBYAzqyDUiwYTjmDoQ56qBhMAzBKRy+hyFwXgm6Q6AUy6IBCGRMAUk1QdJQCY5SFAQZsEAAfitE+SjElVAgmrl6ijCqx0kmhnW/cKjRsKJU8XEKy60alX8pVkDbNhciCTXg9rg5UP1GFT//0yvbbsmeQrARH8DVY+UXvKdH4kEELCkpUPJP5eQp/kKYDKZH+k8m06P7MSsFxkiSfBQxjtfJVfR/AA+WjlI42PKYAFbwQPfip5kBeCB28771IvxH5v8Xa7IGeDOmla7opBjA260aBW8ozpuJGedQJowbvpfDbyIW86YqPs0Q24rwFKG4phFEsB0HiaKbMUGD3/3+TBdbtJcKYkCkMmzFOJlDDGWDA16WmKMShNDjBZC/EBozgadlAHS9oa9gZ1CzsgqKjF9kXwj0RMamkQoBXDYYQF7Dfrzli50z3ZWQzO00hrwWj3Zo/KYwnYJLM6D8vmw8hsEW8UPN0R4EM3/Lpxp6ONEgh5u8E0db8A5a8EGq1PS0Wn62ZrliJgbWEmAWrGpHxhDVu7mukZWL0qu8HbDTiiSbIVuNmlAutjJSWKejC7WmiDCWztzFmHFVs/3eL9aFuXSdUo8yp9UoiUei2M387CsYxdVyh2ja+UqwGapkIT9yBZ8uspe1/kda93dDSXqSdhuJMUQN481CA+LKDJkh1HUYf4hGDkWT+CfLLnM64G+Wr9ZVQH+Z0eslhdQj5WK8/iUyz5BXng57dk48nwU+b4M675Hw93N+Tx4e8r4ePh+fn8yLj+374q4qfzi2T8+Bs=);lineShape=1;" vertex="1" parent="1">
                    <mxGeometry x="622.8759463651184" y="210.76103671609866" width="11.056586114753907" height="13.485060964830904" as="geometry"/>
                </mxCell>
                <mxCell id="148" value="" style="shape=stencil(lVfZbhsxDPyafSUkURKl5zT9jwBxaqOuHTju9ffl1pBtcrMT5G0PjqTh8NLED2/bp9fNlMLb+XT8vvm9ez5vJ/4ypbQ7bDen3VmfJn6c+OHleNp8Ox1/Hp4v769Ps+X89OP4a17hzwWXqfAMSuHv5UMgCf8/fL2Y73eHO/OYKFr7RrkAe6HQjH1k4rwOSIlSsQDdQQBAqEYDUE7z6xqAmaI9EgeKCNCGS66ASrGuAzJTt07KygqQzrqD5ZCFGgAUppwNoCQSBoBGwXIoqgwgXZP3Ug1UgdK1DopXQKYAOIh63R5Jl2iAg+h61ku1UwHBKkJSDUCUFYillkm6BVSSBgCNij2SdOpxHdAb1WQAPVAHsdQ7ZQdQDh0CmuXQeUTXGqA7QCEGSiugOkClDpRWQLChoW5goLT+dqGhS8Aj6QHEA6AOhWQJQDvkhXCqDBKOR7rckUbRqrp2BxBYZhRQnZcKFRCtM8DpwFg4pmATSJfIiANTc16KsLaqW5stlZoPqFSq0q6QNQ14JJxQWgA6SiCNzeCPVHF4x+5JC04gaV6HCISLIXjWs+OQEH3h10oZpVyn5EgIdbRD8y1oTnMUrkJcPQAVVz1xtDl654e1aPKlTGsV2oIXOdeogQ7xaYC2lGIB2jMyyAhpfmJqDElrW8xuJAtDmrXG6zqEXGeotdbeXZfLo/SsDQ/NxobEEV5r44mrG1WoALeW7Gtf5THJvj9iadJbtxYsXC4UbPTp0FXQ1KdeXw5xgDSXMQlfARH2oNTHie8GUZRyOgm7yqSjbkLjffN9NGGl46Lgxw86tfdqzKMsvL8BJRd6sJ8EP6pr1QP5H4jt6gXefoJPTS3CIG8WRVudBaiquRVLBwJIlYszR+N2GC3p6nhKIPyvf2/3QjT9R19SAryDpZFJN3NU4tjfCcO4CayYd3+nTeDsn7wCf2iuD7fb9stuv79c1u//+9u5frrc7PnxHw==);lineShape=1;" vertex="1" parent="1">
                    <mxGeometry x="383.8645971058577" y="217.8083612445265" width="5.8335849094016465" height="4.261221735258795" as="geometry"/>
                </mxCell>
                <mxCell id="149" value="" style="shape=stencil(lVfZbhsxDPwavxIiqfM5Tf8jQJzaqGsHjtPj70vXkLPi7k6Rtz04EkUOOdRGH952T6/bjYS3y/n0fftr/3zZbfTLRmR/3G3P+4s9bfRxow8vp/P22/n0fny+vb8+XS2vTz9OP68r/L7hWiNNV5SEP7cviZr8+/D1Zn/YH6f2SjzacyTRdUAtlMoAECEuABBJHcCWSAAQKIYBoEo1rANKJpYBEEOPwjKAKbcRkKnkdUC23+MOSag2ALAdXBpq33MRkDLF0aUciRkAApU6AhoExEgpDoCifYlFgJrH4w6lEiOAxWTMdBWYacnU8gjIPW7LAKY47tACCUqcp5LVRwZUShTY2zeQNqWUZ/ageoRktn4E9kxhZEWrMKLGex3tS6++Ffvg4pMpgHYRiEcOtUg5Ivvi/FFSQCGm4uIjpCC/Qm2kaGNYZpEie/sI4pmoxtn6wJ9CrN5/Af7UWTyVBMSn9jY1iX9C3ZqaW9/kADSJ2rM54Y8A/pS+2oSfEdhnqmMfveoVOG+iWL098j9SGP3ncKf4CoH8gRvsQNzLdXLgCg4QfNO1gBZACPPWJTj3EKzZzxLM4LxhFlAsAuzHCSM0KgDpdJwUTAWE+Kw9m0A4jVGo9bZDGHeo95gtA4rvWTZfCOCcTSfJ6SRTAznQNtP60mmyzOpEOpZZVih7Nhy4Ic3Gjwp2SMmfIRkvUCHPiB0rCVCOnEgcwJiEAM2XplopAICNM80Nmq23v2VA9epqel5BWCv79stYjm1YdpMpB6jHVl3FNTCoZ1c5dR7Bdmdy4QTHGgI4sXUTVz2hK9yavRNk3H6tuzXvD2pf1j3rzH9Qm9ads/cfXodal9+PeCYU/+bzJX3iXLN38VE4H0zk6142JHiDMnIa68Gn74v/tbeHj8vpy/5wuN1tp//9ZdY+3S7C+vgX);lineShape=1;" vertex="1" parent="1">
                    <mxGeometry x="389.3625147551393" y="217.11261935258528" width="4.445439616927269" height="4.642247351045972" as="geometry"/>
                </mxCell>
                <mxCell id="150" value="" style="shape=table;startSize=0;container=1;collapsible=0;childLayout=tableLayout;" vertex="1" parent="1">
                    <mxGeometry x="670" y="160" width="240" height="160" as="geometry"/>
                </mxCell>
                <mxCell id="151" value="" style="shape=tableRow;horizontal=0;startSize=0;swimlaneHead=0;swimlaneBody=0;top=0;left=0;bottom=0;right=0;collapsible=0;dropTarget=0;fillColor=none;points=[[0,0.5],[1,0.5]];portConstraint=eastwest;" vertex="1" parent="150">
                    <mxGeometry width="240" height="40" as="geometry"/>
                </mxCell>
                <mxCell id="152" value="" style="shape=partialRectangle;html=1;whiteSpace=wrap;connectable=0;overflow=hidden;fillColor=none;top=0;left=0;bottom=0;right=0;pointerEvents=1;" vertex="1" parent="151">
                    <mxGeometry width="60" height="40" as="geometry">
                        <mxRectangle width="60" height="40" as="alternateBounds"/>
                    </mxGeometry>
                </mxCell>
                <mxCell id="153" value="" style="shape=partialRectangle;html=1;whiteSpace=wrap;connectable=0;overflow=hidden;fillColor=none;top=0;left=0;bottom=0;right=0;pointerEvents=1;" vertex="1" parent="151">
                    <mxGeometry x="60" width="60" height="40" as="geometry">
                        <mxRectangle width="60" height="40" as="alternateBounds"/>
                    </mxGeometry>
                </mxCell>
                <mxCell id="154" value="" style="shape=partialRectangle;html=1;whiteSpace=wrap;connectable=0;overflow=hidden;fillColor=none;top=0;left=0;bottom=0;right=0;pointerEvents=1;" vertex="1" parent="151">
                    <mxGeometry x="120" width="60" height="40" as="geometry">
                        <mxRectangle width="60" height="40" as="alternateBounds"/>
                    </mxGeometry>
                </mxCell>
                <mxCell id="155" value="" style="shape=partialRectangle;html=1;whiteSpace=wrap;connectable=0;overflow=hidden;fillColor=none;top=0;left=0;bottom=0;right=0;pointerEvents=1;" vertex="1" parent="151">
                    <mxGeometry x="180" width="60" height="40" as="geometry">
                        <mxRectangle width="60" height="40" as="alternateBounds"/>
                    </mxGeometry>
                </mxCell>
                <mxCell id="156" value="" style="shape=tableRow;horizontal=0;startSize=0;swimlaneHead=0;swimlaneBody=0;top=0;left=0;bottom=0;right=0;collapsible=0;dropTarget=0;fillColor=none;points=[[0,0.5],[1,0.5]];portConstraint=eastwest;" vertex="1" parent="150">
                    <mxGeometry y="40" width="240" height="40" as="geometry"/>
                </mxCell>
                <mxCell id="157" value="" style="shape=partialRectangle;html=1;whiteSpace=wrap;connectable=0;overflow=hidden;fillColor=none;top=0;left=0;bottom=0;right=0;pointerEvents=1;" vertex="1" parent="156">
                    <mxGeometry width="60" height="40" as="geometry">
                        <mxRectangle width="60" height="40" as="alternateBounds"/>
                    </mxGeometry>
                </mxCell>
                <mxCell id="158" value="" style="shape=partialRectangle;html=1;whiteSpace=wrap;connectable=0;overflow=hidden;fillColor=none;top=0;left=0;bottom=0;right=0;pointerEvents=1;" vertex="1" parent="156">
                    <mxGeometry x="60" width="60" height="40" as="geometry">
                        <mxRectangle width="60" height="40" as="alternateBounds"/>
                    </mxGeometry>
                </mxCell>
                <mxCell id="159" value="" style="shape=partialRectangle;html=1;whiteSpace=wrap;connectable=0;overflow=hidden;fillColor=none;top=0;left=0;bottom=0;right=0;pointerEvents=1;" vertex="1" parent="156">
                    <mxGeometry x="120" width="60" height="40" as="geometry">
                        <mxRectangle width="60" height="40" as="alternateBounds"/>
                    </mxGeometry>
                </mxCell>
                <mxCell id="160" value="" style="shape=partialRectangle;html=1;whiteSpace=wrap;connectable=0;overflow=hidden;fillColor=none;top=0;left=0;bottom=0;right=0;pointerEvents=1;" vertex="1" parent="156">
                    <mxGeometry x="180" width="60" height="40" as="geometry">
                        <mxRectangle width="60" height="40" as="alternateBounds"/>
                    </mxGeometry>
                </mxCell>
                <mxCell id="161" value="" style="shape=tableRow;horizontal=0;startSize=0;swimlaneHead=0;swimlaneBody=0;top=0;left=0;bottom=0;right=0;collapsible=0;dropTarget=0;fillColor=none;points=[[0,0.5],[1,0.5]];portConstraint=eastwest;" vertex="1" parent="150">
                    <mxGeometry y="80" width="240" height="40" as="geometry"/>
                </mxCell>
                <mxCell id="162" value="" style="shape=partialRectangle;html=1;whiteSpace=wrap;connectable=0;overflow=hidden;fillColor=none;top=0;left=0;bottom=0;right=0;pointerEvents=1;" vertex="1" parent="161">
                    <mxGeometry width="60" height="40" as="geometry">
                        <mxRectangle width="60" height="40" as="alternateBounds"/>
                    </mxGeometry>
                </mxCell>
                <mxCell id="163" value="" style="shape=partialRectangle;html=1;whiteSpace=wrap;connectable=0;overflow=hidden;fillColor=none;top=0;left=0;bottom=0;right=0;pointerEvents=1;" vertex="1" parent="161">
                    <mxGeometry x="60" width="60" height="40" as="geometry">
                        <mxRectangle width="60" height="40" as="alternateBounds"/>
                    </mxGeometry>
                </mxCell>
                <mxCell id="164" value="" style="shape=partialRectangle;html=1;whiteSpace=wrap;connectable=0;overflow=hidden;fillColor=none;top=0;left=0;bottom=0;right=0;pointerEvents=1;" vertex="1" parent="161">
                    <mxGeometry x="120" width="60" height="40" as="geometry">
                        <mxRectangle width="60" height="40" as="alternateBounds"/>
                    </mxGeometry>
                </mxCell>
                <mxCell id="165" value="" style="shape=partialRectangle;html=1;whiteSpace=wrap;connectable=0;overflow=hidden;fillColor=none;top=0;left=0;bottom=0;right=0;pointerEvents=1;" vertex="1" parent="161">
                    <mxGeometry x="180" width="60" height="40" as="geometry">
                        <mxRectangle width="60" height="40" as="alternateBounds"/>
                    </mxGeometry>
                </mxCell>
                <mxCell id="166" value="" style="shape=tableRow;horizontal=0;startSize=0;swimlaneHead=0;swimlaneBody=0;top=0;left=0;bottom=0;right=0;collapsible=0;dropTarget=0;fillColor=none;points=[[0,0.5],[1,0.5]];portConstraint=eastwest;" vertex="1" parent="150">
                    <mxGeometry y="120" width="240" height="40" as="geometry"/>
                </mxCell>
                <mxCell id="167" value="" style="shape=partialRectangle;html=1;whiteSpace=wrap;connectable=0;overflow=hidden;fillColor=none;top=0;left=0;bottom=0;right=0;pointerEvents=1;" vertex="1" parent="166">
                    <mxGeometry width="60" height="40" as="geometry">
                        <mxRectangle width="60" height="40" as="alternateBounds"/>
                    </mxGeometry>
                </mxCell>
                <mxCell id="168" value="" style="shape=partialRectangle;html=1;whiteSpace=wrap;connectable=0;overflow=hidden;fillColor=none;top=0;left=0;bottom=0;right=0;pointerEvents=1;" vertex="1" parent="166">
                    <mxGeometry x="60" width="60" height="40" as="geometry">
                        <mxRectangle width="60" height="40" as="alternateBounds"/>
                    </mxGeometry>
                </mxCell>
                <mxCell id="169" value="" style="shape=partialRectangle;html=1;whiteSpace=wrap;connectable=0;overflow=hidden;fillColor=none;top=0;left=0;bottom=0;right=0;pointerEvents=1;" vertex="1" parent="166">
                    <mxGeometry x="120" width="60" height="40" as="geometry">
                        <mxRectangle width="60" height="40" as="alternateBounds"/>
                    </mxGeometry>
                </mxCell>
                <mxCell id="170" value="" style="shape=partialRectangle;html=1;whiteSpace=wrap;connectable=0;overflow=hidden;fillColor=none;top=0;left=0;bottom=0;right=0;pointerEvents=1;" vertex="1" parent="166">
                    <mxGeometry x="180" width="60" height="40" as="geometry">
                        <mxRectangle width="60" height="40" as="alternateBounds"/>
                    </mxGeometry>
                </mxCell>
                <mxCell id="171" value="" style="shape=stencil(lZbdUttADIWfxrdnpNX+XlN4D2YIjYc0YUKg5e3R1mOIlkSd3vnv88pHR8c7yc3L9v55MwV6OR0PT5vf88NpO8mPKYR5v90c55MeTXI7yc3j4bj5eTy87h+W8+f7/mQ/+nV462/4s3CNUEKnAr0vV2JCan+v3C3Abt6fAxmlGCAJWnWAhsoGyIKaXSCJAUoEeyUltGyAqis4QG2IFmiMFh1AVbIltYLE14FCyFYlJgLRdSITJNolGtiRKRGq7ZzqQE4jooBtI2oFO4BUkAVK84EMsrrmBhIHKGMjUkV1VIphXCGqW5zO6W1pFggITklaQK4G0CKzs0KuaMkCGSE53lARrZlU6OB8dG+TXUFbGfyBoGFG6V8zykPjCLFcB87c/OkNWoPh8hI6MBbQofJa3UdysGtbX3FZJh36YUg1GJySeqzYkr6i53KrBeXbjFYnBjQa6wBofHozmhCHoVZZHTN1QP4HkDima09Dx0whrm7+BBKyE0yc1rQ+i43ofHRBtW4tDHHaEMYwzrym7cXn1ar2AxKvKXLteWuLSODg1ZNsYgRfUc0TWz831xQcR4GYkZweBxmBBHEmRz0x/Bm0AY6garpBofHfpgdfO47HebdbNizn98cdil5adjdy+wE=);lineShape=1;" vertex="1" parent="1">
                    <mxGeometry x="699.2702160051499" y="180.81188413306637" width="0.5916759388793948" height="0.5934910027304153" as="geometry"/>
                </mxCell>
                <mxCell id="173" value="" style="shape=stencil(fVbbchoxDP2afT0j25Ivz0n6H8yElJ0SyBDaJn9fbXcWkGH1ZszRSjo6kjykp8/d5mM7RPo8n46/tn/H1/NuSM9DjONhtz2NZz0N6WVIT2/H0/bn6fj78Dr//thMyOn0fvwzfeFrtmOGlMkq0vd808D8/+LHjN+Phxu8JIRo8AmxreOz4qvBE4KDLwkldHiu6/iaIM3geQnwIb4FFIsPhJIcgwLO1qAhOx4CEYiMhXJas+OiIbDNgZCcpBujWVJFfRaHpYIm1kBvnCRK7WnKyeU1V7D1kAWBHCFVUOw9ZCdprn2l9RPNkRIHhC7pAHFKnTLY9gJHl9YkIOshBeTgGBSQrXQMiOLkEBEtS8EPaRKClassPD/Gt0X9136rTkCF+oAuan+sPFrGySVjiPP92pBs/1dErz0FzTZbyEvDrjWb2IRjRnIYVYNqI1KdeL3TMoqliIvLUaN+BossN6sG9c7ASVpZpa6dlSVHqFV6GZW8+FwdGF3dBOwNehWGZalFd65mQu42VXGlNLWCrfTNaH7cnjqIbRJT8R31qThF+pjIWZ9BR1aXREB1QtLt1Dpe2a0cL+17KZwgeQ763aNz2+PobrlJv3D1cH1tvI37/fxYuf2/f53o1fyySS//AA==);lineShape=1;" vertex="1" parent="1">
                    <mxGeometry x="881.1090280944077" y="179.18114748811206" width="0.5828279584097532" height="0.5814034274329006" as="geometry"/>
                </mxCell>
                <mxCell id="174" value="" style="shape=stencil(lVvbkhU3DPyafXXJd/uZJP9BFRC2QoACcvv7tLNln+P2nCa8LYt6xmNLrZbkfYqvvr5//fntU7Cv3758+u3tX89vvr1/ij89hfD88f3bL8/f8NNT/Pkpvnr36cvbX798+uPjm5d/f349LMdPv3/6czzh7xdc7662gQr2z8tvzHX/3y9+ebH/8Pxxtw9+s/fOR2HfXGtkH4u0z/z8EqS9dbLv6vnVlbTZBxeTtA9sX9XzC39vdL5J+9TJvqj9L87bZp+cqfVnVzPZpyztYyP7rs43O9vXk/Xz0/y8m33v0t7Xzb64rPYT27fb4wCV/+B4Atk3tf7gctns4bAm7OGO+3r6/KBH9rGQfVP+YK7G3f/NJbVB5mx/gfcuiC9o3cXMAEURrbmyu4QProg9bZU5yEf5DQ1Btm+qh1cLL215HuoCZP2G5OruFr7Mr7oGRJcJAEdSgOACnUOXkdxsEttiInNRuHbtruyuMbhU7FJtfNIguy6WVCuTEdjCKwCCnQDgG7FLFeewnzTiP6mPjq7SG6rLakmBCQMRXQTDV39kEB2i1fgconcmvqF0DqAIZxEBVMBB+zfEKD+6rD1ZgOSaApTJcguARCR2qSC+dm+NVSaGkua5LkBzVWxriccbukxVBdS9n0PyUzxcAzwfXAoymRebjrAAccqHRwAjQJLxkPvk6gVYCfsagJimbyhzG64BdeqhBVj0fA0oM8EuQJ859RqQJqksCWDTf68BkZ0v4xyEL2XP+QGPaGpJOIc9A+UsZUZq/NFj38S2Ytcpr+MoTQGSyzsZw1mK8CX4Zt2VJBxeOd/N+xcgTra9BCC+Ei0pzyR2DagshsEjRUQcSCXtJw1qM/WGw5dAnkkE0CDGPR5Az1XsEqjX7weHjCGXBBKgN0QXBZEhfRB7I+spcYIElXbWQF5VdB+OmK5lllnXgOMckOrVtiKNk7fWJnU3hEKlbe2TCx8BiCoBUAcX1q4vpW4yA0HsUGJvXhLZrdS8AyjNB0DYdwkqUFUPUHikKqEzvQggaEgiAQCaBhgtaRHPNaAxkUFcKzKGDiZFBoAiAQCMzqHICgXSPEUGKKEL8d/JNaokYwBiZ0AS3upX1XwHUFnUr5BfgOa8foMFBij3Rk1FIQqA8lYAbOcllIIqplHmsbfqEEUh2XYAqlOlZlDbcjX9nfYTR+itHr8uspi7Ue938cmVuxk9yvYTHHn3o9E/EbEAN9rPrOtQiLN0WfZVaoDAFV8HbYv9MS5ae5f7aUe30Gw2jB4AfP5BAImY3uUJGPPdsNfP92yvpKRxP2x0WIWHXtkrmWeTqO7sFV8bBzHslbgw7ocNe7l+3w57wVvwiGP9qqC3I2JgLz0unvsj18/9ti4bzrA/9lOVqXZEmO4WXK1fJXDsz7H/XfrDuf+qAWvcf/0fEXwETJcOZyel6IA5HFR1bC8DUhPEGZDS4c71qNLxioCUBjTusY0AkATxY/ZhCsq7lCELIi7GkZJUACRu7iLlqf0sh/9oQVq5b4QUrAiozV70XYqXEynuQI4WvZKvxpUNRI1iIKigTOKyz6HNI51FWRgAVZICQLJmaEX1DZELRgBMi0tSckPvKq2YmNebrjABqIkBUiBnbtGgKlDtDX+MylqRqQ91B3EvAKbecAwHm44FlELUrRjFlgI0jmaUc0pO+GM+2/RAEQUjSV5UmCoeRkajgwuy/kOVTBkBAJVxAKAQRR0uOy6BW8fNZMEYzimh1r3hiAcAVAsfNMlNoKZbNJmFS9URN2oPaqAUqXzBrJT6AZDn0Fhb1CzLanArldU1Sq0Qjcm7Bqmmop/PWwA/B7iP+oOk1+pSTI86kET3pcltjUe/fExjdBe17gdXimwCxT5ruAVIMqEkm0XuXSdYNXZTYBIoXoqGMdagTrDJwj0Vrityk1k0Ne4a5TKz3jVg6eoFyHMK8GiqUI6pgur5j/+muYWXdJ8TD/OzyfZALixWU5Oj9lxZXaUqh8jYdb5vUvQuNW7RpCSHyPm4gZSiFPTwnEyANfq4BnjulycvqbIEbh0nnR9K5FtCUVepCEia48WmR7z5eEORVFkOcRKznqcuR1iAJBN7Oa4LgDyVa5SD7kHP6uBAvTwTNl0LeO4EjxSjrjyEeUwL0OSItx7lD9KkUsY1sbeOG09qSZmvnkAbqD7tSOMEiJIEoCxopDUEkQKsCnIBdNsVcooUmddds6HwCNDkSKtF7pNAKyvNN8YaBFhX6a4BmbXGaOrrW0nUfEVVpE4aBQy5Bgo12Z1uPJYDQJ5Dn9dxFsDLBjsAjQAmU9aobakdoO8L+qO/KHkP9jw90vf/AmufNYN+ZE9XNqrUVj0ySxbpp7BvfD+yqf1Mx8WCyeOP7EmJJZnazvuaSd9PPSZfUd6OGvdN6SqSHECM+6x050wSRS8cxkF2e/pBjnoA1CuXVV7f76zcWvGSVcZ8he9bK+EMexKdJjs3vfNNFpNK/jZtuNmrMfyt231nr7734n75d55PNzVNptfb9OZmr2b2t+743f7o9Xdev7qgddcdvzsw1aa6AuTvfAGvSGnTqy9WA6lhzycsbyBfnJhkuB//i4Pv2OOH2583vHv+8OHlryPu/5//HAK/evlTivjzvw==);lineShape=1;" vertex="1" parent="1">
                    <mxGeometry x="816.7482325418785" y="178.86045009342365" width="65.26302920589617" height="40.520142958209576" as="geometry"/>
                </mxCell>
                <mxCell id="175" value="" style="shape=stencil(nVnbUhsxDP2avGos27KtZ0r/gxlCyZQCA/T299U247CWsye0b0tWZ23dj8QuXb3e3zzvdzG8vr08fd3/PNy+3e/Sp12Mh8f7/cvhzZ526XqXru6eXvZfXp6+P94e/36+WSSXp29PP5Yv/DriYiHVBRXD7+MvTDX9/eHzUf7h8DjKswzylWIB8pnKKM+JagWARNEBGrUIAEy5DgA7U2UbwEqpDYDEpEBnNhuNJyT7RACATDkPgFwoAytxpJAGgCTivA1QauMBopSBkSrVUb4IRd6WLxTi6OVArNvymWoY5TMJ+L7FgPt+IwZRMQVFYwoNyZfRY02IgceElEd5cxjQt/W3J/lKCcgz9xg+AUxhoIDFHI9B2rTHyGYajCdooADSIE5RrWZToEOKXgeNxMjJZqVRB7WoBlGaU689J0CGJ+RGVTxAAcDSSsoIECrgSjJljhboh8K9NKwASOliFXI6AcVqqT55LlzJctdlpymNKmRNvVqtAA3UrypTLAlVEN6W7pInAFC6zWaV3lnOA7JPIANkBCjdJqtYQley/IrBA5Af1FqluxLDPmKAVjwApai2yXEMY0nVN57lSiBaDSDsARUDXKuyqhFR5QtWt4JHoKS2I9RpbWkOuokBztQZZFfr9xOgACXMEc2ZSXpL3QLE6AEMwtVio0yAgJSu/fU6vpHSZSpMuZthC5AmP1TEYgrF6gEwvu0EB4idam3qMCUEqmRmJZ7iO6Pgq2dOgNStdcK8TmrkOIsl8YCIU85biS/mg3izInq1ZNzkB1QrzyV16tGyWTeSByjOUc82jIOicNXpShnOAf8OCKQugxpU2lhkax6gwBHW5TzrO9XbD/bRlWs+2qoVs4eZDNidQPidoRuK2UPoxXcFQOXYKFNRD0AZYaRMJh0ypn086RABwIilG1sXVyMmmvr31sEEdDBynF24GnNEbDqdoa6KprI2tZQCS5mNEHlqi6jx2pAiLr6tB6GpZk45zAVY/KhopazhUc7NxgZAlKlOnZ3hMsBIpNMgwFmdvU1ttIxA46kStwR9EHy/aoESKDHcx87TbF9hu4qeBFTsseSbVVG4ghLfFyy5UWZWn/pymmM3djHuPhJ7Ldha9rgVWhYSvE5yRCydUvs8wKjeGBIJzw2sPpEtChltGwI110ZaP/M8IHZStNoDoiuZm2Usd6VT6q1FY/SLzAuLSbcFDLD8mrxrg9aEgA+WlVh18ihrLExd2gTI/03eke2A90PiWyBu+/MK0OSRPUsvgu/yEX9f/H0Qz17cH7z9cedwjYDhABannGHYXf9jcX5B3h7et/R3h4eH45J//d5v9e2n438E0vUf);lineShape=1;" vertex="1" parent="1">
                    <mxGeometry x="816.5321175542626" y="212.797272181265" width="9.739300399988732" height="8.910584008443626" as="geometry"/>
                </mxCell>
                <mxCell id="176" value="" style="shape=stencil(lZrZcls3DIafRrcY7st1mr5HZuLUmrp2xnG6vH3BqjwSQeineCdb/HRI7ADPyX/68fzl+9PJmR8f72+/P/11/vrxfPK/nJw7vz4/vZ8/+NPJfz75T9/e3p9+e3/7+fr18vf3L21l+/TH25/tF/6+cJWia5Az/1z+Ycil//7x62X5y/n1Zrk1VMf1lrwB6yOFOKx3VPz99fxzpg7rA+UA1kdy434S2Xp/vTdyP4UM+H2f+uOP8xry9j4QPIUyAnxiIKHIOxISjeQLADIFsSU+A3hC8lJnrOT/ta4C2VD2I+DJRABksgJgvQMzKo5yHoEMpVT40KNdsOUWcIZqyY2K9pYS0HQNZEYpeU8emGqNlMct+UAVKK6ylMQTEt5SpiSeUKB3MlBHPfhKFSiusuWMQLAU0RkYGBXHBu+QlMrk0IEK3pI1I5C6hzwKZKwHBuwI1O60DwLstBVYqwK4bo6PAp4i0vQMBBhYFSCR2Tt0hnFJAQqlPaBuKi7h7KMAjhKI3grAwRO56AxwRgIJSAE4COydgUNl3gIq2S3j4wQQtraUF7F1BtzmGXLogedRYFcPOVHck1LuCeBRoPYU8yBQzOYZCkfvLT1cE/GjAPvDHhB71nsUSOS2XJRrg0UGsmkEOItiKbkxZZUKi0oGRHFSTc9694BUJLAQq6g1uL4pOFSWsUisbmWtVQCeEtpS7YXzAQTsQFVWZFxBeaQH7k1GTdeEg0ClHCWQYTdjeuV8EFxoIuursiSruPjm35N7KhSBubbYK07NWRFoLrG5jme4OZZOHJn/9hFATimQyxJA5sdptiYJoEDDgPC5JmlgTQx4J4EINMeJ3Exb8kiugYKXgEOHTv3rWwBtqcjWjwELpMS2kWYAbInTbJoOjYIlp9lZrB7Eb06zs5QC8GoGymRLER069vro1paAefMZUpAA6hWzlz1K8wcEWNnJVVy5pim6PuCjedIcfMRR/98C2CH8BBQEODl4uEbDu049PQF1NQzk6QkBmGurzqdgicYzXJ3PHoQcgottmaqxy20DXO+I8Uxr40Ho43pHDE8WSYvrHTHaWOTFViBlCaDMy4AYIy5yOwNixLSoHhiQ5o3rEwbELGRRATVgq8biqlCGDVzFlTolCFwnliqHiYtKlL8W5r2odRswanpRTSsArtcVAHcECoB7DgXAXY0C4L5JAXBnNgOL3k8BcHepALh/VQDcISsA7sEVAHf5CoDnCAqAJxUzsJiFKACetigAnucowK4eFjMpBcBTLwXAc7UZWEzuFADPBhUATx8VAM83FQBPUBUAz2gVAE+BFQDPmRswFomLSbYC4Fm5AuBpfDnatgPA8/4GiCsIfKPAQBQ3CvjOomVRcY2Cb0XKNKnwR0F0r3SQFzWpy+1eCedHsfpIBrnoVLe22ykUNZxss7zFXVOVPU27YQNP4GwQxr6s3eHhJkhe+kWYdluPLwDfLxpVIMY+WjkAA4Mxu4sZNd3uUsEZgpMDI4tvOpteRefnoFjdccV3bRVhjnNW9kAFCskm2U8nONawkxZwnEy9mz900Atx/ecpj7vn1AN8cxrYGTieMPJ+08AIbHrTcl2OWjcjJW9gZXs44HU5qqeczAbHYXRLkwMDAyNK6JnlZjmaR0gzxr+e5Z2sga9ZTNfQBuduGUgMtPgqu1nTJ6Z3lm+9ErNczh+ub998O7+8XF7euf1evq3D/7q86eM//ws=);lineShape=1;" vertex="1" parent="1">
                    <mxGeometry x="881.9179964102807" y="179.3668869648327" width="2.787784777469984" height="45.90877391341088" as="geometry"/>
                </mxCell>
                <mxCell id="177" value="" style="shape=stencil(lVfZbhsxDPwavxKiTuo5Tf8jQJzGaBoHjnv9fekaWi+5uxPkbQ+OJB7DoXbp7v354W2/i+H9fDp+3/8+PJ6fd+nLLsbD6/P+dDjr0y7d79Ld0/G0/3Y6/nx9vL6/PVwsL08/jr8uK/y54iJJvYBi+Hv9ECiE/x++Xs1fDq8zc2bK1p6JI7BvlIuxj9T6tn1MlIOxL1QZ2HfK3dh3KmnbPuly7vyZOnA4M7VsHeBxxHVAoyYWIFTqNqCk8XsAUqUEfCjifciZUtsGVA0q26BGymCHKhQsoAZisEOLVGyUahuJWQdUKjZvLVOQbYAESg7QqQIfJJFEA5BMDI4kjYL1QQRyoTeKzdYe9qELxeABCbCnd58HBQhwWgHVOt0LFXSkTt3ys1fKHwCc05rpjI/kGCqUAB8UwMkC9AvaQdcrHtBw4nL2gI6cnmIyByAfNOrNA1C13vI6AwQMSOzDGlEtTbU5S1wEfFAAL0oD9SUFFOdDGd1/K0q8IFBDO9QVPkSUh7oo7w8o2oYazHcAAqRRb9UDYKb7ovjKSOUWQJrPA2rGHCYNn6UaqfRlC9c2tPVhjnrKCZRR/V0X9V0QqVVGF6TuyIc6BotJ2QOeZRQh4VMIiVQdh3hI67rMKevtFqoyqJepLrr5R/dEtFblbbY6dIkEKly1XawPtY8l1gETxSZAhE6XPka2adzIQwPWAdkPoXlKzfqM1T0gdVjgedHLEsMjJfEiFPOI2zogem1nGb1nfXJdaIpOogw4p5N5t0fiQAXkgQuJdbrB2VuXE8ugMrR+/UAUxZkzujpQtYWaoYRO94qbeQXxD4uZeAxnG+bJZiuNNr5h7rQzEcPDuP4bxziwZW4jw7BywpDtmzma/jUyVm/CIM9W3IMzRxrOy9VhEVP05qjhfvJ2+qG5Ptwuwk+Hl5frPXr+31+c9dP10p3u/wE=);lineShape=1;" vertex="1" parent="1">
                    <mxGeometry x="879.1959833329095" y="221.14513305828956" width="5.6061751883924655" height="5.607093928302086" as="geometry"/>
                </mxCell>
                <mxCell id="178" value="" style="shape=stencil(rVddb9swDPw1fj1Ioj6fu+5/FGi6BMuSIs229t+PnuHMoucLBuzNcY7yUUcepUEe3vZPr7shuLfr5fx19/PwfN0P8mkI4XDa7y6Hqz4N8jjIw8v5svtyOX8/PU+/X59G5Pj07fxjXOF9imsVJYxRwX1MbyJa+v3i84Q/Hk4LfG3wPd57hLAdUBpi6QMaQiEBYSYwB4QEke2AnFB8FyABUrcDUoXLfc4OsZEAh+r6gIoatwNinFOcA1JBIjlIQesDNKvmSIDASRdQBEK2NVSk2gVUh0CUHguhT7pmeLKtEdkI7Rwcy8GWUmsoRAaPki0+5G28s6WtxR7JFrkVHxWN8NfsDD4jUj6xl6wlRKKAh/QCtDhr+HfFkPrGaYLGqhQuWnxibYAcVnjCp8DLio8n3gJpq3xJ06j6ze6nEP5aXYZPvoPPpt4KItnPBmf4aL3RfF3fkWM9E3xe8W9zR2zo5Xs+9xvSCtxQyQaF2Q8WeNYAftUwOn1IAzjroipAJQVxy24hcCUbquubBtBRQg3CmLQWaGUWCr9qYE9mpczlvmiYTPik1foyW8B/wftsHaUqIVYQOih7hYsONpKxUjIeXTwdMuJt02SlRHLQyWpcNCUENsYE1ZwOMh2USSmZ80fhsuko7r+g1uFJwHgW6DtZW4k56XiGMrM40VFQ18cJBOIUTWdNr5ujByItNEkGz6xRG0Xs+p6NAnX+bPDM6cZJ7S2e8Vfnt3xYTaixiRh8Zvnq7DCCwXO8sWo9HLF82yz/rYLoaXExKW5FPTPc+kA1TUBnk+Kl7+OIyBL4x3vKfbw+/LkUvRyOx+lOtfzfXqL01XQBk8df);lineShape=1;" vertex="1" parent="1">
                    <mxGeometry x="884.8017385731036" y="221.3712042856372" width="3.2647680813080275" height="4.936608899025166" as="geometry"/>
                </mxCell>
                <mxCell id="179" value="" style="shape=stencil(lVpbchw3DDyNflkEAb6+HecerrIcqeJILll53T6YqEgtm7O99p+EZfMBgEADnDv98P3h07f7uxS/v748/37/9+Pn14c7/eUupcenh/uXx1f/604/3umHL88v97+9PP/59Pnt/2+fjpHHX388/3XM8M8bLoZUDlCK/w5BjP8Lfn0b/vXxaRneKg6368MlqMBwyWx4xdm1XB+e9tkr2UwKrS/DJaR6fbiGnGF4J3u3kNoy3JeT68NzkLQM11DJUUuQ9agWml4fXkNaZy8hkqO2YOveazCymR56XIb3EMlmRHB6cUMR3YgGWZ1SUrBOABb6qh6XJOZoJRRYwTVEjixteOIEVGrf42LAlnowsiV3r7zazCWRreAOtjqoSywRgI2rPQHudAyQQ4QtudtxANjBJY1dyRKqrgCXNAKoIa8hwiWVuPbh26Clxg3X0VsPfyeG04i+pBKEnEHTuIwTkIbtzwFuptVwakFIlNYcCkSXaZlzQB3RZwLqiJbn0c7de1WrupaIpc19c7W0S9gZzNC9XaIsAFdMZea3nG2po5ashU4MlwUzSOYpJNsIjBOgNJDlglc0uylZGnEzrYd2SSXBOG+HdgnNPIKJzSWFaKlsebbMVHoOsBG2JiCPNc8BeVuhhM7OUIPaCmgjjpwD2kivMyNy5uI/g5aqa4m4t/8Md7oqpVL+s6z3odq4UucAG54zAa43tiV3vlWttQYhWvKf8+p8tVH3rh2ToksqUWuLwVYtuaSTFZpgIGspJKKlppjjXJLYCoZ2cEkiztfyBshD0eeAMhzhAsCyaJs5cwJKMMb3Kt44lzCu4T93QwCjiM35UkdAY1tqg1lMQKOxtfXB8C4AhQPgxrlEyKG732lBQGG82GntemiXKLF0l3FdJkCoL3UveYB6p7HJc4AO758AlxBf6oaH7jzt9rwBMg0CvYygMgFlxJFzQEWu4ZJM7rT/3FZv7e6OhGD1rQBySWVnmGFrAvpIMdcA4N4HgKm1Y447ACQp9slSLwCs4DgADQEsT0uMyE4cUW4ssR2CkY0DUBDQbqwgCOjMNzrSync9XDU1Vq+8R9K3QHN7iWI/eYi86fWGmvKm1xuGyJuabpgaCrMb3nTMt2nphr+W7Qw0unYsLn/gzm1bunWrt0MryUHvdr08NLd039XKeifnl5QEv3ME6wucbor1BU6PzerRU8V2rlgw3Q/c0p9FtC35dp5WKtZaPgVj4J4ImyCAbsnLelih0l6cJ3MMsJkrVjeAUTLqhATTilKO7wAokl3CSljnSLKxJpqt45beIz1025NvHLa/BkC622lbyrkqZOtjCsbAvWAFBu6+RJKK/yyKAGNVRB2X/oKy01pr6zK7hMUmr0ogbbmE2iEjkXOAsmpuc2+fIrMz6GYH4xVpws6AT8E6ll6R5q0iZd1vr3AT1CmzgX5eVTeMGscUrJVQsZntUzA7HI0D6G5UygaO1gQU+oW2dGrCAtOn6Lx/gm8WGjIDROy61kQfRUpDguJTsF5cqfhIU/poLlzrYwGj8SmMrWCjsXzRKWOhsqRhpgkwmlCKYO/BpxDeT4TIVyKtSPOWFHOj7fKckYBn/pqVFe9DVtoezLOhedHXZS+J1rEtZZy72lbCukSIa5ih4Yy/+FnCQt8lLPLpVghZpFRUK5YE2ijZ1YxBQAsl7KrYDlELmb2kCHa/NdGUpXGkwAkQ+kaQti7TMQV7PmrYDnmf4hxQB4ecgEYvUCojzk1ApS3OlEdfbAIKbXEmwz5W4g3598frCTDaOU4Jg8DxmslWkLHjCRDa4pSd3vfBlc8BHoVW13AJO7QU9CWXsLaU+J2GDxCMRm9JWDYdEvZKLeitMrnyOTPeSmpO4AatmBmRvowWLBMLfXTJGJAyLb7390Hq1Nvjt/LgNZrP099oJErIFYQSqjQ+NngfTr9vQN4s9DEqImuOlKFGzByRemVEDsI/5oj4oUukr4cbS4u0eRGRrkTaSt4+yoiUWW+NEd7OPxtOv6WKqJnEj5phuJDrEfExzwX0qIKKZH2ErUaJ9P3op78yuzHc/3j/oO3L49evb9/DXf6OH8C56O3jOf34Hw==);lineShape=1;" vertex="1" parent="1">
                    <mxGeometry x="881.2219903894957" y="178.6711764495622" width="61.119033367870166" height="41.52948151824544" as="geometry"/>
                </mxCell>
                <mxCell id="180" value="" style="shape=stencil(nVhJbhtBDHyNrkTvy9lJ/mHAcizEsQzZ2X6fmgitDNmaEpKbFrKbS5Es9i7evT3dv+53wb29n45f9j8OD+9Pu/hhF8Lh5Wl/Orzj0y5+3MW7x+Np//l0/PbycP7+er9ILp++Hr8vJ/w865Uqri1awf06/+KkxT8/fDrLPx9etHxzSj5K90S+Se9KvooP2/LVidfn93HhdXkvOSp5HyVmohAlGYUqhVmUpWqLQpCUiEIbHl4UcAOJaXPDgEtM44jCdQX8nbVCk1KJQpaclEJK4htRQJqrVuiSiEndidM35CSBmNS9dA283CSzG6I0HaUSBnavK+Rx3kUhiy9EAbXgtUKl4O7NYgnwjczpLrlohUAT5x3iqp0AHh0BE65w5ooqieC7F0kaTLVLYXH10vQNzd9CX9FxBYAzqyDUiwYTjmDoQ56qBhMAzBKRy+hyFwXgm6Q6AUy6IBCGRMAUk1QdJQCY5SFAQZsEAAfitE+SjElVAgmrl6ijCqx0kmhnW/cKjRsKJU8XEKy60alX8pVkDbNhciCTXg9rg5UP1GFT//0yvbbsmeQrARH8DVY+UXvKdH4kEELCkpUPJP5eQp/kKYDKZH+k8m06P7MSsFxkiSfBQxjtfJVfR/AA+WjlI42PKYAFbwQPfip5kBeCB28771IvxH5v8Xa7IGeDOmla7opBjA260aBW8ozpuJGedQJowbvpfDbyIW86YqPs0Q24rwFKG4phFEsB0HiaKbMUGD3/3+TBdbtJcKYkCkMmzFOJlDDGWDA16WmKMShNDjBZC/EBozgadlAHS9oa9gZ1CzsgqKjF9kXwj0RMamkQoBXDYYQF7Dfrzli50z3ZWQzO00hrwWj3Zo/KYwnYJLM6D8vmw8hsEW8UPN0R4EM3/Lpxp6ONEgh5u8E0db8A5a8EGq1PS0Wn62ZrliJgbWEmAWrGpHxhDVu7mukZWL0qu8HbDTiiSbIVuNmlAutjJSWKejC7WmiDCWztzFmHFVs/3eL9aFuXSdUo8yp9UoiUei2M387CsYxdVyh2ja+UqwGapkIT9yBZ8uspe1/kda93dDSXqSdhuJMUQN481CA+LKDJkh1HUYf4hGDkWT+CfLLnM64G+Wr9ZVQH+Z0eslhdQj5WK8/iUyz5BXng57dk48nwU+b4M675Hw93N+Tx4e8r4ePh+fn8yLj+374q4qfzi2T8+Bs=);lineShape=1;" vertex="1" parent="1">
                    <mxGeometry x="933.0459463651184" y="210.76103671609866" width="11.056586114753907" height="13.485060964830904" as="geometry"/>
                </mxCell>
                <mxCell id="183" value="" style="shape=stencil(lVvJch03DPwaXVncwOXsJP/hKsuxKo7tsp3t79OMiqM3jXmt+CYN2TMACIDY3kN58+3D2y+PDzl++/7182+Pfz29+/7hofz0kPPTpw+PX5++46+H8vNDefP+89fHX79+/uPTu+f/v7xdO9dfv3/+c73h72dcDJYWKMd/9oM4/nvwy/P2j0+fbranUMtpewox3t+eQ42n7TnEcn97CanQ9t7ub68hnmkvoSe1ffbT9hp6vb/dwrTTdgtDsNrCPNPewhDEdN7e5fYR5lmQQxIz98v29ilZTTG0dj5W6MUUAOhBPgNSKOKoUg6pngF4YhIwIgNGFoDCuraeKJIK60OqWvdrsMgAU1+wbRwHwEISp4zl2hmgVBrLpEaphaIALdTEgKlOGmo8z4AujRLLhXgYoamD66zbaQZT2jr4HOC0mnAreF8+ayvclrK2Fyd4AIp0XMsNkueqIQtdWo7wLCW4F1NfKCET0zgZISUQUM/+Cz4jiYPLh6odgLkvh2sANOcspRKlVwIBmRx23i78GjDZzZRDDNcXCBThLNZStzpeA9J2KgcA5yD8Eigmiyttf/Ma4NxM6dKmQTFdPGVs93wNwMVE5zCl9wbF/eyMa9wmdQ3obHEV7l4oHyhOZ69R4e7VFwafAwBdncNk9a4lFGFxYDFmBkzBw5LJ+VKsMCkhVsiEvEY1qd4ANGOACVcJmWQCtJA0gLw3AF3xUEKjk+6hKrHWfe8fgOPsrwG2vdABmCGKkwbF0RigrixQHM/qbTFMFUeOrZsHIG0bvAZMdsaWtw1ex5IxlLPXsCJdJQioZylZldcuCKCDM9PhLYJlIkk7skXAWb2t73DlGgACzp7PcAGIO24RUBmgDu6FgAMwNQ+DDajhZIQBLQIqA4ZQPhBAXqPhKMU54H3JARTTAJBYW5Ymugg4q0YrO/q4BuBWngxQYgVgEA9wC8KA1vvoHEw6MryP8lQApgKYYxrapaTUnGr0HX1cAzq7+zZkcAIAS2nIGwjLrEtavbGcziT1uMVwD0A23dN2ntdpK8xlMkAFJz1xDtSzVI31PiKpyKQJ76OUBgBlolimMLTDtQkpYZluoG4yMgaAs/u2L4BrAEI4+kLfRF4Dmjs4Hd3jff0c/vQptRXvIxMdUQPg+c4kjbST/uuaRuQQbsDxCB7wvjwYMIU9jMwX+9DXLgDj7FtHlekA3mdnexi2k81rABxjZICKyIYrIgytSwBQMQeAoaTU9hV4APq28nuAORkwVfWq7/z8AIx99tcAeNLGgCm8N5b54HTyiuV61qUZpefDcsoMUNUfLI8z0zPJ8AfLZgxQd9zMrEt40hQPZdfcDkCRd9ysfMfNQ3+vAcauEk9UOjAbV07wRGWK0ynfeiJ0aXYuU+CJsrg5d2HlAExp01iemQGqCrcAnQHqHFKM7AWAUI5pTiemKeOfBTAGqCLZWnZfUF5gARwPyn1juVNl8EUO9xDNf0JzTXHlAigjnTuavxXTKwBHkqr/LN0ZDDDNg/+C8q7T1U7WNzUP5hQ8K0eDc3BilW5gcvFxAbRucItDxzPrXJ2UVIl2AZqTkuoPXBupoOkaIT34lefoWk7TyUmVKl7U+dYi1D03uZr4f6zU2ZCq6MyjIXAL0Br+g4DOQdMcMqnGpUPh8XqFOjnjvGbqDiFuWqplT9M8FPcF01dp5pzgtds9Od0oOgZKLhw4SgX3giYqlAGgHMfwuoQwSkW7w12MaVeG7wEo5QWRSjXGEV7cxKLqTgEgOcArAbhRtDtkMwg5AXmBFWHrrIOqIYsrxUPdTb4bgEpIR+HK2uJKidV1wBZXium8y/W3uZniIbE9gCtVu0MGy2ItmofIlTUQqSo6K0mnzClJf4+0nXPkKPvmve9Ozk1hQAU03bWQu1a+bpxq9S7toVdOhABQjqwXzi+7boP3zDXUrjsvPbmKTpX2AACVdbtuN61KXWeA8nxtctsPXKloo01WDRCpDq4NV4rTFR0AEqlG3AND90qi1VU4VSluFXGpNK1bBM24MPBaldY4IW26A9aqq5Y32bpszpGtWrb6gqtwApAV066xCCKbYto5slZkavbSNrkBqODYJrebmp7nASA5gMo5zFfLdWna3OBJS7ITCQCTFOXUk7nK2upPqQ6Y8ZUFrmS7yc0kAaBM1ApP8IErlftZZq8BrlRPwRIXmRZX6guR5/jslUa7K/ZZkQMPtXOKYvrarb4TmaRfqsbhj0V5T9fKvrXqvGxNK0QGqL5ILeyMIbeqAEdj5gDoSZXq4qXVeld9c6caELSa0VszGDSzaVsM9wA8LGCywVtcvxYnIwdPXP4AgLK44vKHqgcT13wQMZ1lKx8AKk1XPb9QmiMp7UvsGmCcT0PQKjgpLh2AoLMekyKLW3JTY1KZOy8Qg/xC4jAUYlAjqCVyZLxGswTTeXIkAK7UHbeGfmk2LMv7ITcOdBdXaoLO2KZLlI327Cr+echqec5ciMt6LCS74ARcqVJfdoNYa5Rb8JBcJzKXHTZeAwYrX9YjFalziwBcybnb7sY3o6w+JncDgSs5Yd2497/mZNWEtXFEtrhSYrVdMrgBqBQ/VZYSiFRDrsnNrK4BZ/0FCtbXCLWaHS5uwrrKglRy854AqPwBAJ5/Lprp5M4hyyZ1ckU1AFS9NcWtmwcgyemCyVlZinLcc7jGpXRK3fXM9aANW3PX4SRvbzrqYWJMDwyzA67SKjMHnkXSnt0Yucxg0h6XOM5JRrWR05e4h0jubKcR9ShD4Mi0Rzn274L+KAswrlESpc5cvF2558gTo1E2fF0V75DsPbkbbVfjd5F/rRBlfTqyV9bNl8ju6bXtlSWjfgjxgz8ne3U7/nj55dr7p48fn3/4drvOv3TDo+dfyZWf/wU=);lineShape=1;" vertex="1" parent="1">
                    <mxGeometry x="700.072250713114" y="179.507609043012" width="51.88381008200862" height="38.818586764027316" as="geometry"/>
                </mxCell>
                <mxCell id="184" value="" style="shape=stencil(lVjJclQxDPyauapky4t8hvAfqSKQKUKSSsL29+gxZfMs5zXkNku3F6m1+STvnm+vH29OkZ9fnh6+3Pw4f3y5Pcn7U4zn+9ubp/OLfTrJ1UnefXp4uvn89PDt/uPl++P1htw+fX34vq3w88LLiWraWJF/XX4JFNqfHz5c8Hfn+z1eicOErxT4GF+YROf1mTLYoESqcSYkCgkQMrEjKKUICJXSfOUYSeWYUJlCngmVBFy62nozQQI1tEOmzDOhEBdAUH8kaZSBlZRJy0RIQpIBQfp6g1ApgktroTB7OjM0q6q3kokxgR1aoDxrL1dq4A4tkdSJUAIVBYRCbbaSqSsFQFBqbodGEVw6MBPPrt7Ugm7dunQGoVCsgGBGmQOiNiroEkJ1vrXGfsgjz5VZG6YWASFn6wX2hArkWhO1ZYcG7mBBLY6QiIGVclvuYOoD2siBdHa1Zorg0ikthEIC7iDqc6VW6DjLKuoIjQJIGzF3+XeCxRQDuUZTa5sJAs1qybrMQd0yzJXSbTjwDYZD9Glpiw/gttBz0H/jXWI1fAX1yqqZenwCyuZeXgdee845wLt0YXiUkQzv7FNhFuYuyR0e+YupzqK2nKng/IGkeXwGArLMox6fQI6P3Tv79VHM+OJv+ArOL73C7OyDQixRVI8v4L6j5O38iwrIur7CeBGfSE2fMAn13mmvfxiPXg+t73jk37nW7CrikYCWDRQYlH0xMzwSHHe57/ABBowPMKuGMGDWAGZQNrh3WTsBJXj+4vDWxICEZQluCeACAuzN+LjUmNiLyOsE7Y3oroohD28xMGvU6qSCI4nZaE4SVrpRPy7Vi86aA9TgWK13Q4i1PMgL1k24ONbQB5+jfsVf2pQOLm0dkROqEZDwrOfKc+RUXMrsxNk1mpaLUBtY+t87ggA/NKY0O67WvudRK+t73wzTuxGcNGzagzPFksDM0GigNTEXR0jdM0dWciO5DdEREVJPWGMuwiGq6yAlfaw/Gjddo5la1+/rhDGiDIINUmgCXvyQAqybdTSuYwIec8/r8bCkGRG4g41+ZbZSbPglIvZKOQgJDuVlaQa39hDUku31xVXPQgw8nXOfmgYhUgLxkIdNRtagiqaipbwJHCjS6O7HlaGJDF/d2wsMnm19/56VwXnyMuAE+PBi+DTbh2GoGd69KDDMeHkc9y8eKiL6eQV3U4av6vGo7Ijv3xm2v3npNxmOK3npfxnm6ze/V/4Tbx/+Po5+Ot/dXd5W9//7x1T76fIQK1e/AQ==);lineShape=1;" vertex="1" parent="1">
                    <mxGeometry x="746.4631885112285" y="213.13660348218292" width="7.907702183702645" height="9.800005863920148" as="geometry"/>
                </mxCell>
                <mxCell id="185" value="CONCEPT : A ke ek traversal ko pakdo and B ke saare traversal karalo" style="text;html=1;align=center;verticalAlign=middle;resizable=0;points=[];autosize=1;strokeColor=none;fillColor=none;" vertex="1" parent="1">
                    <mxGeometry x="960" y="184.44" width="400" height="30" as="geometry"/>
                </mxCell>
            </root>
        </mxGraphModel>
    </diagram>
</mxfile>